<?xml version="1.0" standalone="no"?>
<!DOCTYPE svg PUBLIC "-//W3C//DTD SVG 1.1//EN" "http://www.w3.org/Graphics/SVG/1.1/DTD/svg11.dtd" >
<svg>
<metadata>
Created by FontForge 20090914 at Wed Jun 10 00:18:50 2020
 By www-data
Copyright 2020 The Spartan Project Authors (https://github.com/bghryct/Spartan-MB)
</metadata>
<defs>
<font id="Spartan-Thin" horiz-adv-x="1428" >
  <font-face 
    font-family="Spartan Thin"
    font-weight="250"
    font-stretch="normal"
    units-per-em="2000"
    panose-1="0 0 0 0 0 0 0 0 0 0"
    ascent="1600"
    descent="-400"
    x-height="1024"
    cap-height="1650"
    bbox="-610 -592.002 2991 2304"
    underline-thickness="100"
    underline-position="-100"
    unicode-range="U+000D-U+FB02"
  />
<missing-glyph horiz-adv-x="684" 
 />
    <glyph glyph-name="fi" unicode="fi" horiz-adv-x="857" 
d="M236 0v982.001h-84v42h84v430c0 73.333 9.83301 131.666 29.5 174.999s47 74.333 82 93s75.167 28 120.5 28c26 0 51.833 -4.83301 77.5 -14.5s48.834 -23.667 69.501 -42s37 -40.833 49 -67.5l-46 -18c-10 29.333 -29.5 52.333 -58.5 69s-58.167 25 -87.5 25
c-56.667 0 -100.834 -18.167 -132.501 -54.5s-47.5 -97.5 -47.5 -183.5v-440h374v-1024h-56v982h-318v-982h-56z" />
    <glyph glyph-name="fl" unicode="fl" horiz-adv-x="1048" 
d="M283 0l0.00195312 982.001h-86v42h86v430c0 73.333 9.66699 131.666 29 174.999s46.333 74.333 81 93s74.667 28 120 28c29.333 0 54.166 -3 74.499 -9s37.5 -13 51.5 -21l-24 -40c-12.667 7.33301 -27.167 12.833 -43.5 16.5s-34.5 5.5 -54.5 5.5
c-56.667 0 -100.834 -18.167 -132.501 -54.5s-47.5 -97.5 -47.5 -183.5v-440h272v-42h-272v-982h-54zM715.002 0.000976562v1720h52v-1720h-52z" />
    <glyph glyph-name="f_f" unicode="ff" horiz-adv-x="1224" 
d="M294 0l0.00292969 982.002h-84v42h84v430c0 73.333 9.83301 131.666 29.5 174.999s47 74.333 82 93s75.167 28 120.5 28c29.333 0 54.166 -3 74.499 -9s37.5 -13 51.5 -21l-24 -40c-12.667 7.33301 -27.167 12.833 -43.5 16.5s-34.5 5.5 -54.5 5.5
c-56.667 0 -100.834 -18.167 -132.501 -54.5s-47.5 -97.5 -47.5 -183.5v-440h332v430c0 73.333 9.83301 131.666 29.5 174.999s47 74.333 82 93s75.167 28 120.5 28c39.333 0 70.666 -4.83301 93.999 -14.5s42 -20.167 56 -31.5l-20 -42c-14 12 -31.167 21.667 -51.5 29
s-45.166 11 -74.499 11c-56.667 0 -100.834 -18.167 -132.501 -54.5s-47.5 -97.5 -47.5 -183.5v-440h272v-42h-272v-982h-56v982h-332v-982h-56z" />
    <glyph glyph-name="f_f_i" unicode="ffi" horiz-adv-x="1338" 
d="M283 0l0.00292969 982.002h-84v42h84v430c0 73.333 9.83301 131.666 29.5 174.999s47 74.333 82 93s75.167 28 120.5 28c29.333 0 54.166 -3 74.499 -9s37.5 -13 51.5 -21l-24 -40c-12.667 7.33301 -27.167 12.833 -43.5 16.5s-34.5 5.5 -54.5 5.5
c-56.667 0 -100.834 -18.167 -132.501 -54.5s-47.5 -97.5 -47.5 -183.5v-440h332v430c0 73.333 9.83301 131.666 29.5 174.999s47 74.333 82 93s75.167 28 120.5 28c26 0 51.667 -4.83301 77 -14.5s48.5 -23.667 69.5 -42s37.5 -40.833 49.5 -67.5l-46 -18
c-10 29.333 -29.5 52.333 -58.5 69s-58.167 25 -87.5 25c-56.667 0 -100.834 -18.167 -132.501 -54.5s-47.5 -97.5 -47.5 -183.5v-440h372v-1024h-56v982h-316v-982h-56v982h-332v-982h-56z" />
    <glyph glyph-name="f_f_l" unicode="ffl" horiz-adv-x="1440" 
d="M283 0l0.00390625 982.002h-84v42h84v430c0 73.333 9.83301 131.666 29.5 174.999s47 74.333 82 93s75.167 28 120.5 28c29.333 0 54.166 -3 74.499 -9s37.5 -13 51.5 -21l-24 -40c-12.667 7.33301 -27.167 12.833 -43.5 16.5s-34.5 5.5 -54.5 5.5
c-56.667 0 -100.834 -18.167 -132.501 -54.5s-47.5 -97.5 -47.5 -183.5v-440h332v430c0 73.333 9.83301 131.666 29.5 174.999s47 74.333 82 93s75.167 28 120.5 28c29.333 0 54.166 -3 74.499 -9s37.5 -13 51.5 -21l-24 -40c-12.667 7.33301 -27.167 12.833 -43.5 16.5
s-34.5 5.5 -54.5 5.5c-56.667 0 -100.834 -18.167 -132.501 -54.5s-47.5 -97.5 -47.5 -183.5v-440h272v-42h-272v-982h-56v982h-332v-982h-56zM1103 0.00195312v1720h56v-1720h-56z" />
    <glyph glyph-name=".notdef" horiz-adv-x="684" 
 />
    <glyph glyph-name="NULL" horiz-adv-x="0" 
 />
    <glyph glyph-name="NULL" horiz-adv-x="0" 
 />
    <glyph glyph-name="CR" unicode="&#xd;" horiz-adv-x="500" 
 />
    <glyph glyph-name="space" unicode=" " horiz-adv-x="500" 
 />
    <glyph glyph-name="exclam" unicode="!" horiz-adv-x="710" 
d="M329 336v1384h52v-1384h-52zM355 -32c-8.66699 0 -16.667 2.16699 -24 6.5s-13.166 10.166 -17.499 17.499s-6.5 15.333 -6.5 24s2.16699 16.667 6.5 24s10.166 13.166 17.499 17.499s15.333 6.5 24 6.5s16.667 -2.16699 24 -6.5s13.166 -10.166 17.499 -17.499
s6.5 -15.333 6.5 -24s-2.16699 -16.667 -6.5 -24s-10.166 -13.166 -17.499 -17.499s-15.333 -6.5 -24 -6.5z" />
    <glyph glyph-name="quotedbl" unicode="&#x22;" horiz-adv-x="764" 
d="M426 1368l-12 282h74l-12 -282h-50zM288 1368l-12 282h74l-12 -282h-50z" />
    <glyph glyph-name="numbersign" unicode="#" horiz-adv-x="1374" 
d="M340 0l58 414h-178v38h184l66 462h-250v38h254l58 416h38l-58 -416h426l58 416h38l-58 -416h178v-38h-184l-66 -462h250v-38h-254l-58 -414h-38l58 414h-426l-58 -414h-38zM440 452h428l64 462h-426z" />
    <glyph glyph-name="dollar" unicode="$" horiz-adv-x="1512" 
d="M762 -276l0.000976562 246.004c-52.667 0 -107 10.167 -163 30.5s-108.667 47.666 -158 81.999s-91.5 72.666 -126.5 114.999s-58.5 85.833 -70.5 130.5l44 22c24 -64.667 61.333 -121.667 112 -171s109.5 -87.833 176.5 -115.5s136.5 -41.5 208.5 -41.5
c78 0 148.667 16 212 48s113.666 77.5 150.999 136.5s56 128.167 56 207.5c0 68 -13.333 125 -40 171s-62.334 84.833 -107.001 116.5s-94.667 59.167 -150 82.5l-169 68c-70 26.667 -135 56 -195 88s-108.5 73 -145.5 123s-55.5 115.667 -55.5 197
c0 80 18.333 151.667 55 215s86.834 113.333 150.501 150s135.167 55 214.5 55v246h46v-248c77.333 -6.66699 148.333 -31.834 213 -75.501s110.334 -97.834 137.001 -162.501l-46 -24c-24.667 62 -69.5 112.833 -134.5 152.5s-136.5 59.5 -214.5 59.5
c-72 0 -135.833 -16.667 -191.5 -50s-99.5 -77.833 -131.5 -133.5s-48 -116.834 -48 -183.501c0 -72 17.833 -130.333 53.5 -175s82.167 -81 139.5 -109s117.666 -54.333 180.999 -79s124.333 -50 183 -76s111 -56.5 157 -91.5s82.5 -77.667 109.5 -128
s40.5 -112.166 40.5 -185.499c0 -84 -18.5 -158.5 -55.5 -223.5s-89.167 -116.833 -156.5 -155.5s-146 -60.667 -236 -66v-248h-46z" />
    <glyph glyph-name="percent" unicode="%" horiz-adv-x="2270" 
d="M635 892c-74.667 0 -141.834 16.667 -201.501 50s-107 79.666 -142 138.999s-52.5 127.666 -52.5 204.999s17.5 145.666 52.5 204.999s82.333 105.666 142 138.999s126.834 50 201.501 50c74 0 140.667 -16.667 200 -50s106.5 -79.666 141.5 -138.999
s52.5 -127.666 52.5 -204.999s-17.5 -145.666 -52.5 -204.999s-82.167 -105.666 -141.5 -138.999s-126 -50 -200 -50zM621 0l960 1650h58l-960 -1650h-58zM635 945c64.667 0 122.332 14.5 172.999 43.5s90.667 69.167 120 120.5s44 110.333 44 177
c0.666992 67.333 -13.666 126.5 -42.999 177.5s-69.5 91 -120.5 120s-108.833 43.5 -173.5 43.5c-65.333 0 -123.333 -14.5 -174 -43.5s-90.5 -69.167 -119.5 -120.5s-43.5 -110.333 -43.5 -177s14.5 -125.667 43.5 -177s68.833 -91.5 119.5 -120.5s108.667 -43.5 174 -43.5
zM1635 -32c-74 0 -140.833 16.667 -200.5 50s-107.167 79.666 -142.5 138.999s-53 127.666 -53 204.999s17.667 145.666 53 204.999s82.833 105.666 142.5 138.999s126.5 50 200.5 50c74.667 0 141.834 -16.667 201.501 -50s107 -79.666 142 -138.999
s52.5 -127.666 52.5 -204.999s-17.5 -145.666 -52.5 -204.999s-82.333 -105.666 -142 -138.999s-126.834 -50 -201.501 -50zM1635 21c65.333 0 123.333 14.5 174 43.5s90.5 69.167 119.5 120.5s43.5 110.333 43.5 177s-14.5 125.667 -43.5 177s-68.833 91.5 -119.5 120.5
s-108.667 43.5 -174 43.5c-64.667 0 -122.334 -14.5 -173.001 -43.5s-90.667 -69.167 -120 -120.5s-44 -110.333 -44 -177s14.667 -125.667 44 -177s69.333 -91.5 120 -120.5s108.334 -43.5 173.001 -43.5z" />
    <glyph glyph-name="ampersand" unicode="&#x26;" horiz-adv-x="1777" 
d="M703 -32c-80 0 -154.998 16.8359 -224.998 50.5029s-126.5 83.5 -169.5 149.5s-64.5 147 -64.5 243c0 114 33.333 215.5 100 304.5s164 165.167 292 228.5c-61.333 56.667 -110.166 107 -146.499 151s-62.333 85.833 -78 125.5s-23.5 80.5 -23.5 122.5
c0 64.667 15.167 122.334 45.5 173.001s71.666 90.667 123.999 120s111.166 44 176.499 44c48 0 92.833 -8.16699 134.5 -24.5s78 -39.833 109 -70.5s55.167 -67.334 72.5 -110.001s26 -90.334 26 -143.001c0 -94.667 -30 -171.5 -90 -230.5s-148.667 -116.167 -266 -171.5
l538 -588c12.667 15.333 28.334 36.5 47.001 63.5l57.5 84.5c19.667 29.333 36.667 55.666 51 78.999s23.166 39 26.499 47l38 -16c-20 -42.667 -47.5 -91.834 -82.5 -147.501s-69.5 -105.167 -103.5 -148.5l272 -304h-66l-238 266
c-82.667 -96.667 -171.334 -170.5 -266.001 -221.5s-191.667 -76.5 -291 -76.5zM701.002 16.0029c92 0 182.667 24.499 272 73.499s174.333 120.5 255 214.5l-556 604c-125.333 -60.667 -220 -133.167 -284 -217.5s-96 -178.166 -96 -281.499c0 -84 19 -155.333 57 -214
s88.167 -103.167 150.5 -133.5s129.5 -45.5 201.5 -45.5zM682.002 966.002c72.667 34.667 134.833 68.668 186.5 102.001s91.167 71 118.5 113s41 93 41 153c0 60.667 -13.167 113.167 -39.5 157.5s-61.833 78.5 -106.5 102.5s-94.334 36 -149.001 36
c-56 0 -106.5 -12.333 -151.5 -37s-80.5 -58.834 -106.5 -102.501s-39 -93.5 -39 -149.5c0 -36.667 7 -72 21 -106s38.833 -72 74.5 -114s85.834 -93.667 150.501 -155z" />
    <glyph glyph-name="quotesingle" unicode="'" horiz-adv-x="626" 
d="M288 1368l-12 282h74l-12 -282h-50z" />
    <glyph glyph-name="parenleft" unicode="(" horiz-adv-x="760" 
d="M574 -520c-42 52 -85.167 115.999 -129.5 191.999s-85.166 162.333 -122.499 259s-67.666 202.334 -90.999 317.001s-35 236.667 -35 366s11.667 251.333 35 366s53.666 220.5 90.999 317.5s78.166 183.5 122.499 259.5s87.5 140.333 129.5 193l38 -16
c-56 -84 -110.833 -182.5 -164.5 -295.5s-98 -238.667 -133 -377s-52.5 -287.5 -52.5 -447.5c0 -164.667 18.167 -317 54.5 -457s81.5 -265.5 135.5 -376.5s107.333 -205.833 160 -284.5z" />
    <glyph glyph-name="parenright" unicode=")" horiz-adv-x="760" 
d="M186 -520l-37.998 16c75.333 112.667 139 230.334 191 353.001s91.333 248.334 118 377.001s40 258 40 388c0 123.333 -12.5 248.333 -37.5 375s-63.167 252.667 -114.5 378s-117 247.666 -197 366.999l38 16c121.333 -154.667 214.166 -329.667 278.499 -525
s96.5 -398.666 96.5 -609.999c0 -202.667 -30.833 -401.834 -92.5 -597.501s-155.834 -374.834 -282.501 -537.501z" />
    <glyph glyph-name="asterisk" unicode="*" horiz-adv-x="878" 
d="M346 1394l-20 16l92 128l-150 48l8 24l150 -48v158h26v-158l150 48l8 -24l-150 -48l92 -128l-20 -16l-94 128z" />
    <glyph glyph-name="plus" unicode="+" horiz-adv-x="1482" 
d="M717 316v488h-488v48h488v488h48v-488h488v-48h-488v-488h-48z" />
    <glyph glyph-name="comma" unicode="," horiz-adv-x="709" 
d="M325 -186l-10 9.99805c8.66699 12.667 15.5 26.167 20.5 40.5s8.83301 30 11.5 47s4 35.833 4 56.5c-12.667 0 -23.834 4.83301 -33.501 14.5s-14.5 20.834 -14.5 33.501c0 14 4.5 25.5 13.5 34.5s20.833 13.5 35.5 13.5c16 0 29.5 -5.66699 40.5 -17
s16.5 -28.666 16.5 -51.999c0 -32.667 -9.16699 -67.5 -27.5 -104.5s-37.166 -62.5 -56.499 -76.5z" />
    <glyph glyph-name="hyphen" unicode="-" horiz-adv-x="1114" 
d="M235 556v48h644v-48h-644z" />
    <glyph glyph-name="period" unicode="." horiz-adv-x="734" 
d="M367 -32c-8.66699 0 -16.667 2.16699 -24 6.5s-13.166 10.166 -17.499 17.499s-6.5 15.333 -6.5 24s2.16699 16.667 6.5 24s10.166 13.166 17.499 17.499s15.333 6.5 24 6.5s16.667 -2.16699 24 -6.5s13.166 -10.166 17.499 -17.499s6.5 -15.333 6.5 -24
s-2.16699 -16.667 -6.5 -24s-10.166 -13.166 -17.499 -17.499s-15.333 -6.5 -24 -6.5z" />
    <glyph glyph-name="slash" unicode="/" horiz-adv-x="1056" 
d="M96 -240l824 1960h40l-824 -1960h-40z" />
    <glyph glyph-name="zero" unicode="0" horiz-adv-x="1748" 
d="M874 -32c-134 0 -251.167 35.667 -351.5 107s-178.5 171.333 -234.5 300s-84 278.334 -84 449.001c0 171.333 28 321.166 84 449.499s134.167 228.166 234.5 299.499s217.5 107 351.5 107s251.333 -35.667 352 -107s178.834 -171.166 234.501 -299.499
s83.5 -278.166 83.5 -449.499c0 -170.667 -27.833 -320.334 -83.5 -449.001s-133.834 -228.667 -234.501 -300s-218 -107 -352 -107zM874 22c122 0 228.667 33.5 320 100.5s162.5 160.667 213.5 281s76.5 260.5 76.5 420.5s-25.5 300.167 -76.5 420.5
s-122.167 214 -213.5 281s-198 100.5 -320 100.5c-121.333 0 -227.833 -33.5 -319.5 -100.5s-163 -160.667 -214 -281s-76.5 -260.5 -76.5 -420.5s25.5 -300.167 76.5 -420.5s122.333 -214 214 -281s198.167 -100.5 319.5 -100.5z" />
    <glyph glyph-name="one" unicode="1" horiz-adv-x="627" 
d="M289 0v1594h-106v56h162v-1650h-56z" />
    <glyph glyph-name="two" unicode="2" horiz-adv-x="1454" 
d="M159 0l0.00292969 17.998l427.5 347c118.333 99.333 216.5 186.666 294.5 261.999s139.333 142.5 184 201.5s76.167 113.833 94.5 164.5s27.5 101.334 27.5 152.001c0 88.667 -21.167 168.667 -63.5 240s-98.833 128 -169.5 170s-149 63 -235 63s-164.333 -21 -235 -63
s-127.167 -98.5 -169.5 -169.5s-63.5 -149.5 -63.5 -235.5h-62c0 72.667 13.667 141 41 205s65.166 120.333 113.499 169s104.666 86.834 168.999 114.501s133.166 41.5 206.499 41.5c96.667 0 185 -23.667 265 -71s144.167 -111.5 192.5 -192.5s72.5 -172.5 72.5 -274.5
c0 -53.333 -8.5 -105.666 -25.5 -156.999s-46 -106 -87 -164s-97 -122.667 -168 -194s-160.333 -153 -268 -245l-388.5 -320h967v-62h-1120z" />
    <glyph glyph-name="three" unicode="3" horiz-adv-x="1333" 
d="M653 -32c-96.667 0 -181.825 18.3311 -255.492 54.998s-131.167 87.834 -172.5 153.501s-62 141.5 -62 227.5h58c0 -74.667 18.667 -140 56 -196s88.5 -99.667 153.5 -131s138.833 -47 221.5 -47c123.333 0 221.666 34 294.999 102s110 156.333 110 265
c0 76.667 -18 146.334 -54 209.001s-83.833 112.667 -143.5 150s-125.834 56 -198.501 56c-22.667 0 -42 -2 -58 -6v58h44c76.667 0 145.167 17.667 205.5 53s108.166 82.5 143.499 141.5s53 123.833 53 194.5c0 70 -16.833 133 -50.5 189s-78.334 100.333 -134.001 133
s-116.834 49 -183.501 49c-67.333 0 -129 -16.5 -185 -49.5s-100.5 -77.333 -133.5 -133s-49.5 -117.5 -49.5 -185.5h-56c0 81.333 19.167 153.833 57.5 217.5s89.666 114 153.999 151s135.166 55.5 212.499 55.5c79.333 0 151.333 -19.167 216 -57.5
s116.167 -89.666 154.5 -153.999s57.5 -135.833 57.5 -214.5c0 -63.333 -12.833 -123.5 -38.5 -180.5s-61.334 -106.167 -107.001 -147.5s-98.5 -71.333 -158.5 -90c57.333 -12.667 109.833 -38.667 157.5 -78s86 -89.333 115 -150s43.5 -129.334 43.5 -206.001
c0 -82.667 -18.167 -156.667 -54.5 -222s-89.333 -117 -159 -155s-154.5 -57 -254.5 -57z" />
    <glyph glyph-name="four" unicode="4" horiz-adv-x="1314" 
d="M919 0v326h-830v50l830 1274h56v-1274h192v-50h-192v-326h-56zM152 376h767v1188z" />
    <glyph glyph-name="five" unicode="5" horiz-adv-x="1498" 
d="M739 -32c-89.333 0 -172.67 14.666 -250.003 43.999s-144.166 70.833 -200.499 124.5s-98.166 116.834 -125.499 189.501l46 24c40 -104 108 -185.667 204 -245s207 -89 333 -89c102.667 0 193 20 271 60s138.833 97 182.5 171s65.5 162.333 65.5 265
c0 108.667 -23.833 202.834 -71.5 282.501s-111.667 141.167 -192 184.5s-170.166 65 -269.499 65c-94.667 0 -183.834 -20.833 -267.501 -62.5s-160.167 -102.834 -229.5 -183.501l132 852h842v-50h-799l-104 -668c113.333 106.667 253 160 419 160
c114.667 0 216.334 -24.167 305.001 -72.5s158.334 -116.333 209.001 -204s76 -190.167 76 -307.5c0 -122.667 -26.833 -224 -80.5 -304s-124.334 -139.333 -212.001 -178s-182.167 -58 -283.5 -58z" />
    <glyph glyph-name="six" unicode="6" horiz-adv-x="1480" 
d="M734 -32c-88 0 -166.333 15.332 -235 45.999s-126.834 72 -174.501 124s-83.834 110.333 -108.501 175s-37 130.667 -37 198c0 73.333 13.5 146.333 40.5 219s60.833 133.334 101.5 182.001l620 738h70l-524 -626c43.333 23.333 86.833 41.166 130.5 53.499
s88.834 18.5 135.501 18.5c73.333 0 142.833 -13.833 208.5 -41.5s124 -67 175 -118s91.167 -111.167 120.5 -180.5s44 -145.666 44 -228.999c0 -108 -24.5 -204.167 -73.5 -288.5s-116.167 -150.5 -201.5 -198.5s-182.666 -72 -291.999 -72zM735 19.999
c98.667 0 186.668 21.999 264.001 65.999s138.333 104.167 183 180.5s67 163.5 67 261.5c0 99.333 -22.5 187.833 -67.5 265.5s-105.333 138.834 -181 183.501s-159.5 67 -251.5 67c-94.667 0 -181.167 -23.333 -259.5 -70s-141 -109.5 -188 -188.5
s-70.5 -167.5 -70.5 -265.5c0 -89.333 20.667 -172 62 -248s99.666 -137 174.999 -183s164.333 -69 267 -69z" />
    <glyph glyph-name="seven" unicode="7" horiz-adv-x="1235" 
d="M153 0l858 1600h-858v50h938v-26l-872 -1624h-66z" />
    <glyph glyph-name="eight" unicode="8" horiz-adv-x="1356" 
d="M678 -32c-94 0 -177.499 20.5 -250.499 61.5s-130.167 96.5 -171.5 166.5s-62 148.333 -62 235c0 101.333 28.833 191.5 86.5 270.5s135.5 135.833 233.5 170.5c-79.333 33.333 -142.5 85 -189.5 155s-70.5 148.667 -70.5 236c0 78 18.167 148.5 54.5 211.5
s86.5 113 150.5 150s137 55.5 219 55.5c61.333 0 117.833 -10.667 169.5 -32s96.5 -51 134.5 -89s67.5 -82.333 88.5 -133s31.5 -105 31.5 -163c0 -87.333 -23.5 -166 -70.5 -236s-110.167 -121.667 -189.5 -155c98 -34.667 175.833 -91.5 233.5 -170.5
s86.5 -169.167 86.5 -270.5c0 -86.667 -20.667 -165 -62 -235s-98.333 -125.5 -171 -166.5s-156.334 -61.5 -251.001 -61.5zM678.001 20c83.333 0 157 18 221 54s114.167 85 150.5 147s54.5 131.667 54.5 209c0 79.333 -18.5 150 -55.5 212s-87.667 110.833 -152 146.5
s-137.166 53.5 -218.499 53.5c-80 0 -152.167 -17.667 -216.5 -53s-115.333 -83.833 -153 -145.5s-56.5 -132.5 -56.5 -212.5c0 -78 18.167 -148 54.5 -210s86.666 -111 150.999 -147s137.833 -54 220.5 -54zM678.001 899c70.667 0 133.831 15.833 189.498 47.5
s99.5 75 131.5 130s48 117.5 48 187.5s-16.167 132.667 -48.5 188s-76.166 99 -131.499 131s-118.333 48 -189 48c-70 0 -132.833 -16 -188.5 -48s-99.667 -75.667 -132 -131s-48.5 -118 -48.5 -188s16 -132.5 48 -187.5s75.833 -98.333 131.5 -130
s118.834 -47.5 189.501 -47.5z" />
    <glyph glyph-name="nine" unicode="9" horiz-adv-x="1480" 
d="M469 0l538.997 641.998c-78 -58.667 -166 -88 -264 -88c-80 0 -154.333 14.333 -223 43s-128.667 68.834 -180 120.501s-91.166 112 -119.499 181s-42.5 143.833 -42.5 224.5c0 107.333 24.5 202.833 73.5 286.5s116.167 149.667 201.5 198s182 72.5 290 72.5
s203.833 -24 287.5 -72s149.5 -113.833 197.5 -197.5s72 -179.5 72 -287.5c0 -34 -3.16699 -68.167 -9.5 -102.5s-15.666 -68 -27.999 -101s-27.166 -64.667 -44.499 -95s-37.333 -59.166 -60 -86.499l-620 -738h-70zM743.997 610.998c68 0 132.166 13.499 192.499 40.499
s113.5 64 159.5 111s82.167 101.333 108.5 163s39.5 127.5 39.5 197.5c0 96.667 -21.5 182.667 -64.5 258s-102.167 134.5 -177.5 177.5s-161.333 64.5 -258 64.5c-97.333 0 -184.333 -21.667 -261 -65s-137 -102.666 -181 -177.999s-66 -161 -66 -257
c0 -96.667 22.333 -183.667 67 -261s105.334 -138.5 182.001 -183.5s163 -67.5 259 -67.5z" />
    <glyph glyph-name="colon" unicode=":" horiz-adv-x="703" 
d="M351 1012c-8.66699 0 -16.667 2.16699 -24 6.5s-13.166 10.166 -17.499 17.499s-6.5 15.333 -6.5 24s2.16699 16.667 6.5 24s10.166 13.166 17.499 17.499s15.333 6.5 24 6.5s16.667 -2.16699 24 -6.5s13.166 -10.166 17.499 -17.499s6.5 -15.333 6.5 -24
s-2.16699 -16.667 -6.5 -24s-10.166 -13.166 -17.499 -17.499s-15.333 -6.5 -24 -6.5zM351 -32c-8.66699 0 -16.667 2.16699 -24 6.5s-13.166 10.166 -17.499 17.499s-6.5 15.333 -6.5 24s2.16699 16.667 6.5 24s10.166 13.166 17.499 17.499s15.333 6.5 24 6.5
s16.667 -2.16699 24 -6.5s13.166 -10.166 17.499 -17.499s6.5 -15.333 6.5 -24s-2.16699 -16.667 -6.5 -24s-10.166 -13.166 -17.499 -17.499s-15.333 -6.5 -24 -6.5z" />
    <glyph glyph-name="semicolon" unicode=";" horiz-adv-x="702" 
d="M351 1012c-8.66699 0 -16.667 2.16699 -24 6.5s-13.166 10.166 -17.499 17.499s-6.5 15.333 -6.5 24s2.16699 16.667 6.5 24s10.166 13.166 17.499 17.499s15.333 6.5 24 6.5s16.667 -2.16699 24 -6.5s13.166 -10.166 17.499 -17.499s6.5 -15.333 6.5 -24
s-2.16699 -16.667 -6.5 -24s-10.166 -13.166 -17.499 -17.499s-15.333 -6.5 -24 -6.5zM325 -186l-10 9.99805c8.66699 12.667 15.5 26.167 20.5 40.5s8.83301 30 11.5 47s4 35.833 4 56.5c-12.667 0 -23.834 4.83301 -33.501 14.5s-14.5 20.834 -14.5 33.501
c0 14 4.5 25.5 13.5 34.5s20.833 13.5 35.5 13.5c16 0 29.5 -5.66699 40.5 -17s16.5 -28.666 16.5 -51.999c0 -32.667 -9.16699 -67.5 -27.5 -104.5s-37.166 -62.5 -56.499 -76.5z" />
    <glyph glyph-name="less" unicode="&#x3c;" horiz-adv-x="1553" 
d="M1319 270l-1094 544v36l1094 544v-54l-1034 -508l1034 -508v-54z" />
    <glyph glyph-name="equal" unicode="=" horiz-adv-x="1728" 
d="M352 988v48h1024v-48h-1024zM352 622v48h1024v-48h-1024z" />
    <glyph glyph-name="greater" unicode="&#x3e;" horiz-adv-x="1553" 
d="M234 270v54l1034 508l-1034 508v54l1094 -544v-36z" />
    <glyph glyph-name="question" unicode="?" horiz-adv-x="1399" 
d="M640 -32c-8.66699 0 -16.667 2.16699 -24 6.5s-13.166 10.166 -17.499 17.499s-6.5 15.333 -6.5 24s2.16699 16.667 6.5 24s10.166 13.166 17.499 17.499s15.333 6.5 24 6.5s16.667 -2.16699 24 -6.5s13.166 -10.166 17.499 -17.499s6.5 -15.333 6.5 -24
s-2.16699 -16.667 -6.5 -24s-10.166 -13.166 -17.499 -17.499s-15.333 -6.5 -24 -6.5zM616 370l0.00195312 373.998c11.333 -1.33301 20.5 -2.33301 27.5 -3s15.5 -1 25.5 -1c86 0 163.167 17.667 231.5 53s122.333 86.5 162 153.5s59.5 147.833 59.5 242.5
c0 91.333 -18.5 169.5 -55.5 234.5s-88 114.667 -153 149s-139.5 51.5 -223.5 51.5c-130 0 -233.833 -39.833 -311.5 -119.5s-116.5 -186.5 -116.5 -320.5h-56c0 108 21.667 198.833 65 272.5s101.166 129.334 173.499 167.001s151.833 56.5 238.5 56.5
c96.667 0 182.167 -21.5 256.5 -64.5s132.666 -101.667 174.999 -176s63.5 -158.5 63.5 -252.5c0 -91.333 -20.667 -174.666 -62 -249.999s-100.333 -135.333 -177 -180s-167.667 -67 -273 -67v-320h-50z" />
    <glyph glyph-name="at" unicode="@" horiz-adv-x="2182" 
d="M1089 -327c-121.333 0 -232.667 21.998 -334 65.998s-189 104.833 -263 182.5s-131.167 167.834 -171.5 270.501s-60.5 212.667 -60.5 330c0 121.333 21.333 234.333 64 339s102.167 196.167 178.5 274.5s165.333 139.5 267 183.5s211.834 66 330.501 66
c100.667 0 199.834 -17 297.501 -51s186.167 -85.333 265.5 -154s142.666 -155.167 189.999 -259.5s71 -226.833 71 -367.5c0 -46.667 -3.33301 -95.334 -10 -146.001s-18.334 -98 -35.001 -142s-39.334 -79.667 -68.001 -107s-65 -41 -109 -41
c-46.667 0 -87.167 14.667 -121.5 44s-57.166 62.666 -68.499 99.999c-40.667 -90 -101.334 -161.5 -182.001 -214.5s-172.667 -79.5 -276 -79.5c-96.667 0 -183.834 23.167 -261.501 69.5s-139.167 110.333 -184.5 192s-68 175.834 -68 282.501s22.667 201 68 283
s106.833 146.333 184.5 193s164.834 70 261.501 70c103.333 0 195.333 -26.5 276 -79.5s141.334 -124.5 182.001 -214.5v262h56v-666c0 -43.333 6.33301 -79.166 19 -107.499s29.334 -49.5 50.001 -63.5s42.334 -21 65.001 -21c36 0 66.833 15.833 92.5 47.5
s45.334 75.5 59.001 131.5s20.5 120.333 20.5 193c0 132.667 -21.333 248.5 -64 347.5s-100.334 181.5 -173.001 247.5s-154.334 115.333 -245.001 148s-184.334 49 -281.001 49c-109.333 0 -211.833 -19.833 -307.5 -59.5s-179.667 -95.5 -252 -167.5s-129 -157 -170 -255
s-61.5 -205.333 -61.5 -322c0 -109.333 18.333 -212.166 55 -308.499s89.167 -181.333 157.5 -255s149.666 -131.5 243.999 -173.5s198.833 -63 313.5 -63c137.333 0 256.666 28.667 357.999 86s182 127.333 242 210l52 -26c-46.667 -66 -103.167 -123.167 -169.5 -171.5
s-140.166 -85.833 -221.499 -112.5s-168.666 -40 -261.999 -40zM1056 18.998c89.333 0 168.833 21 238.5 63s124.334 100 164.001 174s59.5 159 59.5 255c0 96.667 -19.833 182.167 -59.5 256.5s-94.334 132.5 -164.001 174.5s-149.167 63 -238.5 63
c-88.667 0 -167.834 -21 -237.501 -63s-124.5 -100.167 -164.5 -174.5s-60 -159.833 -60 -256.5c0 -96 20 -181 60 -255s94.833 -132 164.5 -174s148.834 -63 237.501 -63z" />
    <glyph glyph-name="A" unicode="A" horiz-adv-x="1652" 
d="M158 0l642 1650h52l642 -1650h-60l-236 610h-744l-236 -610h-60zM473 660h706l-353 922z" />
    <glyph glyph-name="B" unicode="B" horiz-adv-x="1282" 
d="M232 0l0.000976562 1650h280c161.333 0 286.333 -36.333 375 -109s133 -175.667 133 -309c0 -187.333 -84 -313.333 -252 -378c126.667 -16 224.667 -60.833 294 -134.5s104 -170.167 104 -289.5c0 -90 -20.167 -167.167 -60.5 -231.5s-98.333 -113.5 -174 -147.5
s-166.834 -51 -273.501 -51h-426zM288.001 867h223.998c146.667 0 259.334 31.667 338.001 95s118 153.333 118 270c0 118 -39.667 209 -119 273s-191.666 96 -336.999 96h-224v-734zM287.999 52h369.999c144 0 256 33.167 336 99.5s120 159.166 120 278.499
c0 120.667 -40.167 214.834 -120.5 282.501s-192.166 101.5 -335.499 101.5h-370v-762z" />
    <glyph glyph-name="C" unicode="C" horiz-adv-x="1652" 
d="M1001 -32c-123.333 0 -237 21.498 -341 64.498s-194.333 103.333 -271 181s-136 168.334 -178 272.001s-63 216.5 -63 338.5s21 234.833 63 338.5s101.333 194.334 178 272.001s167 138 271 181s217.667 64.5 341 64.5c104.667 0 202 -15.667 292 -47s171 -75 243 -131
l-34 -44c-66 54 -141.5 95.167 -226.5 123.5s-175.167 42.5 -270.5 42.5c-117.333 0 -224.5 -20.5 -321.5 -61.5s-180.833 -97.833 -251.5 -170.5s-125.334 -157.5 -164.001 -254.5s-58 -201.5 -58 -313.5s19.333 -216.5 58 -313.5s93.334 -181.833 164.001 -254.5
s154.5 -129.5 251.5 -170.5s204.167 -61.5 321.5 -61.5c95.333 0 185.5 14.167 270.5 42.5s160.5 69.5 226.5 123.5l34 -44c-72 -56 -153 -99.667 -243 -131s-187.333 -47 -292 -47z" />
    <glyph glyph-name="D" unicode="D" horiz-adv-x="1653" 
d="M293 0l0.000976562 1650h326c117.333 0 226.5 -21 327.5 -63s189.167 -100.5 264.5 -175.5s134.166 -162.5 176.499 -262.5s63.5 -208 63.5 -324c0 -116.667 -21 -225 -63 -325s-100.833 -187.5 -176.5 -262.5s-164 -133.333 -265 -175s-210.167 -62.5 -327.5 -62.5h-326
zM349.001 50l270 -0.00292969c109.333 0 211 19.833 305 59.5s176.5 94.667 247.5 165s126.333 152.5 166 246.5s59.5 195.333 59.5 304s-19.833 209.834 -59.5 303.501s-95 175.834 -166 246.501s-153.667 125.834 -248 165.501s-195.833 59.5 -304.5 59.5h-270v-1550z" />
    <glyph glyph-name="E" unicode="E" horiz-adv-x="1254" 
d="M293 0v1650h784v-50h-728v-748h704v-50h-704v-752h728v-50h-784z" />
    <glyph glyph-name="F" unicode="F" horiz-adv-x="1239" 
d="M293 0v1650h784v-50h-778l50 30v-868l-50 90h732v-50h-732l50 90v-892h-56z" />
    <glyph glyph-name="G" unicode="G" horiz-adv-x="1958" 
d="M1020 -32c-115.333 0 -222.334 22.1709 -321.001 66.5039s-185 105.666 -259 183.999s-131.667 169.166 -173 272.499s-62 214 -62 332c0 107.333 17.833 212 53.5 314s88.334 193.833 158.001 275.5s155.334 146.667 257.001 195s218.5 72.5 350.5 72.5
c92.667 0 177.834 -12.167 255.501 -36.5s147.334 -57.666 209.001 -99.999s114.5 -90.833 158.5 -145.5l-38 -40c-65.333 81.333 -148.833 147 -250.5 197s-214.834 75 -339.501 75c-118.667 0 -224.667 -22.333 -318 -67s-172.666 -105.167 -237.999 -181.5
s-115 -162.5 -149 -258.5s-51 -195.667 -51 -299c0 -111.333 19.167 -215.833 57.5 -313.5s91.666 -183.334 159.999 -257.001s148.166 -131.334 239.499 -173.001s189.666 -62.5 294.999 -62.5c86 0 170.5 14.333 253.5 43s158.167 70.334 225.5 125.001
s121 120.667 161 198s60 164.666 60 261.999v76h-706v52h764v-90c0 -126 -22.667 -234.167 -68 -324.5s-105 -164.333 -179 -222s-155.333 -100.334 -244 -128.001s-176 -41.5 -262 -41.5z" />
    <glyph glyph-name="H" unicode="H" horiz-adv-x="1758" 
d="M293 0v1650h56v-798h1060v798h56v-1650h-56v802h-1060v-802h-56z" />
    <glyph glyph-name="I" unicode="I" horiz-adv-x="642" 
d="M293 0v1650h56v-1650h-56z" />
    <glyph glyph-name="J" unicode="J" horiz-adv-x="1335" 
d="M567 -32c-143.333 0 -266.666 50.666 -369.999 151.999l34 47c92 -98 206 -147 342 -147c137.333 0 243.333 40.833 318 122.5s112 196.834 112 345.501v1162h56v-1186c0 -155.333 -43.333 -276.833 -130 -364.5s-207.334 -131.5 -362.001 -131.5z" />
    <glyph glyph-name="K" unicode="K" horiz-adv-x="1429" 
d="M293 0v1650h56v-794l816 794h78l-854 -830l929 -820h-83l-886 778v-778h-56z" />
    <glyph glyph-name="L" unicode="L" horiz-adv-x="1245" 
d="M293 0v1650h56v-1600h744v-50h-800z" />
    <glyph glyph-name="M" unicode="M" horiz-adv-x="2054" 
d="M189 0l242 1650h60l536 -1436l536 1436h60l242 -1650h-56l-228 1534l-524 -1400h-60l-524 1400l-228 -1534h-56z" />
    <glyph glyph-name="N" unicode="N" horiz-adv-x="1682" 
d="M293 0v1650h56l984 -1548v1548h56v-1650h-56l-984 1546v-1546h-56z" />
    <glyph glyph-name="O" unicode="O" horiz-adv-x="2070" 
d="M1035 -32c-115.333 0 -223.333 22 -324 66s-189 105.167 -265 183.5s-135.5 169.333 -178.5 273s-64.5 214.834 -64.5 333.501c0 119.333 21.5 230.666 64.5 333.999s102.5 194.166 178.5 272.499s164.333 139.5 265 183.5s208.667 66 324 66s223.333 -22 324 -66
s189 -105.167 265 -183.5s135.5 -169.166 178.5 -272.499s64.5 -214.666 64.5 -333.999c0 -118.667 -21.5 -229.834 -64.5 -333.501s-102.5 -194.667 -178.5 -273s-164.333 -139.5 -265 -183.5s-208.667 -66 -324 -66zM1035 22c107.333 0 207.666 20.667 300.999 62
s175.166 98.833 245.499 172.5s125.5 159 165.5 256s60 200.833 60 311.5c0 111.333 -20 215.333 -60 312s-95.167 181.834 -165.5 255.501s-152.166 131.167 -245.499 172.5s-193.666 62 -300.999 62c-106.667 0 -206.834 -20.667 -300.501 -62
s-175.667 -98.833 -246 -172.5s-125.5 -158.834 -165.5 -255.501s-60 -200.667 -60 -312c0 -110.667 20 -214.5 60 -311.5s95.167 -182.333 165.5 -256s152.333 -131.167 246 -172.5s193.834 -62 300.501 -62z" />
    <glyph glyph-name="P" unicode="P" horiz-adv-x="1343" 
d="M293 0v1650h354c108 0 200 -18.5 276 -55.5s134 -89.167 174 -156.5s60 -146 60 -236c0 -89.333 -20 -169.166 -60 -239.499s-98 -125.666 -174 -165.999s-168 -60.5 -276 -60.5h-298v-736h-56zM349 789.998h298c96.667 0 179.167 17.833 247.5 53.5
s120.5 84.5 156.5 146.5s54 132.667 54 212c0 80 -18 150 -54 210s-88.167 106.667 -156.5 140s-150.833 50 -247.5 50h-298v-812z" />
    <glyph glyph-name="Q" unicode="Q" horiz-adv-x="2018" 
d="M1830 -54c-54.667 22 -110.668 48.167 -168.001 78.5s-115.333 64.833 -174 103.5c-142 -106.667 -307.667 -160 -497 -160c-118 0 -227.5 21.333 -328.5 64s-188.833 102.334 -263.5 179.001s-132.834 166.667 -174.501 270s-62.5 215.666 -62.5 336.999
c0 120 21.333 232.167 64 336.5s102 195.833 178 274.5s164.5 140.167 265.5 184.5s209.5 66.5 325.5 66.5s224.333 -22 325 -66s188.834 -105 264.501 -183s134.834 -168.833 177.501 -272.5s64 -215.5 64 -335.5c0 -130 -25.833 -252.833 -77.5 -368.5
s-124.5 -213.834 -218.5 -294.501c58 -35.333 114.167 -66.666 168.5 -93.999s106.833 -50 157.5 -68zM989.999 22c82.667 0 161.833 11.8359 237.5 35.5029s145.834 58.5 210.501 104.5c-60.667 42.667 -119.167 88.167 -175.5 136.5s-109.166 98.833 -158.499 151.5l28 28
c105.333 -105.333 221.333 -200 348 -284c90.667 75.333 160.667 167.666 210 276.999s74 226.333 74 351c0 112 -19.667 216.667 -59 314s-94 182.666 -164 255.999s-151.667 130.666 -245 171.999s-193.666 62 -300.999 62c-108 0 -208.667 -20.667 -302 -62
s-175.333 -98.833 -246 -172.5s-125.834 -159.5 -165.501 -257.5s-59.5 -203.333 -59.5 -316c0 -113.333 19.333 -218.333 58 -315s92.667 -181 162 -253s150.666 -128 243.999 -168s194.666 -60 303.999 -60z" />
    <glyph glyph-name="R" unicode="R" horiz-adv-x="1336" 
d="M293 0l0.000976562 1650h354c105.333 0 196 -18.167 272 -54.5s134.667 -87.833 176 -154.5s62 -146.334 62 -239.001c0 -91.333 -20 -171.333 -60 -240s-96.333 -122.667 -169 -162s-158.334 -60.666 -257.001 -63.999l554 -736h-72l-554 736h-250v-736h-56z
M349.001 790h297.998c92.667 0 173.334 17 242.001 51s121.834 81.833 159.501 143.5s56.5 134.167 56.5 217.5c0 123.333 -41 220.833 -123 292.5s-193.667 107.5 -335 107.5h-298v-812z" />
    <glyph glyph-name="S" unicode="S" horiz-adv-x="1369" 
d="M695 -32c-90 0 -167.164 15.168 -231.497 45.501s-117.5 66.666 -159.5 108.999s-73.833 82.833 -95.5 121.5s-34.834 66 -39.501 82l44 24c6 -18 19.333 -44.833 40 -80.5s50 -72.667 88 -111s86.167 -71 144.5 -98s128.166 -40.5 209.499 -40.5c78 0 150 14.5 216 43.5
s119.167 72.333 159.5 130s60.5 129.167 60.5 214.5c0 70 -13.5 129 -40.5 177s-63.167 88.167 -108.5 120.5s-95.5 59.833 -150.5 82.5s-110.5 43.334 -166.5 62.001c-37.333 12.667 -78.666 28.334 -123.999 47.001s-88.833 43.167 -130.5 73.5s-76 68.833 -103 115.5
s-40.5 104.667 -40.5 174c0 58.667 10.5 113.334 31.5 164.001s50.333 95.167 88 133.5s82.5 68.333 134.5 90s109 32.5 171 32.5c69.333 0 130.5 -12.333 183.5 -37s97.167 -55.667 132.5 -93s61 -74.666 77 -111.999l-46 -22c-13.333 34 -35.833 67.333 -67.5 100
s-71.167 59.5 -118.5 80.5s-101.666 31.5 -162.999 31.5c-80 0 -147.833 -18.333 -203.5 -55s-97.834 -83.334 -126.501 -140.001s-43 -115.334 -43 -176.001c0 -58 11.833 -106.833 35.5 -146.5s54.334 -72.834 92.001 -99.501s78.167 -48.834 121.5 -66.501
s85 -33.167 125 -46.5c57.333 -19.333 114.833 -41.166 172.5 -65.499s110.667 -54.333 159 -90s87.166 -80.334 116.499 -134.001s44 -119.5 44 -197.5c0 -94.667 -22.333 -175 -67 -241s-103.834 -116.167 -177.501 -150.5s-154.834 -51.5 -243.501 -51.5z" />
    <glyph glyph-name="T" unicode="T" horiz-adv-x="1464" 
d="M704 0v1594h-552v56h1160v-56h-552v-1594h-56z" />
    <glyph glyph-name="U" unicode="U" horiz-adv-x="1623" 
d="M812 -32c-180.667 0 -315.832 52.167 -405.499 156.5s-134.5 260.833 -134.5 469.5v1056h56v-1056c0 -186.667 41 -328.334 123 -425.001s202.333 -145 361 -145s279 48.333 361 145s123 238.334 123 425.001v1056h56v-1056c0 -208.667 -44.833 -365.167 -134.5 -469.5
s-224.834 -156.5 -405.501 -156.5z" />
    <glyph glyph-name="V" unicode="V" horiz-adv-x="1742" 
d="M849 0l-692 1650h64l650 -1566l650 1566h64l-692 -1650h-44z" />
    <glyph glyph-name="W" unicode="W" horiz-adv-x="2552" 
d="M662 0l-498 1650h62l468 -1590l558 1590h48l558 -1590l468 1590h62l-498 -1650h-66l-548 1534l-548 -1534h-66z" />
    <glyph glyph-name="X" unicode="X" horiz-adv-x="1642" 
d="M151 0l634 892l-538 758h70l504 -708l504 708h70l-538 -758l634 -892h-72l-598 842l-598 -842h-72z" />
    <glyph glyph-name="Y" unicode="Y" horiz-adv-x="1460" 
d="M702 0v704l-550 946h68l510 -878l510 878h68l-550 -946v-704h-56z" />
    <glyph glyph-name="Z" unicode="Z" horiz-adv-x="1609" 
d="M151 0l1190 1594h-1078v56h1190l-1190 -1594h1134v-56h-1246z" />
    <glyph glyph-name="bracketleft" unicode="[" horiz-adv-x="752" 
d="M282 -520v2240h324v-56h-268v-2128h268v-56h-324z" />
    <glyph glyph-name="backslash" unicode="\" horiz-adv-x="1056" 
d="M920 0l-824 1720h40l824 -1720h-40z" />
    <glyph glyph-name="bracketright" unicode="]" horiz-adv-x="752" 
d="M146 -520v56h268v2128h-268v56h324v-2240h-324z" />
    <glyph glyph-name="asciicircum" unicode="^" horiz-adv-x="1310" 
d="M227 1210l414 470h28l414 -470h-48l-380 436l-380 -436h-48z" />
    <glyph glyph-name="underscore" unicode="_" horiz-adv-x="1496" 
d="M235 -200v40h1026v-40h-1026z" />
    <glyph glyph-name="grave" unicode="`" horiz-adv-x="268" 
d="M161 1185l-161 331l63 41l142 -345z" />
    <glyph glyph-name="a" unicode="a" 
d="M677 -32c-97.333 0 -184.666 23.498 -261.999 70.498s-138.333 111.5 -183 193.5s-67 175.333 -67 280c0 105.333 22.333 198.833 67 280.5s105.667 146 183 193s164.666 70.5 261.999 70.5c103.333 0 196.333 -26.167 279 -78.5s143 -124.166 181 -215.499v262h56v-1024
h-56v262c-42 -91.333 -103.667 -163.166 -185 -215.499s-173 -78.5 -275 -78.5zM681 19.998c90 0 169.667 21.001 239 63.001s123.833 100.167 163.5 174.5s59.5 159.166 59.5 254.499c0 96 -19.667 181 -59 255s-93.833 132 -163.5 174s-149.5 63 -239.5 63
c-89.333 0 -168.833 -21 -238.5 -63s-124.334 -100 -164.001 -174s-59.5 -159 -59.5 -255c0 -95.333 19.833 -180 59.5 -254s94.334 -132.167 164.001 -174.5s149.167 -63.5 238.5 -63.5z" />
    <glyph glyph-name="b" unicode="b" 
d="M751 -32c-102 0 -193.667 26.1689 -275 78.502s-143 124.166 -185 215.499v-262h-56v1720h56v-958c42 91.333 103.667 163.166 185 215.499s173 78.5 275 78.5c97.333 0 184.666 -23.5 261.999 -70.5s138.333 -111.333 183 -193s67 -175.167 67 -280.5
c0 -104.667 -22.333 -198 -67 -280s-105.667 -146.5 -183 -193.5s-164.666 -70.5 -261.999 -70.5zM747 20.002c89.333 0 168.831 21.166 238.498 63.499s124.334 100.5 164.001 174.5s59.5 158.667 59.5 254c0 96 -19.833 181 -59.5 255s-94.167 132 -163.5 174
s-149 63 -239 63s-169.667 -21 -239 -63s-123.833 -100 -163.5 -174s-59.5 -159 -59.5 -255c0 -95.333 19.833 -180.166 59.5 -254.499s94.334 -132.5 164.001 -174.5s149.167 -63 238.5 -63z" />
    <glyph glyph-name="c" unicode="c" horiz-adv-x="1187" 
d="M709 -32c-76.667 0 -148.167 13.333 -214.5 40s-124.333 64.334 -174 113.001s-88.334 106.167 -116.001 172.5s-41.5 139.166 -41.5 218.499c0 80 13.833 153.167 41.5 219.5s66.334 123.833 116.001 172.5s107.667 86.167 174 112.5s137.833 39.5 214.5 39.5
c68 0 132.333 -10.5 193 -31.5s114.334 -50.5 161.001 -88.5l-34 -38c-88.667 70.667 -195.334 106 -320.001 106c-95.333 0 -180.166 -21.167 -254.499 -63.5s-132.833 -100.5 -175.5 -174.5s-64 -158.667 -64 -254c0 -94 21.167 -178.167 63.5 -252.5
s100.666 -132.833 174.999 -175.5s159.833 -64 256.5 -64c60.667 0 118 9 172 27s102.333 44.333 145 79l36 -38c-48 -38 -102 -67.5 -162 -88.5s-124 -31.5 -192 -31.5z" />
    <glyph glyph-name="d" unicode="d" 
d="M677 -32c-97.333 0 -184.666 23.498 -261.999 70.498s-138.333 111.5 -183 193.5s-67 175.333 -67 280c0 105.333 22.333 198.833 67 280.5s105.667 146 183 193s164.666 70.5 261.999 70.5c102 0 193.667 -26.167 275 -78.5s143 -124.166 185 -215.499v960h56v-1722h-56
v262c-42 -91.333 -103.667 -163.166 -185 -215.499s-173 -78.5 -275 -78.5zM681 19.998c90 0 169.667 21.001 239 63.001s123.833 100.167 163.5 174.5s59.5 159.166 59.5 254.499c0 96 -19.667 181 -59 255s-93.833 132 -163.5 174s-149.5 63 -239.5 63
c-89.333 0 -168.833 -21 -238.5 -63s-124.334 -100 -164.001 -174s-59.5 -159 -59.5 -255c0 -95.333 19.833 -180 59.5 -254s94.334 -132.167 164.001 -174.5s149.167 -63.5 238.5 -63.5z" />
    <glyph glyph-name="e" unicode="e" horiz-adv-x="1358" 
d="M708 -32c-106.667 0 -201.167 23.832 -283.5 71.499s-146.666 112 -192.999 193s-69.5 171.833 -69.5 272.5c0 78 13.833 150.5 41.5 217.5s65.667 125.333 114 175s104.166 88.5 167.499 116.5s130.666 42 201.999 42c91.333 0 175.5 -22.333 252.5 -67
s140 -105.667 189 -183s77.167 -165 84.5 -263c0.666992 -6 1 -11.167 1 -15.5v-15.5h-1000c0 -94.667 21.167 -179.167 63.5 -253.5s100.833 -132.666 175.5 -174.999s159.667 -63.5 255 -63.5c90 0 171.833 19.333 245.5 58s131.834 92.667 174.501 162l44 -28
c-48.667 -77.333 -113.5 -137.333 -194.5 -180s-170.833 -64 -269.5 -64zM216 561.999h942c-8 84 -34 159.333 -78 226s-100 119.334 -168 158.001s-142.667 58 -224 58s-156.333 -19.333 -225 -58s-125 -91.334 -169 -158.001s-70 -142 -78 -226z" />
    <glyph glyph-name="f" unicode="f" horiz-adv-x="670" 
d="M242 0l0.00195312 982.001h-84v42h84v430c0 66 8.66699 120.833 26 164.5s43.166 76.5 77.499 98.5s77.166 33 128.499 33c31.333 0 59.333 -3.83301 84 -11.5s46.667 -19.167 66 -34.5l-20 -42c-30.667 26.667 -71 40 -121 40c-39.333 0 -72.833 -9.33301 -100.5 -28
s-48.667 -45.834 -63 -81.501s-21.5 -78.5 -21.5 -128.5v-440h272v-42h-272v-982h-56z" />
    <glyph glyph-name="g" unicode="g" horiz-adv-x="1429" 
d="M662 -550c-124 0 -229.335 25.498 -316.002 76.498s-152 124.833 -196 221.5l52 20c34 -82.667 92.333 -148.667 175 -198s178.334 -74 287.001 -74c89.333 0 169.833 17.667 241.5 53s128.334 87 170.001 155s62.5 150.667 62.5 248v310
c-42 -91.333 -103.667 -163.166 -185 -215.499s-173 -78.5 -275 -78.5c-97.333 0 -184.666 23.5 -261.999 70.5s-138.333 111.5 -183 193.5s-67 175.333 -67 280c0 105.333 22.333 198.833 67 280.5s105.667 146 183 193s164.666 70.5 261.999 70.5
c102 0 193.667 -26.167 275 -78.5s143 -124.166 185 -215.499v262h56v-1052c0 -120 -22.833 -218.5 -68.5 -295.5s-108.5 -134 -188.5 -171s-171.667 -55.5 -275 -55.5zM681.998 19.998c90 0 169.667 21.001 239 63.001s123.833 100.167 163.5 174.5
s59.5 159.166 59.5 254.499c0 96 -19.667 181 -59 255s-93.833 132 -163.5 174s-149.5 63 -239.5 63c-89.333 0 -168.833 -21 -238.5 -63s-124.334 -100 -164.001 -174s-59.5 -159 -59.5 -255c0 -95.333 19.833 -180 59.5 -254s94.334 -132.167 164.001 -174.5
s149.167 -63.5 238.5 -63.5z" />
    <glyph glyph-name="h" unicode="h" horiz-adv-x="1228" 
d="M235 0l0.000976562 1722h56v-852c21.333 50 61.166 93.5 119.499 130.5s133.5 55.5 225.5 55.5c80 0 147.833 -16 203.5 -48s98.167 -79.333 127.5 -142s44 -140 44 -232v-634h-56v627c0 123.333 -28 217.333 -84 282s-135.333 97 -238 97
c-72 0 -133.5 -14.5 -184.5 -43.5s-90 -66.667 -117 -113s-40.5 -95.5 -40.5 -147.5v-702h-56z" />
    <glyph glyph-name="i" unicode="i" horiz-adv-x="526" 
d="M234 0v1024h56v-1024h-56zM262 1224c-8.66699 0 -16.667 2.16699 -24 6.5s-13.166 10.166 -17.499 17.499s-6.5 15.333 -6.5 24s2.16699 16.5 6.5 23.5s10.166 12.667 17.499 17s15.333 6.5 24 6.5s16.5 -2.16699 23.5 -6.5s12.667 -10 17 -17s6.5 -14.833 6.5 -23.5
s-2.16699 -16.667 -6.5 -24s-10 -13.166 -17 -17.499s-14.833 -6.5 -23.5 -6.5z" />
    <glyph glyph-name="j" unicode="j" horiz-adv-x="527" 
d="M57 -550c-30.667 0 -58.333 3.83301 -83 11.5s-46 19.167 -64 34.5l16 44c30 -28 72 -42 126 -42c122.667 0 184 79.333 184 238v1288h56v-1278c0 -98.667 -19.5 -172.667 -58.5 -222s-97.833 -74 -176.5 -74zM264.001 1226c-8.66699 0 -16.667 2.16699 -24 6.5
s-13.166 10.166 -17.499 17.499s-6.5 15.333 -6.5 24s2.16699 16.667 6.5 24s10.166 13.166 17.499 17.499s15.333 6.5 24 6.5s16.667 -2.16699 24 -6.5s13.166 -10.166 17.499 -17.499s6.5 -15.333 6.5 -24s-2.16699 -16.667 -6.5 -24s-10.166 -13.166 -17.499 -17.499
s-15.333 -6.5 -24 -6.5z" />
    <glyph glyph-name="k" unicode="k" horiz-adv-x="994" 
d="M235 0v1720h56v-1140l426 444h74l-447 -470l473 -554h-72l-454 531v-531h-56z" />
    <glyph glyph-name="l" unicode="l" horiz-adv-x="526" 
d="M235 0v1720h56v-1720h-56z" />
    <glyph glyph-name="m" unicode="m" horiz-adv-x="1952" 
d="M235 0l-0.000976562 1024h56v-154c34 59.333 81.333 105.166 142 137.499s129.334 48.5 206.001 48.5c87.333 0 161.833 -20.167 223.5 -60.5s103.5 -96.166 125.5 -167.499c33.333 66.667 81.333 121.334 144 164.001s139.334 64 230.001 64c72 0 136 -14.667 192 -44
s100.167 -72.5 132.5 -129.5s48.5 -127.833 48.5 -212.5v-670h-56v652c0 108.667 -28.5 194.834 -85.5 258.501s-132.167 95.5 -225.5 95.5c-66 0 -125.833 -14.833 -179.5 -44.5s-96.334 -66.834 -128.001 -111.501s-47.5 -90 -47.5 -136v-714h-56v672
c0 102.667 -28.167 184 -84.5 244s-130.166 90 -221.499 90c-64.667 0 -124.334 -14 -179.001 -42s-98.5 -62.833 -131.5 -104.5s-49.5 -83.5 -49.5 -125.5v-734h-56z" />
    <glyph glyph-name="n" unicode="n" horiz-adv-x="1228" 
d="M235 0l0.000976562 1024h56v-154c21.333 50 61.166 93.5 119.499 130.5s133.5 55.5 225.5 55.5c80 0 147.833 -16 203.5 -48s98.167 -79.333 127.5 -142s44 -140 44 -232v-634h-56v627c0 123.333 -28 217 -84 281s-135.333 96 -238 96c-72 0 -133.5 -14.333 -184.5 -43
s-90 -66 -117 -112s-40.5 -95 -40.5 -147v-702h-56z" />
    <glyph glyph-name="o" unicode="o" horiz-adv-x="1422" 
d="M711 -32c-103.333 0 -196.333 23 -279 69s-148.167 109.833 -196.5 191.5s-72.5 176.167 -72.5 283.5s24.167 201.833 72.5 283.5s113.833 145.5 196.5 191.5s175.667 69 279 69s196.333 -23 279 -69s148.167 -109.833 196.5 -191.5s72.5 -176.167 72.5 -283.5
s-24.167 -201.833 -72.5 -283.5s-113.833 -145.5 -196.5 -191.5s-175.667 -69 -279 -69zM711 24c95.333 0 180 21 254 63s132.167 99.667 174.5 173s63.5 157.333 63.5 252s-21.167 178.667 -63.5 252s-100.5 131 -174.5 173s-158.667 63 -254 63s-180 -21 -254 -63
s-132.167 -99.667 -174.5 -173s-63.5 -157.333 -63.5 -252s21.167 -178.667 63.5 -252s100.5 -131 174.5 -173s158.667 -63 254 -63z" />
    <glyph glyph-name="p" unicode="p" 
d="M235 -520l0.00195312 1544h56v-260c41.333 91.333 102.666 162.833 183.999 214.5s172.666 77.5 273.999 77.5c98.667 0 186.667 -23.667 264 -71s138.333 -111.833 183 -193.5s67 -174.834 67 -279.501c0 -104 -22.333 -197 -67 -279s-105.667 -146.667 -183 -194
s-165.333 -71 -264 -71c-100.667 0 -191.667 26.167 -273 78.5s-143 124.166 -185 215.499v-782h-56zM747.002 20.002c89.333 0 168.831 21.166 238.498 63.499s124.334 100.5 164.001 174.5s59.5 158.667 59.5 254c0 96 -19.833 181 -59.5 255s-94.167 132 -163.5 174
s-149 63 -239 63s-169.667 -21 -239 -63s-123.833 -100 -163.5 -174s-59.5 -159 -59.5 -255c0 -95.333 19.833 -180.166 59.5 -254.499s94.334 -132.5 164.001 -174.5s149.167 -63 238.5 -63z" />
    <glyph glyph-name="q" unicode="q" 
d="M1137 -520v781.997c-42 -91.333 -103.5 -163.166 -184.5 -215.499s-172.167 -78.5 -273.5 -78.5c-98.667 0 -186.667 23.667 -264 71s-138.333 112 -183 194s-67 175 -67 279c0 104.667 22.333 197.834 67 279.501s105.667 146.167 183 193.5s165.333 71 264 71
c101.333 0 192.5 -26.167 273.5 -78.5s142.5 -124.166 184.5 -215.499v262h56v-1544h-56zM681 19.9971c90 0 169.667 21.001 239 63.001s123.833 100.167 163.5 174.5s59.5 159.166 59.5 254.499c0 96 -19.667 181 -59 255s-93.833 132 -163.5 174s-149.5 63 -239.5 63
c-89.333 0 -168.833 -21 -238.5 -63s-124.334 -100 -164.001 -174s-59.5 -159 -59.5 -255c0 -95.333 19.833 -180 59.5 -254s94.334 -132.167 164.001 -174.5s149.167 -63.5 238.5 -63.5z" />
    <glyph glyph-name="r" unicode="r" horiz-adv-x="832" 
d="M235 0l-0.00292969 1024h56v-154c28.667 62 67.834 108.5 117.501 139.5s109.834 46.5 180.501 46.5c27.333 0 54.333 -2.16699 81 -6.5s50.334 -10.166 71.001 -17.499l-22 -48c-18.667 7.33301 -39.5 12.833 -62.5 16.5s-45.5 5.5 -67.5 5.5
c-50.667 0 -98.667 -13 -144 -39s-82.333 -59.667 -111 -101s-43 -85.333 -43 -132v-734h-56z" />
    <glyph glyph-name="s" unicode="s" horiz-adv-x="973" 
d="M486 -32c-83.333 0 -156.331 24.168 -218.998 72.501s-109 116.833 -139 205.5l48 16c26 -76.667 66.167 -136.5 120.5 -179.5s117.166 -64.5 188.499 -64.5c51.333 0 99 11.167 143 33.5s79.333 54 106 95s40 89.5 40 145.5c0 49.333 -11.167 87.833 -33.5 115.5
s-54.5 51 -96.5 70s-92.667 39.833 -152 62.5c-44.667 17.333 -88.334 36.833 -131.001 58.5s-77.834 49.167 -105.501 82.5s-41.5 76 -41.5 128c0 47.333 12.167 89.5 36.5 126.5s57.5 66.333 99.5 88s89.333 32.5 142 32.5c60 0 113.833 -14.833 161.5 -44.5
s85.167 -71.5 112.5 -125.5l-46 -22c-46.667 94.667 -123 142 -229 142c-66 0 -120 -18.333 -162 -55s-63 -84.334 -63 -143.001c0 -40.667 10.5 -73.667 31.5 -99s49.833 -46.666 86.5 -63.999s78.334 -35 125.001 -53c64.667 -24.667 120.5 -48.334 167.5 -71.001
s83.333 -51.167 109 -85.5s38.5 -81.5 38.5 -141.5c0 -65.333 -15 -122.5 -45 -171.5s-70.5 -87 -121.5 -114s-108.167 -40.5 -171.5 -40.5z" />
    <glyph glyph-name="t" unicode="t" horiz-adv-x="681" 
d="M434 -32c-62.667 0 -110.999 22.167 -144.999 66.5s-51 106.833 -51 187.5v760h-86v42h86v382h56v-382h272v-42h-272v-760c0 -66.667 12.667 -117.667 38 -153s61.666 -53 108.999 -53c44 0 81 11.333 111 34l14 -44c-15.333 -11.333 -34.833 -20.5 -58.5 -27.5
s-48.167 -10.5 -73.5 -10.5z" />
    <glyph glyph-name="u" unicode="u" horiz-adv-x="1198" 
d="M599 -32c-138 0 -235.835 33.833 -293.502 101.5s-86.5 182.5 -86.5 344.5v610h56v-610c0 -141.333 24.833 -242.333 74.5 -303s132.834 -91 249.501 -91s199.834 30.333 249.501 91s74.5 161.667 74.5 303v610h56v-610c0 -162 -28.833 -276.833 -86.5 -344.5
s-155.5 -101.5 -293.5 -101.5z" />
    <glyph glyph-name="v" unicode="v" horiz-adv-x="1198" 
d="M581 0l-474 1024h64l428 -926l428 926h64l-474 -1024h-36z" />
    <glyph glyph-name="w" unicode="w" horiz-adv-x="1946" 
d="M581 0l-474 1024h64l428 -926l356 926h36l356 -926l428 926h64l-474 -1024h-36l-356 912l-356 -912h-36z" />
    <glyph glyph-name="x" unicode="x" horiz-adv-x="1148" 
d="M102 0l430 524l-374 500h62l354 -462l354 462h62l-374 -500l430 -524h-64l-408 498l-408 -498h-64z" />
    <glyph glyph-name="y" unicode="y" horiz-adv-x="1216" 
d="M387 -520l208 488l-488 1056h62l456 -988l420 988h62l-660 -1544h-60z" />
    <glyph glyph-name="z" unicode="z" horiz-adv-x="1204" 
d="M102 0l864 968h-790v56h916l-866 -968h850v-56h-974z" />
    <glyph glyph-name="braceleft" unicode="{" horiz-adv-x="766" 
d="M590 -520c-64 0 -116.667 10.8291 -158 32.4961s-73.666 50.334 -96.999 86.001s-39.666 74.834 -48.999 117.501s-14 84.667 -14 126v648c0 31.333 -5.16699 53.5 -15.5 66.5s-27.166 19.5 -50.499 19.5v48c23.333 0 40.166 6.66699 50.499 20s15.5 35.333 15.5 66v648
c0 41.333 4.66699 83.333 14 126s25.666 81.834 48.999 117.501s55.666 64.334 96.999 86.001s94 32.5 158 32.5h30v-56h-30c-90.667 0 -157 -26.5 -199 -79.5s-63 -128.5 -63 -226.5v-682c0 -20 -2.16699 -36.167 -6.5 -48.5s-11.5 -21.5 -21.5 -27.5
c10 -6 17.167 -15.167 21.5 -27.5s6.5 -28.5 6.5 -48.5v-682c0 -98 21 -173.5 63 -226.5s108.333 -79.5 199 -79.5h30v-56h-30z" />
    <glyph glyph-name="bar" unicode="|" horiz-adv-x="760" 
d="M352 0v1720h56v-1720h-56z" />
    <glyph glyph-name="braceright" unicode="}" horiz-adv-x="766" 
d="M146 -520v56.0039h30c91.333 0 157.833 26.5 199.5 79.5s62.5 128.5 62.5 226.5v682c0 20 2.16699 36.167 6.5 48.5s11.5 21.5 21.5 27.5c-10 6 -17.167 15.167 -21.5 27.5s-6.5 28.5 -6.5 48.5v682c0 98 -20.833 173.5 -62.5 226.5s-108.167 79.5 -199.5 79.5h-30v56h30
c64 0 116.667 -10.833 158 -32.5s73.666 -50.334 96.999 -86.001s39.666 -74.834 48.999 -117.501s14 -84.667 14 -126v-648c0 -30.667 5.33301 -52.667 16 -66s27.334 -20 50.001 -20v-48c-22.667 0 -39.334 -6.5 -50.001 -19.5s-16 -35.167 -16 -66.5v-648
c0 -41.333 -4.66699 -83.333 -14 -126s-25.666 -81.834 -48.999 -117.501s-55.666 -64.334 -96.999 -86.001s-94 -32.5 -158 -32.5h-30z" />
    <glyph glyph-name="asciitilde" unicode="~" horiz-adv-x="1540" 
d="M972 726c-44.667 0 -82.8359 8.00098 -114.503 24.001s-61.167 34.667 -88.5 56s-56.333 40 -87 56s-67.334 24 -110.001 24c-57.333 0 -106 -15.5 -146 -46.5s-72 -67.5 -96 -109.5l-38 34c18 30.667 40.333 59 67 85s57.334 47 92.001 63s73.334 24 116.001 24
c44.667 0 82.834 -8 114.501 -24s61.167 -34.667 88.5 -56s56.333 -40 87 -56s67.334 -24 110.001 -24c50.667 0 96.667 13.5 138 40.5s76.333 65.5 105 115.5l38 -34c-21.333 -36 -46.333 -66.833 -75 -92.5s-60 -45.334 -94 -59.001s-69.667 -20.5 -107 -20.5z" />
    <glyph glyph-name="uni00A0" unicode="&#xa0;" horiz-adv-x="500" 
 />
    <glyph glyph-name="exclamdown" unicode="&#xa1;" horiz-adv-x="710" 
d="M329 -522v1384h52v-1384h-52zM355 1134c-8.66699 0 -16.667 2.16699 -24 6.5s-13.166 10.166 -17.499 17.499s-6.5 15.333 -6.5 24s2.16699 16.667 6.5 24s10.166 13.166 17.499 17.499s15.333 6.5 24 6.5s16.667 -2.16699 24 -6.5s13.166 -10.166 17.499 -17.499
s6.5 -15.333 6.5 -24s-2.16699 -16.667 -6.5 -24s-10.166 -13.166 -17.499 -17.499s-15.333 -6.5 -24 -6.5z" />
    <glyph glyph-name="cent" unicode="&#xa2;" horiz-adv-x="1433" 
d="M796 -258l0.00585938 225.999c-100.667 4 -190.167 30.167 -268.5 78.5s-139.833 112.833 -184.5 193.5s-67 171.334 -67 272.001c0 95.333 20 181.666 60 258.999s95.833 140.833 167.5 190.5s154.5 79.834 248.5 90.501v220h44v-216
c81.333 0 152.166 -9.66699 212.499 -29s116.166 -50.333 167.499 -93l-20 -40c-44.667 40 -95.334 70.333 -152.001 91s-117.334 31 -182.001 31c-96 0 -181.333 -21.667 -256 -65s-133.334 -103 -176.001 -179s-64 -163 -64 -261c0 -96.667 21 -182.667 63 -258
s100.333 -134.666 175 -177.999s160.667 -65 258 -65c65.333 0 126.666 10.167 183.999 30.5s107.333 49.5 150 87.5l20 -40c-44.667 -36.667 -95.5 -65.334 -152.5 -86.001s-117.5 -32 -181.5 -34v-226h-46z" />
    <glyph glyph-name="sterling" unicode="&#xa3;" horiz-adv-x="1784" 
d="M1173 -30c-57.333 0 -109.001 9.33789 -155.001 28.0049s-89.667 40.334 -131 65.001s-83.166 46.334 -125.499 65.001s-88.833 28 -139.5 28c-39.333 0 -77.666 -6.66699 -114.999 -20s-69 -31.666 -95 -54.999s-41.667 -50.333 -47 -81h-53
c4 31.333 18.667 61.666 44 90.999s58.5 54.166 99.5 74.499s87.167 32.5 138.5 36.5c13.333 32.667 24.666 70.167 33.999 112.5s14 84.833 14 127.5c0 44.667 -5.66699 82.5 -17 113.5s-25 60.5 -41 88.5h-338v46h308c-41.333 59.333 -79.666 124 -114.999 194
s-53 155.333 -53 256c0 108.667 23 203.334 69 284.001s109 143.5 189 188.5s171 67.5 273 67.5c85.333 0 165.333 -16.333 240 -49s138.5 -80.834 191.5 -144.501s89.5 -141.834 109.5 -234.501l-50 -10c-11.333 61.333 -36.333 122.166 -75 182.499
s-92 110.666 -160 150.999s-152.333 60.5 -253 60.5c-98.667 0 -184 -21 -256 -63s-127.667 -100.333 -167 -175s-59 -161.334 -59 -260.001c0 -70.667 9 -132.334 27 -185.001s40 -100 66 -142l75 -121h554v-46h-528c17.333 -30.667 31 -61.334 41 -92.001s15 -67 15 -109
c0 -34 -3.83301 -71.667 -11.5 -113s-20.834 -83.333 -39.501 -126c48 0 93.667 -9.16699 137 -27.5s86.333 -39.5 129 -63.5s86.5 -45.167 131.5 -63.5s93.5 -27.5 145.5 -27.5c62 0 114.5 14 157.5 42s76.5 63.5 100.5 106.5s38.667 87.5 44 133.5l52 -26
c-9.33301 -56 -30 -107.333 -62 -154s-73.333 -84 -124 -112s-109 -42 -175 -42z" />
    <glyph glyph-name="currency" unicode="&#xa4;" horiz-adv-x="1220" 
d="M174 197l-30 30l133 133c-36.667 40 -65.334 85.833 -86.001 137.5s-31 106.834 -31 165.501s10.333 113.834 31 165.501s49.334 97.5 86.001 137.5l-133 133l30 30l133 -133c40 36.667 85.833 65.334 137.5 86.001s106.834 31 165.501 31s113.834 -10.333 165.501 -31
s97.5 -49.334 137.5 -86.001l133 133l30 -30l-133 -133c36.667 -40 65.334 -85.833 86.001 -137.5s31 -106.834 31 -165.501s-10.333 -113.834 -31 -165.501s-49.334 -97.5 -86.001 -137.5l133 -133l-30 -30l-133 133c-40 -36.667 -85.833 -65.334 -137.5 -86.001
s-106.834 -31 -165.501 -31s-113.834 10.333 -165.501 31s-97.5 49.334 -137.5 86.001zM610 255c75.333 0 143.833 18.333 205.5 55s110.834 85.834 147.501 147.501s55 130.167 55 205.5s-18.333 143.833 -55 205.5s-85.834 110.834 -147.501 147.501
s-130.167 55 -205.5 55s-143.833 -18.333 -205.5 -55s-110.834 -85.834 -147.501 -147.501s-55 -130.167 -55 -205.5s18.333 -143.833 55 -205.5s85.834 -110.834 147.501 -147.501s130.167 -55 205.5 -55z" />
    <glyph glyph-name="yen" unicode="&#xa5;" horiz-adv-x="1622" 
d="M782 0v360h-382v46h382v290h-382v46h362l-528 908h68l508 -878l510 878h68l-528 -908h362v-46h-382v-290h382v-46h-382v-360h-58z" />
    <glyph glyph-name="brokenbar" unicode="&#xa6;" horiz-adv-x="760" 
d="M352 1056v664h56v-664h-56zM352 0v664h56v-664h-56z" />
    <glyph glyph-name="section" unicode="&#xa7;" horiz-adv-x="1492" 
d="M766 -550c-68.667 0 -133.337 10.833 -194.004 32.5s-114.834 50.334 -162.501 86.001s-87.5 74.5 -119.5 116.5s-54 83 -66 123l50 23c24 -64 61 -120.333 111 -169s108 -86.667 174 -114s135 -41 207 -41c77.333 0 147.166 15.833 209.499 47.5
s111.833 76.667 148.5 135s55 127.5 55 207.5c0 82 -19.667 148.333 -59 199s-93.666 93.334 -162.999 128.001s-149.666 69 -240.999 103c-42.667 16 -86.834 34 -132.501 54s-88 43.5 -127 70.5s-70.5 59 -94.5 96s-36 80.5 -36 130.5c0 58.667 16.5 113.167 49.5 163.5
s74.5 84.833 124.5 103.5c-60 39.333 -104.667 85 -134 137s-44 111.667 -44 179c0 81.333 18.833 153.5 56.5 216.5s88.5 112.5 152.5 148.5s135.333 54 214 54c46 0 89.833 -6.16699 131.5 -18.5s79.834 -29.666 114.501 -51.999s64.834 -48.333 90.501 -78
s45.834 -61.5 60.501 -95.5l-52 -23c-23.333 61.333 -67.5 111.666 -132.5 150.999s-136.167 59 -213.5 59c-69.333 0 -131.666 -16.333 -186.999 -49s-98.833 -76.334 -130.5 -131.001s-47.5 -115.667 -47.5 -183c0 -55.333 10.5 -102 31.5 -140s49.333 -70.167 85 -96.5
s75.5 -49 119.5 -68s89 -37.167 135 -54.5l154 -60c55.333 -22 107.833 -48 157.5 -78s90.334 -65.667 122.001 -107s47.5 -90 47.5 -146c0 -56.667 -16.833 -109.834 -50.5 -159.501s-77.167 -85.834 -130.5 -108.501c64 -44.667 111.333 -95.667 142 -153
s46 -121.666 46 -192.999c0 -88 -21 -165.5 -63 -232.5s-98.5 -119.333 -169.5 -157s-150.833 -56.5 -239.5 -56.5zM997.997 268c32 11.333 60.335 29.1689 85.002 53.502s44 52.833 58 85.5s21 67 21 103c0 46 -13.667 87.5 -41 124.5s-73.333 72.667 -138 107
s-152.667 70.5 -264 108.5c-32.667 11.333 -59.334 21.5 -80.001 30.5s-49.667 22.5 -87 40.5c-26.667 -8.66699 -52 -24.834 -76 -48.501s-43.333 -52.667 -58 -87s-22 -71.833 -22 -112.5c0 -50.667 13.167 -92.667 39.5 -126s65.5 -62.833 117.5 -88.5
s116.333 -52.167 193 -79.5c47.333 -16.667 83.166 -29.834 107.499 -39.501s46.333 -19.5 66 -29.5z" />
    <glyph glyph-name="dieresis" unicode="&#xa8;" horiz-adv-x="568" 
d="M520 1350c-12.667 0 -23.834 4.83301 -33.501 14.5s-14.5 20.834 -14.5 33.501c0 13.333 4.83301 24.666 14.5 33.999s20.834 14 33.501 14c13.333 0 24.666 -4.66699 33.999 -14s14 -20.666 14 -33.999c0 -12.667 -4.66699 -23.834 -14 -33.501
s-20.666 -14.5 -33.999 -14.5zM48 1350c-12.667 0 -23.834 4.83301 -33.501 14.5s-14.5 20.834 -14.5 33.501c0 13.333 4.83301 24.666 14.5 33.999s20.834 14 33.501 14c13.333 0 24.666 -4.66699 33.999 -14s14 -20.666 14 -33.999
c0 -12.667 -4.66699 -23.834 -14 -33.501s-20.666 -14.5 -33.999 -14.5z" />
    <glyph glyph-name="copyright" unicode="&#xa9;" horiz-adv-x="2185" 
d="M1091 -32c-118 0 -227.5 21.4971 -328.5 64.4971s-189.167 103 -264.5 180s-134 167.333 -176 271s-63 215.834 -63 336.501c0 120 21.333 232 64 336s102 195.333 178 274s164.333 140 265 184s209 66 325 66c117.333 0 226.5 -22 327.5 -66
s189.667 -105.167 266 -183.5s135.833 -169.5 178.5 -273.5s64 -216.333 64 -337c0 -120 -21.167 -231.667 -63.5 -335s-101.5 -193.666 -177.5 -270.999s-164.667 -137.666 -266 -180.999s-211 -65 -329 -65zM1091 21.9971c110 0 212.002 20.1689 306.002 60.502
s176.167 96.666 246.5 168.999s125.166 157 164.499 254s59 201.833 59 314.5s-19.833 217.834 -59.5 315.501s-94.834 183.167 -165.501 256.5s-153 130.666 -247 171.999s-195.333 62 -304 62c-107.333 0 -207.666 -20.667 -300.999 -62s-175.333 -98.833 -246 -172.5
s-125.834 -159.334 -165.501 -257.001s-59.5 -202.5 -59.5 -314.5c0 -114 19.333 -219.333 58 -316s93 -181.167 163 -253.5s151.833 -128.5 245.5 -168.5s195.5 -60 305.5 -60zM1106 286.999c-102 0 -193.5 23.334 -274.5 70.001s-145 110.5 -192 191.5
s-70.5 172.167 -70.5 273.5c0 102 23.333 193.167 70 273.5s110.667 143.833 192 190.5s173.333 70 276 70c65.333 0 127.666 -10 186.999 -30s112.333 -48.667 159 -86l-35 -45c-86.667 68 -189 102 -307 102c-90 0 -170.833 -20.667 -242.5 -62
s-128.167 -97.833 -169.5 -169.5s-62 -152.834 -62 -243.501c0 -90 20.667 -170.833 62 -242.5s98 -128.167 170 -169.5s153.333 -62 244 -62c57.333 0 112.333 8.66699 165 26s99.334 42.333 140.001 75l35 -46c-102 -77.333 -217.667 -116 -347 -116z" />
    <glyph glyph-name="ordfeminine" unicode="&#xaa;" horiz-adv-x="1046" 
d="M496 1008c-60 0 -114 14.332 -162 42.999s-86 68.167 -114 118.5s-42 108.5 -42 174.5c0 65.333 14 123.333 42 174s66 90.334 114 119.001s102 43 162 43c63.333 0 120 -16.333 170 -49s87.333 -77 112 -133v162h34v-632h-34v162c-24.667 -56 -62 -100.333 -112 -133
s-106.667 -49 -170 -49zM496 1038c54.667 0 103.168 13.334 145.501 40.001s75.666 63 99.999 109s36.5 98.333 36.5 157c0 89.333 -26.5 162.666 -79.5 219.999s-120.5 86 -202.5 86c-54.667 0 -103.334 -13.167 -146.001 -39.5s-76.334 -62.5 -101.001 -108.5
s-37 -98.667 -37 -158c0 -58.667 12.333 -111 37 -157s58.334 -82.333 101.001 -109s91.334 -40 146.001 -40z" />
    <glyph glyph-name="guillemotleft" unicode="&#xab;" horiz-adv-x="1048" 
d="M548 56l-390 500l390 500l46 -36l-362 -464l362 -464zM833 56l-390 500l390 500l46 -36l-362 -464l362 -464z" />
    <glyph glyph-name="logicalnot" unicode="&#xac;" horiz-adv-x="1482" 
d="M1205 316v488h-976v48h1024v-536h-48z" />
    <glyph glyph-name="uni00AD" unicode="&#xad;" horiz-adv-x="1114" 
d="M235 556v48h644v-48h-644z" />
    <glyph glyph-name="registered" unicode="&#xae;" horiz-adv-x="1454" 
d="M727 770c-84.667 0 -162 21 -232 63s-125.833 97.833 -167.5 167.5s-62.5 146.5 -62.5 230.5c0 84.667 20.833 162 62.5 232s97.5 126 167.5 168s147.333 63 232 63s161.834 -20.833 231.501 -62.5s125.334 -97.5 167.001 -167.5s62.5 -147.667 62.5 -233
s-20.833 -162.833 -62.5 -232.5s-97.334 -125.167 -167.001 -166.5s-146.834 -62 -231.501 -62zM726 815c76.667 0 146.5 18.833 209.5 56.5s113.5 88 151.5 151s57 132.5 57 208.5c0 76.667 -18.833 146.5 -56.5 209.5s-88.167 113.5 -151.5 151.5s-133 57 -209 57
c-76.667 0 -146.5 -19 -209.5 -57s-113.333 -88.5 -151 -151.5s-56.5 -132.833 -56.5 -209.5s18.833 -146.5 56.5 -209.5s88 -113.167 151 -150.5s132.5 -56 208.5 -56zM591 923v616h98c58.667 0 105 -15 139 -45s51 -70.667 51 -122c0 -50 -16 -91 -48 -123
s-74.667 -49 -128 -51l212 -275h-53l-207 274h-23v-274h-41zM632 1230h49c46.667 0 84.334 13 113.001 39s43 60.333 43 103c0 42 -14.333 74.5 -43 97.5s-66.334 34.5 -113.001 34.5h-49v-274z" />
    <glyph glyph-name="macron" unicode="&#xaf;" horiz-adv-x="816" 
d="M0 1366v46h816v-46h-816z" />
    <glyph glyph-name="degree" unicode="&#xb0;" horiz-adv-x="1036" 
d="M517 1338c-61.333 0 -110.332 19.668 -146.999 59.001s-55 88 -55 146c0 61.333 19.667 111.166 59 149.499s87 57.5 143 57.5c57.333 0 105.666 -19 144.999 -57s59 -87.667 59 -149c0 -60 -19 -109.333 -57 -148s-87 -58 -147 -58zM518.001 1386
c46.667 0 84.166 14.666 112.499 43.999s42.5 67 42.5 113c0 48.667 -15.167 87.334 -45.5 116.001s-67.166 43 -110.499 43c-44 0 -80.667 -14.833 -110 -44.5s-44 -68.167 -44 -115.5c0 -46 14.167 -83.5 42.5 -112.5s65.833 -43.5 112.5 -43.5z" />
    <glyph glyph-name="plusminus" unicode="&#xb1;" horiz-adv-x="1508" 
d="M730 316v488h-488v48h488v488h48v-488h488v-48h-488v-488h-48zM242 0v48h1024v-48h-1024z" />
    <glyph glyph-name="uni00B2" unicode="&#xb2;" horiz-adv-x="661" 
d="M97 1026v28.001c94.667 66.667 170.167 124.667 226.5 174s97 94.166 122 134.499s37.5 79.166 37.5 116.499c0 47.333 -15.667 86 -47 116s-69.666 45 -114.999 45c-48.667 0 -89.834 -17 -123.501 -51s-51.167 -74.667 -52.5 -122l-40 10
c2 57.333 23.667 105.5 65 144.5s91.333 58.5 150 58.5c56.667 0 105.667 -18.667 147 -56s62 -87.666 62 -150.999c0 -37.333 -10.167 -74 -30.5 -110s-56 -77.333 -107 -124s-123.167 -105 -216.5 -175h366v-38h-444z" />
    <glyph glyph-name="uni00B3" unicode="&#xb3;" horiz-adv-x="637" 
d="M301 1026c-60.667 0 -107.999 16.168 -141.999 48.501s-52 70.833 -54 115.5l41 11c0 -38.667 14 -70.667 42 -96s65.333 -38 112 -38c47.333 0 83.333 12.667 108 38s37 56 37 92c0 41.333 -14.333 76.166 -43 104.499s-61.667 42.5 -99 42.5
c-10 0 -17.667 -0.666992 -23 -2v34h20c39.333 0 72.333 13.333 99 40s40 58.667 40 96s-12.667 68.333 -38 93s-55.666 37 -90.999 37c-36 0 -66.833 -12.167 -92.5 -36.5s-39.167 -55.166 -40.5 -92.499l-37 9c1.33301 44.667 18.166 82.167 50.499 112.5
s71.833 45.5 118.5 45.5c49.333 0 90.333 -16.667 123 -50s49 -72.333 49 -117c0 -34 -9.83301 -65 -29.5 -93s-45.167 -47.667 -76.5 -59c35.333 -10 63.166 -30 83.499 -60s30.5 -63.667 30.5 -101c0 -48.667 -16.167 -89.834 -48.5 -123.501s-78.833 -50.5 -139.5 -50.5z
" />
    <glyph glyph-name="acute" unicode="&#xb4;" horiz-adv-x="268" 
d="M44 1185l-44 27l142 345l63 -41z" />
    <glyph glyph-name="uni00B5" unicode="&#xb5;" horiz-adv-x="1461" 
d="M331 -320c0 89.333 1.50293 166.497 4.50293 231.497s6.5 124.833 10.5 179.5s7.5 109.834 10.5 165.501s4.5 118.834 4.5 189.501v580h56v-624c0 -127.333 28.167 -223.166 84.5 -287.499s140.166 -96.5 251.499 -96.5c61.333 0 116.666 13.667 165.999 41
s88.666 64 117.999 110s44 97 44 153v704h56v-1026h-56v154c-22 -54 -63.833 -98.5 -125.5 -133.5s-129.167 -52.5 -202.5 -52.5c-80.667 0 -149 13.667 -205 41s-99.667 68.333 -131 123v-452h-86z" />
    <glyph glyph-name="paragraph" unicode="&#xb6;" horiz-adv-x="1460" 
d="M946 0v736.002h-194c-107.333 0 -198.833 20.167 -274.5 60.5s-133.5 95.666 -173.5 165.999s-60 150.166 -60 239.499c0 90 20 168.667 60 236s97.833 119.5 173.5 156.5s167.167 55.5 274.5 55.5h356v-1650h-56v1602h-50v-1602h-56z" />
    <glyph glyph-name="periodcentered" unicode="&#xb7;" horiz-adv-x="734" 
d="M367 490c-8.66699 0 -16.667 2.16699 -24 6.5s-13.166 10.166 -17.499 17.499s-6.5 15.333 -6.5 24s2.16699 16.667 6.5 24s10.166 13.166 17.499 17.499s15.333 6.5 24 6.5s16.667 -2.16699 24 -6.5s13.166 -10.166 17.499 -17.499s6.5 -15.333 6.5 -24
s-2.16699 -16.667 -6.5 -24s-10.166 -13.166 -17.499 -17.499s-15.333 -6.5 -24 -6.5z" />
    <glyph glyph-name="cedilla" unicode="&#xb8;" horiz-adv-x="471" 
d="M239 -531c-53.333 0 -101 12.166 -143 36.499s-74 57.833 -96 100.5l41 23c39.333 -74 106 -111 200 -111c54 0 97.667 13.667 131 41s50 63 50 107c0 40 -13.333 72.5 -40 97.5s-61.667 37.5 -105 37.5c-24.667 0 -51.5 -4 -80.5 -12s-53.833 -18.333 -74.5 -31l-3 2
l87 269h52l-62 -190c20 4 35.667 6.83301 47 8.5s22 2.5 32 2.5c57.333 0 104.333 -17.167 141 -51.5s55 -78.166 55 -131.499c0 -58 -21.667 -105.5 -65 -142.5s-99 -55.5 -167 -55.5z" />
    <glyph glyph-name="uni00B9" unicode="&#xb9;" horiz-adv-x="398" 
d="M183 1026v582h-51v42h91v-624h-40z" />
    <glyph glyph-name="ordmasculine" unicode="&#xba;" horiz-adv-x="1028" 
d="M514 1008c-64 0 -121.5 14.333 -172.5 43s-91.333 68.167 -121 118.5s-44.5 108.5 -44.5 174.5c0 66.667 14.833 125.167 44.5 175.5s70 89.666 121 117.999s108.5 42.5 172.5 42.5c63.333 0 120.5 -14.167 171.5 -42.5s91.5 -67.666 121.5 -117.999
s45 -108.833 45 -175.5c0 -66 -15 -124.167 -45 -174.5s-70.5 -89.833 -121.5 -118.5s-108.167 -43 -171.5 -43zM513 1040c59.333 0 112 13.166 158 39.499s82.333 62.333 109 108s40 97.834 40 156.501s-13.333 110.834 -40 156.501s-63 81.667 -109 108
s-98.333 39.5 -157 39.5c-59.333 0 -112 -13.167 -158 -39.5s-82.167 -62.333 -108.5 -108s-39.5 -97.834 -39.5 -156.501c0 -59.333 13.333 -111.833 40 -157.5s63 -81.5 109 -107.5s98 -39 156 -39z" />
    <glyph glyph-name="guillemotright" unicode="&#xbb;" horiz-adv-x="1048" 
d="M500 56l-46 36l362 464l-362 464l46 36l390 -500zM215 56l-46 36l362 464l-362 464l46 36l390 -500z" />
    <glyph glyph-name="onequarter" unicode="&#xbc;" horiz-adv-x="2067" 
d="M295 600v999h-35v51h82v-1050h-47zM232 0l1160 1650h68l-1160 -1650h-68zM1590 0v206h-590v35l589 809h52v-798h137v-46h-137v-206h-51zM1063 252h527v722z" />
    <glyph glyph-name="onehalf" unicode="&#xbd;" horiz-adv-x="2304" 
d="M295 600v999h-35v51h82v-1050h-47zM232 0l1160 1650h68l-1160 -1650h-68zM1160 0l-0.00195312 20c149.333 103.333 272 191.5 368 264.5s171.167 135.667 225.5 188s92.333 99 114 140s32.5 81.5 32.5 121.5c0 54.667 -15 104.167 -45 148.5s-70 79.5 -120 105.5
s-105.333 39 -166 39s-116.167 -13.167 -166.5 -39.5s-90.5 -61.5 -120.5 -105.5s-45.667 -93.333 -47 -148l-54 8c1.33301 62.667 19.5 119.5 54.5 170.5s81.833 91.667 140.5 122s123.334 45.5 194.001 45.5s135.334 -15.167 194.001 -45.5s105.667 -71.666 141 -123.999
s53 -111.5 53 -177.5c0 -42.667 -9.83301 -84.834 -29.5 -126.501s-54 -87.5 -103 -137.5s-116.833 -108.5 -203.5 -175.5s-197 -147.167 -331 -240.5h689v-53h-820z" />
    <glyph glyph-name="threequarters" unicode="&#xbe;" horiz-adv-x="2558" 
d="M656 579c-95.333 0 -174.667 25.332 -238 75.999s-96 118.334 -98 203.001l52 9c0 -70 27 -126.667 81 -170s121.667 -65 203 -65c80.667 0 145 21.333 193 64s72 97.667 72 165c0 48 -11.833 91.5 -35.5 130.5s-55.167 70 -94.5 93s-82.666 34.5 -129.999 34.5
c-15.333 0 -28.333 -1.33301 -39 -4v46h31c49.333 0 93.833 11 133.5 33s71 51.333 94 88s34.5 76.667 34.5 120s-11 82.333 -33 117s-51.333 62.167 -88 82.5s-77 30.5 -121 30.5c-43.333 0 -83.333 -10.333 -120 -31s-66 -48.167 -88 -82.5s-33.333 -72.833 -34 -115.5
l-48 7c1.33301 52 15.166 98.333 41.499 139s61.5 72.667 105.5 96s92 35 144 35c55.333 0 105.166 -12.5 149.499 -37.5s79.5 -58.5 105.5 -100.5s39 -88 39 -138c0 -58.667 -18.167 -112.667 -54.5 -162s-84.166 -83.333 -143.499 -102
c57.333 -13.333 106.333 -44.833 147 -94.5s61 -110.5 61 -182.5c0 -53.333 -12.667 -101.5 -38 -144.5s-62 -77 -110 -102s-106 -37.5 -174 -37.5zM722.999 -0.000976562l1160 1650h68l-1160 -1650h-68zM2081 -0.000976562v206h-590v35l589 809h52v-798h137v-46h-137v-206
h-51zM1554 251.999h527v722z" />
    <glyph glyph-name="questiondown" unicode="&#xbf;" horiz-adv-x="1398" 
d="M716 -550c-96 0 -181.333 21.501 -256 64.501s-133.167 101.667 -175.5 176s-63.5 158.5 -63.5 252.5c0 92 20.667 175.5 62 250.5s100.333 134.833 177 179.5s167.667 67 273 67v320h50v-374c-11.333 1.33301 -20.5 2.33301 -27.5 3s-15.5 1 -25.5 1
c-86 0 -163.167 -17.667 -231.5 -53s-122.333 -86.5 -162 -153.5s-59.5 -147.833 -59.5 -242.5c0 -91.333 18.5 -169.5 55.5 -234.5s88.167 -114.667 153.5 -149s139.666 -51.5 222.999 -51.5c130 0 233.833 39.833 311.5 119.5s116.5 186.5 116.5 320.5h56
c0 -108 -21.667 -198.833 -65 -272.5s-101.166 -129.334 -173.499 -167.001s-151.833 -56.5 -238.5 -56.5zM759 1066c-8.66699 0 -16.667 2.16699 -24 6.5s-13.166 10.166 -17.499 17.499s-6.5 15.333 -6.5 24s2.16699 16.667 6.5 24s10.166 13.166 17.499 17.499
s15.333 6.5 24 6.5s16.667 -2.16699 24 -6.5s13.166 -10.166 17.499 -17.499s6.5 -15.333 6.5 -24s-2.16699 -16.667 -6.5 -24s-10.166 -13.166 -17.499 -17.499s-15.333 -6.5 -24 -6.5z" />
    <glyph glyph-name="Agrave" unicode="&#xc0;" horiz-adv-x="1652" 
d="M158 0l642 1650h52l642 -1650h-60l-236 610h-744l-236 -610h-60zM473 660h706l-353 922zM884 1809l-161 331l63 41l142 -345z" />
    <glyph glyph-name="Aacute" unicode="&#xc1;" horiz-adv-x="1652" 
d="M158 0l642 1650h52l642 -1650h-60l-236 610h-744l-236 -610h-60zM473 660h706l-353 922zM836 1809l-44 27l142 345l63 -41z" />
    <glyph glyph-name="Acircumflex" unicode="&#xc2;" horiz-adv-x="1652" 
d="M158 0l642 1650h52l642 -1650h-60l-236 610h-744l-236 -610h-60zM473 660h706l-353 922zM520 2016l-30 42l336 246l336 -246l-30 -42l-306 224z" />
    <glyph glyph-name="Atilde" unicode="&#xc3;" horiz-adv-x="1652" 
d="M158 0l642 1650h52l642 -1650h-60l-236 610h-744l-236 -610h-60zM473 660h706l-353 922zM1025 1944c-46 0 -84.999 8 -116.999 24s-61.5 34.667 -88.5 56s-55.5 40 -85.5 56s-66 24 -108 24c-56 0 -104 -15.5 -144 -46.5s-72 -67.5 -96 -109.5l-38 34
c28.667 48 66.167 88.667 112.5 122s101.5 50 165.5 50c46 0 85.167 -8 117.5 -24s62 -34.667 89 -56s55.5 -40 85.5 -56s65.667 -24 107 -24c49.333 0 94.666 13.5 135.999 40.5s76.333 65.5 105 115.5l38 -34c-22.667 -37.333 -48.5 -68.833 -77.5 -94.5
s-60.5 -45 -94.5 -58s-69.667 -19.5 -107 -19.5z" />
    <glyph glyph-name="Adieresis" unicode="&#xc4;" horiz-adv-x="1652" 
d="M158 0l642 1650h52l642 -1650h-60l-236 610h-744l-236 -610h-60zM473 660h706l-353 922zM1062 1974c-12.667 0 -23.834 4.83301 -33.501 14.5s-14.5 20.834 -14.5 33.501c0 13.333 4.83301 24.666 14.5 33.999s20.834 14 33.501 14c13.333 0 24.666 -4.66699 33.999 -14
s14 -20.666 14 -33.999c0 -12.667 -4.66699 -23.834 -14 -33.501s-20.666 -14.5 -33.999 -14.5zM590 1974c-12.667 0 -23.834 4.83301 -33.501 14.5s-14.5 20.834 -14.5 33.501c0 13.333 4.83301 24.666 14.5 33.999s20.834 14 33.501 14
c13.333 0 24.666 -4.66699 33.999 -14s14 -20.666 14 -33.999c0 -12.667 -4.66699 -23.834 -14 -33.501s-20.666 -14.5 -33.999 -14.5z" />
    <glyph glyph-name="Aring" unicode="&#xc5;" horiz-adv-x="1652" 
d="M158 0l642 1650h52l642 -1650h-60l-236 610h-744l-236 -610h-60zM473 660h706l-353 922zM826 1916c-36 0 -68.667 7.33301 -98 22s-52.666 35 -69.999 61s-26 55.667 -26 89v0c0 33.333 8.66699 63 26 89s40.666 46.333 69.999 61s62 22 98 22s68.667 -7.33301 98 -22
s52.666 -35 69.999 -61s26 -55.667 26 -89s-8.66699 -63 -26 -89s-40.666 -46.333 -69.999 -61s-62 -22 -98 -22zM826 1968c41.333 0 75.333 11.332 102 33.999s40 51.334 40 86.001c0 35.333 -13.333 64.166 -40 86.5c-26.667 22.333 -60.667 33.5 -102 33.5
c-40.667 0 -74.5 -11.167 -101.5 -33.5s-40.5 -51.166 -40.5 -86.499v0c0 -34.667 13.5 -63.334 40.5 -86.001s60.833 -34 101.5 -34z" />
    <glyph glyph-name="AE" unicode="&#xc6;" horiz-adv-x="2375" 
d="M158 0l642 1650h783l20 -50h-728l287 -748h704l19 -50h-703l293 -752h723l19 -50h-784l-235 610h-744l-236 -610h-60zM473 660h706l-353 921z" />
    <glyph glyph-name="Ccedilla" unicode="&#xc7;" horiz-adv-x="1652" 
d="M1001 -32c-123.333 0 -237 21.498 -341 64.498s-194.333 103.333 -271 181s-136 168.334 -178 272.001s-63 216.5 -63 338.5s21 234.833 63 338.5s101.333 194.334 178 272.001s167 138 271 181s217.667 64.5 341 64.5c104.667 0 202 -15.667 292 -47s171 -75 243 -131
l-34 -44c-66 54 -141.5 95.167 -226.5 123.5s-175.167 42.5 -270.5 42.5c-117.333 0 -224.5 -20.5 -321.5 -61.5s-180.833 -97.833 -251.5 -170.5s-125.334 -157.5 -164.001 -254.5s-58 -201.5 -58 -313.5s19.333 -216.5 58 -313.5s93.334 -181.833 164.001 -254.5
s154.5 -129.5 251.5 -170.5s204.167 -61.5 321.5 -61.5c95.333 0 185.5 14.167 270.5 42.5s160.5 69.5 226.5 123.5l34 -44c-72 -56 -153 -99.667 -243 -131s-187.333 -47 -292 -47zM982 -592.002c-53.333 0 -101 12.166 -143 36.499s-74 57.833 -96 100.5l41 23
c39.333 -74 106 -111 200 -111c54 0 97.667 13.667 131 41s50 63 50 107c0 40 -13.333 72.5 -40 97.5s-61.667 37.5 -105 37.5c-24.667 0 -51.5 -4 -80.5 -12s-53.833 -18.333 -74.5 -31l-3 2l87 269h52l-62 -190c20 4 35.667 6.83301 47 8.5s22 2.5 32 2.5
c57.333 0 104.333 -17.167 141 -51.5s55 -78.166 55 -131.499c0 -58 -21.667 -105.5 -65 -142.5s-99 -55.5 -167 -55.5z" />
    <glyph glyph-name="Egrave" unicode="&#xc8;" horiz-adv-x="1254" 
d="M293 0v1650h784v-50h-728v-748h704v-50h-704v-752h728v-50h-784zM764 1809l-161 331l63 41l142 -345z" />
    <glyph glyph-name="Eacute" unicode="&#xc9;" horiz-adv-x="1254" 
d="M293 0v1650h784v-50h-728v-748h704v-50h-704v-752h728v-50h-784zM716 1809l-44 27l142 345l63 -41z" />
    <glyph glyph-name="Ecircumflex" unicode="&#xca;" horiz-adv-x="1254" 
d="M293 0v1650h784v-50h-728v-748h704v-50h-704v-752h728v-50h-784zM400 2016l-30 42l336 246l336 -246l-30 -42l-306 224z" />
    <glyph glyph-name="Edieresis" unicode="&#xcb;" horiz-adv-x="1254" 
d="M293 0v1650h784v-50h-728v-748h704v-50h-704v-752h728v-50h-784zM942 1974c-12.667 0 -23.834 4.83301 -33.501 14.5s-14.5 20.834 -14.5 33.501c0 13.333 4.83301 24.666 14.5 33.999s20.834 14 33.501 14c13.333 0 24.666 -4.66699 33.999 -14s14 -20.666 14 -33.999
c0 -12.667 -4.66699 -23.834 -14 -33.501s-20.666 -14.5 -33.999 -14.5zM470 1974c-12.667 0 -23.834 4.83301 -33.501 14.5s-14.5 20.834 -14.5 33.501c0 13.333 4.83301 24.666 14.5 33.999s20.834 14 33.501 14c13.333 0 24.666 -4.66699 33.999 -14
s14 -20.666 14 -33.999c0 -12.667 -4.66699 -23.834 -14 -33.501s-20.666 -14.5 -33.999 -14.5z" />
    <glyph glyph-name="Igrave" unicode="&#xcc;" horiz-adv-x="642" 
d="M293 0v1650h56v-1650h-56zM379 1809l-161 331l63 41l142 -345z" />
    <glyph glyph-name="Iacute" unicode="&#xcd;" horiz-adv-x="642" 
d="M293 0v1650h56v-1650h-56zM331 1809l-44 27l142 345l63 -41z" />
    <glyph glyph-name="Icircumflex" unicode="&#xce;" horiz-adv-x="642" 
d="M293 0v1650h56v-1650h-56zM15 2016l-30 42l336 246l336 -246l-30 -42l-306 224z" />
    <glyph glyph-name="Idieresis" unicode="&#xcf;" horiz-adv-x="642" 
d="M293 0v1650h56v-1650h-56zM557 1974c-12.667 0 -23.834 4.83301 -33.501 14.5s-14.5 20.834 -14.5 33.501c0 13.333 4.83301 24.666 14.5 33.999s20.834 14 33.501 14c13.333 0 24.666 -4.66699 33.999 -14s14 -20.666 14 -33.999
c0 -12.667 -4.66699 -23.834 -14 -33.501s-20.666 -14.5 -33.999 -14.5zM85 1974c-12.667 0 -23.834 4.83301 -33.501 14.5s-14.5 20.834 -14.5 33.501c0 13.333 4.83301 24.666 14.5 33.999s20.834 14 33.501 14c13.333 0 24.666 -4.66699 33.999 -14
s14 -20.666 14 -33.999c0 -12.667 -4.66699 -23.834 -14 -33.501s-20.666 -14.5 -33.999 -14.5z" />
    <glyph glyph-name="Eth" unicode="&#xd0;" horiz-adv-x="1682" 
d="M322 0v802.001h-164v46h164v802h326c113.333 0 220 -20.167 320 -60.5s188.5 -97.5 265.5 -171.5s137.333 -161.167 181 -261.5s65.5 -210.5 65.5 -330.5c0 -120.667 -21.833 -231.334 -65.5 -332.001s-103.834 -188 -180.501 -262s-165.167 -131.167 -265.5 -171.5
s-207.166 -60.5 -320.499 -60.5h-326zM378 50.001l270 -0.000976562c105.333 0 204.666 19 297.999 57s176.166 91.833 248.499 161.5s129 151.834 170 246.501s61.5 198.334 61.5 311.001s-20.667 216.167 -62 310.5s-98.166 176.166 -170.499 245.499
s-155.166 123 -248.499 161s-192.333 57 -297 57h-270v-752h538v-46h-538v-752z" />
    <glyph glyph-name="Ntilde" unicode="&#xd1;" horiz-adv-x="1682" 
d="M293 0v1650h56l984 -1548v1548h56v-1650h-56l-984 1546v-1546h-56zM1040 1944c-46 0 -84.999 8 -116.999 24s-61.5 34.667 -88.5 56s-55.5 40 -85.5 56s-66 24 -108 24c-56 0 -104 -15.5 -144 -46.5s-72 -67.5 -96 -109.5l-38 34c28.667 48 66.167 88.667 112.5 122
s101.5 50 165.5 50c46 0 85.167 -8 117.5 -24s62 -34.667 89 -56s55.5 -40 85.5 -56s65.667 -24 107 -24c49.333 0 94.666 13.5 135.999 40.5s76.333 65.5 105 115.5l38 -34c-22.667 -37.333 -48.5 -68.833 -77.5 -94.5s-60.5 -45 -94.5 -58s-69.667 -19.5 -107 -19.5z" />
    <glyph glyph-name="Ograve" unicode="&#xd2;" horiz-adv-x="2070" 
d="M1035 -32c-115.333 0 -223.333 22 -324 66s-189 105.167 -265 183.5s-135.5 169.333 -178.5 273s-64.5 214.834 -64.5 333.501c0 119.333 21.5 230.666 64.5 333.999s102.5 194.166 178.5 272.499s164.333 139.5 265 183.5s208.667 66 324 66s223.333 -22 324 -66
s189 -105.167 265 -183.5s135.5 -169.166 178.5 -272.499s64.5 -214.666 64.5 -333.999c0 -118.667 -21.5 -229.834 -64.5 -333.501s-102.5 -194.667 -178.5 -273s-164.333 -139.5 -265 -183.5s-208.667 -66 -324 -66zM1035 22c107.333 0 207.666 20.667 300.999 62
s175.166 98.833 245.499 172.5s125.5 159 165.5 256s60 200.833 60 311.5c0 111.333 -20 215.333 -60 312s-95.167 181.834 -165.5 255.501s-152.166 131.167 -245.499 172.5s-193.666 62 -300.999 62c-106.667 0 -206.834 -20.667 -300.501 -62
s-175.667 -98.833 -246 -172.5s-125.5 -158.834 -165.5 -255.501s-60 -200.667 -60 -312c0 -110.667 20 -214.5 60 -311.5s95.167 -182.333 165.5 -256s152.333 -131.167 246 -172.5s193.834 -62 300.501 -62zM1093 1809l-161 331l63 41l142 -345z" />
    <glyph glyph-name="Oacute" unicode="&#xd3;" horiz-adv-x="2070" 
d="M1035 -32c-115.333 0 -223.333 22 -324 66s-189 105.167 -265 183.5s-135.5 169.333 -178.5 273s-64.5 214.834 -64.5 333.501c0 119.333 21.5 230.666 64.5 333.999s102.5 194.166 178.5 272.499s164.333 139.5 265 183.5s208.667 66 324 66s223.333 -22 324 -66
s189 -105.167 265 -183.5s135.5 -169.166 178.5 -272.499s64.5 -214.666 64.5 -333.999c0 -118.667 -21.5 -229.834 -64.5 -333.501s-102.5 -194.667 -178.5 -273s-164.333 -139.5 -265 -183.5s-208.667 -66 -324 -66zM1035 22c107.333 0 207.666 20.667 300.999 62
s175.166 98.833 245.499 172.5s125.5 159 165.5 256s60 200.833 60 311.5c0 111.333 -20 215.333 -60 312s-95.167 181.834 -165.5 255.501s-152.166 131.167 -245.499 172.5s-193.666 62 -300.999 62c-106.667 0 -206.834 -20.667 -300.501 -62
s-175.667 -98.833 -246 -172.5s-125.5 -158.834 -165.5 -255.501s-60 -200.667 -60 -312c0 -110.667 20 -214.5 60 -311.5s95.167 -182.333 165.5 -256s152.333 -131.167 246 -172.5s193.834 -62 300.501 -62zM1045 1809l-44 27l142 345l63 -41z" />
    <glyph glyph-name="Ocircumflex" unicode="&#xd4;" horiz-adv-x="2070" 
d="M1035 -32c-115.333 0 -223.333 22 -324 66s-189 105.167 -265 183.5s-135.5 169.333 -178.5 273s-64.5 214.834 -64.5 333.501c0 119.333 21.5 230.666 64.5 333.999s102.5 194.166 178.5 272.499s164.333 139.5 265 183.5s208.667 66 324 66s223.333 -22 324 -66
s189 -105.167 265 -183.5s135.5 -169.166 178.5 -272.499s64.5 -214.666 64.5 -333.999c0 -118.667 -21.5 -229.834 -64.5 -333.501s-102.5 -194.667 -178.5 -273s-164.333 -139.5 -265 -183.5s-208.667 -66 -324 -66zM1035 22c107.333 0 207.666 20.667 300.999 62
s175.166 98.833 245.499 172.5s125.5 159 165.5 256s60 200.833 60 311.5c0 111.333 -20 215.333 -60 312s-95.167 181.834 -165.5 255.501s-152.166 131.167 -245.499 172.5s-193.666 62 -300.999 62c-106.667 0 -206.834 -20.667 -300.501 -62
s-175.667 -98.833 -246 -172.5s-125.5 -158.834 -165.5 -255.501s-60 -200.667 -60 -312c0 -110.667 20 -214.5 60 -311.5s95.167 -182.333 165.5 -256s152.333 -131.167 246 -172.5s193.834 -62 300.501 -62zM729 2016l-30 42l336 246l336 -246l-30 -42l-306 224z" />
    <glyph glyph-name="Otilde" unicode="&#xd5;" horiz-adv-x="2070" 
d="M1035 -32c-115.333 0 -223.333 22 -324 66s-189 105.167 -265 183.5s-135.5 169.333 -178.5 273s-64.5 214.834 -64.5 333.501c0 119.333 21.5 230.666 64.5 333.999s102.5 194.166 178.5 272.499s164.333 139.5 265 183.5s208.667 66 324 66s223.333 -22 324 -66
s189 -105.167 265 -183.5s135.5 -169.166 178.5 -272.499s64.5 -214.666 64.5 -333.999c0 -118.667 -21.5 -229.834 -64.5 -333.501s-102.5 -194.667 -178.5 -273s-164.333 -139.5 -265 -183.5s-208.667 -66 -324 -66zM1035 22c107.333 0 207.666 20.667 300.999 62
s175.166 98.833 245.499 172.5s125.5 159 165.5 256s60 200.833 60 311.5c0 111.333 -20 215.333 -60 312s-95.167 181.834 -165.5 255.501s-152.166 131.167 -245.499 172.5s-193.666 62 -300.999 62c-106.667 0 -206.834 -20.667 -300.501 -62
s-175.667 -98.833 -246 -172.5s-125.5 -158.834 -165.5 -255.501s-60 -200.667 -60 -312c0 -110.667 20 -214.5 60 -311.5s95.167 -182.333 165.5 -256s152.333 -131.167 246 -172.5s193.834 -62 300.501 -62zM1234 1944c-46 0 -84.999 8 -116.999 24s-61.5 34.667 -88.5 56
s-55.5 40 -85.5 56s-66 24 -108 24c-56 0 -104 -15.5 -144 -46.5s-72 -67.5 -96 -109.5l-38 34c28.667 48 66.167 88.667 112.5 122s101.5 50 165.5 50c46 0 85.167 -8 117.5 -24s62 -34.667 89 -56s55.5 -40 85.5 -56s65.667 -24 107 -24
c49.333 0 94.666 13.5 135.999 40.5s76.333 65.5 105 115.5l38 -34c-22.667 -37.333 -48.5 -68.833 -77.5 -94.5s-60.5 -45 -94.5 -58s-69.667 -19.5 -107 -19.5z" />
    <glyph glyph-name="Odieresis" unicode="&#xd6;" horiz-adv-x="2070" 
d="M1035 -32c-115.333 0 -223.333 22 -324 66s-189 105.167 -265 183.5s-135.5 169.333 -178.5 273s-64.5 214.834 -64.5 333.501c0 119.333 21.5 230.666 64.5 333.999s102.5 194.166 178.5 272.499s164.333 139.5 265 183.5s208.667 66 324 66s223.333 -22 324 -66
s189 -105.167 265 -183.5s135.5 -169.166 178.5 -272.499s64.5 -214.666 64.5 -333.999c0 -118.667 -21.5 -229.834 -64.5 -333.501s-102.5 -194.667 -178.5 -273s-164.333 -139.5 -265 -183.5s-208.667 -66 -324 -66zM1035 22c107.333 0 207.666 20.667 300.999 62
s175.166 98.833 245.499 172.5s125.5 159 165.5 256s60 200.833 60 311.5c0 111.333 -20 215.333 -60 312s-95.167 181.834 -165.5 255.501s-152.166 131.167 -245.499 172.5s-193.666 62 -300.999 62c-106.667 0 -206.834 -20.667 -300.501 -62
s-175.667 -98.833 -246 -172.5s-125.5 -158.834 -165.5 -255.501s-60 -200.667 -60 -312c0 -110.667 20 -214.5 60 -311.5s95.167 -182.333 165.5 -256s152.333 -131.167 246 -172.5s193.834 -62 300.501 -62zM1271 1974c-12.667 0 -23.834 4.83301 -33.501 14.5
s-14.5 20.834 -14.5 33.501c0 13.333 4.83301 24.666 14.5 33.999s20.834 14 33.501 14c13.333 0 24.666 -4.66699 33.999 -14s14 -20.666 14 -33.999c0 -12.667 -4.66699 -23.834 -14 -33.501s-20.666 -14.5 -33.999 -14.5zM799 1974
c-12.667 0 -23.834 4.83301 -33.501 14.5s-14.5 20.834 -14.5 33.501c0 13.333 4.83301 24.666 14.5 33.999s20.834 14 33.501 14c13.333 0 24.666 -4.66699 33.999 -14s14 -20.666 14 -33.999c0 -12.667 -4.66699 -23.834 -14 -33.501s-20.666 -14.5 -33.999 -14.5z" />
    <glyph glyph-name="multiply" unicode="&#xd7;" horiz-adv-x="1334" 
d="M269 398l-32 34l398 396l-398 398l34 32l396 -398l398 398l32 -32l-398 -398l398 -396l-34 -34l-396 398z" />
    <glyph glyph-name="Oslash" unicode="&#xd8;" horiz-adv-x="2070" 
d="M1035 -32c-115.333 0 -223.333 22 -324 66s-189 105.167 -265 183.5s-135.5 169.333 -178.5 273s-64.5 214.834 -64.5 333.501c0 119.333 21.5 230.666 64.5 333.999s102.5 194.166 178.5 272.499s164.333 139.5 265 183.5s208.667 66 324 66s223.333 -22 324 -66
s189 -105.167 265 -183.5s135.5 -169.166 178.5 -272.499s64.5 -214.666 64.5 -333.999c0 -118.667 -21.5 -229.834 -64.5 -333.501s-102.5 -194.667 -178.5 -273s-164.333 -139.5 -265 -183.5s-208.667 -66 -324 -66zM1035 22c107.333 0 207.666 20.667 300.999 62
s175.166 98.833 245.499 172.5s125.5 159 165.5 256s60 200.833 60 311.5c0 111.333 -20 215.333 -60 312s-95.167 181.834 -165.5 255.501s-152.166 131.167 -245.499 172.5s-193.666 62 -300.999 62c-106.667 0 -206.834 -20.667 -300.501 -62
s-175.667 -98.833 -246 -172.5s-125.5 -158.834 -165.5 -255.501s-60 -200.667 -60 -312c0 -110.667 20 -214.5 60 -311.5s95.167 -182.333 165.5 -256s152.333 -131.167 246 -172.5s193.834 -62 300.501 -62zM437 8l-44 34l1246 1602l46 -34z" />
    <glyph glyph-name="Ugrave" unicode="&#xd9;" horiz-adv-x="1623" 
d="M812 -32c-180.667 0 -315.832 52.167 -405.499 156.5s-134.5 260.833 -134.5 469.5v1056h56v-1056c0 -186.667 41 -328.334 123 -425.001s202.333 -145 361 -145s279 48.333 361 145s123 238.334 123 425.001v1056h56v-1056c0 -208.667 -44.833 -365.167 -134.5 -469.5
s-224.834 -156.5 -405.501 -156.5zM870.002 1809l-161 331l63 41l142 -345z" />
    <glyph glyph-name="Uacute" unicode="&#xda;" horiz-adv-x="1623" 
d="M812 -32c-180.667 0 -315.832 52.167 -405.499 156.5s-134.5 260.833 -134.5 469.5v1056h56v-1056c0 -186.667 41 -328.334 123 -425.001s202.333 -145 361 -145s279 48.333 361 145s123 238.334 123 425.001v1056h56v-1056c0 -208.667 -44.833 -365.167 -134.5 -469.5
s-224.834 -156.5 -405.501 -156.5zM822.002 1809l-44 27l142 345l63 -41z" />
    <glyph glyph-name="Ucircumflex" unicode="&#xdb;" horiz-adv-x="1623" 
d="M812 -32c-180.667 0 -315.832 52.167 -405.499 156.5s-134.5 260.833 -134.5 469.5v1056h56v-1056c0 -186.667 41 -328.334 123 -425.001s202.333 -145 361 -145s279 48.333 361 145s123 238.334 123 425.001v1056h56v-1056c0 -208.667 -44.833 -365.167 -134.5 -469.5
s-224.834 -156.5 -405.501 -156.5zM506.002 2016l-30 42l336 246l336 -246l-30 -42l-306 224z" />
    <glyph glyph-name="Udieresis" unicode="&#xdc;" horiz-adv-x="1623" 
d="M812 -32c-180.667 0 -315.832 52.167 -405.499 156.5s-134.5 260.833 -134.5 469.5v1056h56v-1056c0 -186.667 41 -328.334 123 -425.001s202.333 -145 361 -145s279 48.333 361 145s123 238.334 123 425.001v1056h56v-1056c0 -208.667 -44.833 -365.167 -134.5 -469.5
s-224.834 -156.5 -405.501 -156.5zM1048 1974c-12.667 0 -23.834 4.83301 -33.501 14.5s-14.5 20.834 -14.5 33.501c0 13.333 4.83301 24.666 14.5 33.999s20.834 14 33.501 14c13.333 0 24.666 -4.66699 33.999 -14s14 -20.666 14 -33.999
c0 -12.667 -4.66699 -23.834 -14 -33.501s-20.666 -14.5 -33.999 -14.5zM576.002 1974c-12.667 0 -23.834 4.83301 -33.501 14.5s-14.5 20.834 -14.5 33.501c0 13.333 4.83301 24.666 14.5 33.999s20.834 14 33.501 14c13.333 0 24.666 -4.66699 33.999 -14
s14 -20.666 14 -33.999c0 -12.667 -4.66699 -23.834 -14 -33.501s-20.666 -14.5 -33.999 -14.5z" />
    <glyph glyph-name="Yacute" unicode="&#xdd;" horiz-adv-x="1460" 
d="M702 0v704l-550 946h68l510 -878l510 878h68l-550 -946v-704h-56zM740 1809l-44 27l142 345l63 -41z" />
    <glyph glyph-name="Thorn" unicode="&#xde;" horiz-adv-x="1343" 
d="M293 0v1650h56v-378h298c162 0 287.5 -40.833 376.5 -122.5s133.5 -190.167 133.5 -325.5c0 -89.333 -20 -169.166 -60 -239.499s-98 -125.666 -174 -165.999s-168 -60.5 -276 -60.5h-298v-358h-56zM349 411.998h298c96.667 0 179.167 17.833 247.5 53.5
s120.5 84.5 156.5 146.5s54 132.667 54 212c0 120 -40 216.667 -120 290s-192.667 110 -338 110h-298v-812z" />
    <glyph glyph-name="germandbls" unicode="&#xdf;" horiz-adv-x="1333" 
d="M471 -32l0.00195312 55.999h218c79.333 0 151.666 19.5 216.999 58.5s117.5 91.167 156.5 156.5s58.5 137.666 58.5 216.999c0 80 -19.5 152.833 -58.5 218.5s-91.167 118 -156.5 157s-137.666 58.5 -216.999 58.5h-218v56h218c68.667 0 131.334 16.833 188.001 50.5
s101.834 78.834 135.501 135.501s50.5 119.334 50.5 188.001s-16.833 131.334 -50.5 188.001s-78.834 101.834 -135.501 135.501s-119.334 50.5 -188.001 50.5s-131.334 -16.833 -188.001 -50.5s-101.834 -78.834 -135.501 -135.501s-50.5 -119.334 -50.5 -188.001v-1320
h-56v756h-132v58h132v506c0 79.333 19.333 151.5 58 216.5s90.5 116.833 155.5 155.5s137.167 58 216.5 58s151.5 -19.333 216.5 -58s116.833 -90.5 155.5 -155.5s58 -137.167 58 -216.5c0 -88.667 -24.833 -169.5 -74.5 -242.5s-115.5 -125.5 -197.5 -157.5
c66 -22.667 123.667 -57.167 173 -103.5s87.833 -100.5 115.5 -162.5s41.5 -128 41.5 -198c0 -90 -21.833 -172 -65.5 -246s-102.5 -132.833 -176.5 -176.5s-156 -65.5 -246 -65.5h-218z" />
    <glyph glyph-name="agrave" unicode="&#xe0;" 
d="M677 -32c-97.333 0 -184.666 23.498 -261.999 70.498s-138.333 111.5 -183 193.5s-67 175.333 -67 280c0 105.333 22.333 198.833 67 280.5s105.667 146 183 193s164.666 70.5 261.999 70.5c103.333 0 196.333 -26.167 279 -78.5s143 -124.166 181 -215.499v262h56v-1024
h-56v262c-42 -91.333 -103.667 -163.166 -185 -215.499s-173 -78.5 -275 -78.5zM681 19.998c90 0 169.667 21.001 239 63.001s123.833 100.167 163.5 174.5s59.5 159.166 59.5 254.499c0 96 -19.667 181 -59 255s-93.833 132 -163.5 174s-149.5 63 -239.5 63
c-89.333 0 -168.833 -21 -238.5 -63s-124.334 -100 -164.001 -174s-59.5 -159 -59.5 -255c0 -95.333 19.833 -180 59.5 -254s94.334 -132.167 164.001 -174.5s149.167 -63.5 238.5 -63.5zM805 1215l-161 331l63 41l142 -345z" />
    <glyph glyph-name="aacute" unicode="&#xe1;" 
d="M677 -32c-97.333 0 -184.666 23.498 -261.999 70.498s-138.333 111.5 -183 193.5s-67 175.333 -67 280c0 105.333 22.333 198.833 67 280.5s105.667 146 183 193s164.666 70.5 261.999 70.5c103.333 0 196.333 -26.167 279 -78.5s143 -124.166 181 -215.499v262h56v-1024
h-56v262c-42 -91.333 -103.667 -163.166 -185 -215.499s-173 -78.5 -275 -78.5zM681 19.998c90 0 169.667 21.001 239 63.001s123.833 100.167 163.5 174.5s59.5 159.166 59.5 254.499c0 96 -19.667 181 -59 255s-93.833 132 -163.5 174s-149.5 63 -239.5 63
c-89.333 0 -168.833 -21 -238.5 -63s-124.334 -100 -164.001 -174s-59.5 -159 -59.5 -255c0 -95.333 19.833 -180 59.5 -254s94.334 -132.167 164.001 -174.5s149.167 -63.5 238.5 -63.5zM757 1215l-44 27l142 345l63 -41z" />
    <glyph glyph-name="acircumflex" unicode="&#xe2;" 
d="M677 -32c-97.333 0 -184.666 23.498 -261.999 70.498s-138.333 111.5 -183 193.5s-67 175.333 -67 280c0 105.333 22.333 198.833 67 280.5s105.667 146 183 193s164.666 70.5 261.999 70.5c103.333 0 196.333 -26.167 279 -78.5s143 -124.166 181 -215.499v262h56v-1024
h-56v262c-42 -91.333 -103.667 -163.166 -185 -215.499s-173 -78.5 -275 -78.5zM681 19.998c90 0 169.667 21.001 239 63.001s123.833 100.167 163.5 174.5s59.5 159.166 59.5 254.499c0 96 -19.667 181 -59 255s-93.833 132 -163.5 174s-149.5 63 -239.5 63
c-89.333 0 -168.833 -21 -238.5 -63s-124.334 -100 -164.001 -174s-59.5 -159 -59.5 -255c0 -95.333 19.833 -180 59.5 -254s94.334 -132.167 164.001 -174.5s149.167 -63.5 238.5 -63.5zM441 1422l-30 42l336 246l336 -246l-30 -42l-306 224z" />
    <glyph glyph-name="atilde" unicode="&#xe3;" 
d="M677 -32c-97.333 0 -184.666 23.498 -261.999 70.498s-138.333 111.5 -183 193.5s-67 175.333 -67 280c0 105.333 22.333 198.833 67 280.5s105.667 146 183 193s164.666 70.5 261.999 70.5c103.333 0 196.333 -26.167 279 -78.5s143 -124.166 181 -215.499v262h56v-1024
h-56v262c-42 -91.333 -103.667 -163.166 -185 -215.499s-173 -78.5 -275 -78.5zM681 19.998c90 0 169.667 21.001 239 63.001s123.833 100.167 163.5 174.5s59.5 159.166 59.5 254.499c0 96 -19.667 181 -59 255s-93.833 132 -163.5 174s-149.5 63 -239.5 63
c-89.333 0 -168.833 -21 -238.5 -63s-124.334 -100 -164.001 -174s-59.5 -159 -59.5 -255c0 -95.333 19.833 -180 59.5 -254s94.334 -132.167 164.001 -174.5s149.167 -63.5 238.5 -63.5zM946 1350c-46 0 -84.999 8 -116.999 24s-61.5 34.667 -88.5 56s-55.5 40 -85.5 56
s-66 24 -108 24c-56 0 -104 -15.5 -144 -46.5s-72 -67.5 -96 -109.5l-38 34c28.667 48 66.167 88.667 112.5 122s101.5 50 165.5 50c46 0 85.167 -8 117.5 -24s62 -34.667 89 -56s55.5 -40 85.5 -56s65.667 -24 107 -24c49.333 0 94.666 13.5 135.999 40.5
s76.333 65.5 105 115.5l38 -34c-22.667 -37.333 -48.5 -68.833 -77.5 -94.5s-60.5 -45 -94.5 -58s-69.667 -19.5 -107 -19.5z" />
    <glyph glyph-name="adieresis" unicode="&#xe4;" 
d="M677 -32c-97.333 0 -184.666 23.498 -261.999 70.498s-138.333 111.5 -183 193.5s-67 175.333 -67 280c0 105.333 22.333 198.833 67 280.5s105.667 146 183 193s164.666 70.5 261.999 70.5c103.333 0 196.333 -26.167 279 -78.5s143 -124.166 181 -215.499v262h56v-1024
h-56v262c-42 -91.333 -103.667 -163.166 -185 -215.499s-173 -78.5 -275 -78.5zM681 19.998c90 0 169.667 21.001 239 63.001s123.833 100.167 163.5 174.5s59.5 159.166 59.5 254.499c0 96 -19.667 181 -59 255s-93.833 132 -163.5 174s-149.5 63 -239.5 63
c-89.333 0 -168.833 -21 -238.5 -63s-124.334 -100 -164.001 -174s-59.5 -159 -59.5 -255c0 -95.333 19.833 -180 59.5 -254s94.334 -132.167 164.001 -174.5s149.167 -63.5 238.5 -63.5zM983 1380c-12.667 0 -23.834 4.83301 -33.501 14.5s-14.5 20.834 -14.5 33.501
c0 13.333 4.83301 24.666 14.5 33.999s20.834 14 33.501 14c13.333 0 24.666 -4.66699 33.999 -14s14 -20.666 14 -33.999c0 -12.667 -4.66699 -23.834 -14 -33.501s-20.666 -14.5 -33.999 -14.5zM511 1380c-12.667 0 -23.834 4.83301 -33.501 14.5
s-14.5 20.834 -14.5 33.501c0 13.333 4.83301 24.666 14.5 33.999s20.834 14 33.501 14c13.333 0 24.666 -4.66699 33.999 -14s14 -20.666 14 -33.999c0 -12.667 -4.66699 -23.834 -14 -33.501s-20.666 -14.5 -33.999 -14.5z" />
    <glyph glyph-name="aring" unicode="&#xe5;" 
d="M677 -32c-97.333 0 -184.666 23.498 -261.999 70.498s-138.333 111.5 -183 193.5s-67 175.333 -67 280c0 105.333 22.333 198.833 67 280.5s105.667 146 183 193s164.666 70.5 261.999 70.5c103.333 0 196.333 -26.167 279 -78.5s143 -124.166 181 -215.499v262h56v-1024
h-56v262c-42 -91.333 -103.667 -163.166 -185 -215.499s-173 -78.5 -275 -78.5zM681 19.998c90 0 169.667 21.001 239 63.001s123.833 100.167 163.5 174.5s59.5 159.166 59.5 254.499c0 96 -19.667 181 -59 255s-93.833 132 -163.5 174s-149.5 63 -239.5 63
c-89.333 0 -168.833 -21 -238.5 -63s-124.334 -100 -164.001 -174s-59.5 -159 -59.5 -255c0 -95.333 19.833 -180 59.5 -254s94.334 -132.167 164.001 -174.5s149.167 -63.5 238.5 -63.5zM747 1322c-36 0 -68.667 7.33301 -98 22s-52.666 35 -69.999 61s-26 55.667 -26 89v0
c0 33.333 8.66699 63 26 89s40.666 46.333 69.999 61s62 22 98 22s68.667 -7.33301 98 -22s52.666 -35 69.999 -61s26 -55.667 26 -89s-8.66699 -63 -26 -89s-40.666 -46.333 -69.999 -61s-62 -22 -98 -22zM747 1374c41.333 0 75.333 11.333 102 34s40 51.334 40 86.001
c0 35.333 -13.333 64.166 -40 86.499s-60.667 33.5 -102 33.5c-40.667 0 -74.5 -11.167 -101.5 -33.5s-40.5 -51.166 -40.5 -86.499v0c0 -34.667 13.5 -63.334 40.5 -86.001s60.833 -34 101.5 -34z" />
    <glyph glyph-name="ae" unicode="&#xe6;" horiz-adv-x="2098" 
d="M552 -32c-74.667 0 -142.669 13.668 -204.002 41.001s-110.333 66 -147 116s-55 108.333 -55 175c0 66 18 124.167 54 174.5s84.833 89.5 146.5 117.5s130.834 42 207.501 42c76 0 144.667 -14 206 -42s109.333 -66 144 -114v144c0 122 -30.833 216.5 -92.5 283.5
s-146.167 100.5 -253.5 100.5c-47.333 0 -89.5 -6.33301 -126.5 -19s-70.333 -29.834 -100 -51.501s-57.5 -46.834 -83.5 -75.501l-40 32c47.333 59.333 101.333 101.5 162 126.5s124.334 37.5 191.001 37.5c117.333 0 208.166 -30.833 272.499 -92.5
s103.166 -136.167 116.499 -223.5c43.333 93.333 107.333 169.333 192 228s180 88 286 88c96 0 183.667 -24.167 263 -72.5s142.833 -113.166 190.5 -194.499s71.834 -171.666 72.501 -270.999v-3v-3h-1000c0 -94.667 21.167 -179.167 63.5 -253.5
s100.833 -132.666 175.5 -174.999s159.667 -63.5 255 -63.5c90 0 171.833 19.333 245.5 58s131.834 92.667 174.501 162l44 -28c-48.667 -77.333 -113.667 -137.333 -195 -180s-171 -64 -269 -64c-108 0 -205.167 25.667 -291.5 77s-151.833 122.333 -196.5 213
c-12.667 -58.667 -38 -109.834 -76 -153.501s-85.333 -77.334 -142 -101.001s-120 -35.5 -190 -35.5zM553.998 20.001c65.333 0 125 11.667 179 35s97 56.166 129 98.499s48 91.833 48 148.5s-16 106 -48 148s-75 74.5 -129 97.5s-113.667 34.5 -179 34.5
s-125 -11.5 -179 -34.5s-97 -55.5 -129 -97.5s-48 -91.333 -48 -148s16 -106.167 48 -148.5s75 -75.166 129 -98.499s113.667 -35 179 -35zM955.998 562.001h942c-8 83.333 -33.833 158.333 -77.5 225s-99.5 119.5 -167.5 158.5s-143 58.5 -225 58.5
c-81.333 0 -156.333 -19.5 -225 -58.5s-125 -91.833 -169 -158.5s-70 -141.667 -78 -225z" />
    <glyph glyph-name="ccedilla" unicode="&#xe7;" horiz-adv-x="1187" 
d="M709 -32c-76.667 0 -148.167 13.333 -214.5 40s-124.333 64.334 -174 113.001s-88.334 106.167 -116.001 172.5s-41.5 139.166 -41.5 218.499c0 80 13.833 153.167 41.5 219.5s66.334 123.833 116.001 172.5s107.667 86.167 174 112.5s137.833 39.5 214.5 39.5
c68 0 132.333 -10.5 193 -31.5s114.334 -50.5 161.001 -88.5l-34 -38c-88.667 70.667 -195.334 106 -320.001 106c-95.333 0 -180.166 -21.167 -254.499 -63.5s-132.833 -100.5 -175.5 -174.5s-64 -158.667 -64 -254c0 -94 21.167 -178.167 63.5 -252.5
s100.666 -132.833 174.999 -175.5s159.833 -64 256.5 -64c60.667 0 118 9 172 27s102.333 44.333 145 79l36 -38c-48 -38 -102 -67.5 -162 -88.5s-124 -31.5 -192 -31.5zM695 -550c-53.333 0 -101 12.166 -143 36.499s-74 57.833 -96 100.5l41 23
c39.333 -74 106 -111 200 -111c54 0 97.667 13.667 131 41s50 63 50 107c0 40 -13.333 72.5 -40 97.5s-61.667 37.5 -105 37.5c-24.667 0 -51.5 -4 -80.5 -12s-53.833 -18.333 -74.5 -31l-3 2l87 269h52l-62 -190c20 4 35.667 6.83301 47 8.5s22 2.5 32 2.5
c57.333 0 104.333 -17.167 141 -51.5s55 -78.166 55 -131.499c0 -58 -21.667 -105.5 -65 -142.5s-99 -55.5 -167 -55.5z" />
    <glyph glyph-name="egrave" unicode="&#xe8;" horiz-adv-x="1358" 
d="M708 -32c-106.667 0 -201.167 23.832 -283.5 71.499s-146.666 112 -192.999 193s-69.5 171.833 -69.5 272.5c0 78 13.833 150.5 41.5 217.5s65.667 125.333 114 175s104.166 88.5 167.499 116.5s130.666 42 201.999 42c91.333 0 175.5 -22.333 252.5 -67
s140 -105.667 189 -183s77.167 -165 84.5 -263c0.666992 -6 1 -11.167 1 -15.5v-15.5h-1000c0 -94.667 21.167 -179.167 63.5 -253.5s100.833 -132.666 175.5 -174.999s159.667 -63.5 255 -63.5c90 0 171.833 19.333 245.5 58s131.834 92.667 174.501 162l44 -28
c-48.667 -77.333 -113.5 -137.333 -194.5 -180s-170.833 -64 -269.5 -64zM216 561.999h942c-8 84 -34 159.333 -78 226s-100 119.334 -168 158.001s-142.667 58 -224 58s-156.333 -19.333 -225 -58s-125 -91.334 -169 -158.001s-70 -142 -78 -226zM737 1185l-161 331l63 41
l142 -345z" />
    <glyph glyph-name="eacute" unicode="&#xe9;" horiz-adv-x="1358" 
d="M708 -32c-106.667 0 -201.167 23.832 -283.5 71.499s-146.666 112 -192.999 193s-69.5 171.833 -69.5 272.5c0 78 13.833 150.5 41.5 217.5s65.667 125.333 114 175s104.166 88.5 167.499 116.5s130.666 42 201.999 42c91.333 0 175.5 -22.333 252.5 -67
s140 -105.667 189 -183s77.167 -165 84.5 -263c0.666992 -6 1 -11.167 1 -15.5v-15.5h-1000c0 -94.667 21.167 -179.167 63.5 -253.5s100.833 -132.666 175.5 -174.999s159.667 -63.5 255 -63.5c90 0 171.833 19.333 245.5 58s131.834 92.667 174.501 162l44 -28
c-48.667 -77.333 -113.5 -137.333 -194.5 -180s-170.833 -64 -269.5 -64zM216 561.999h942c-8 84 -34 159.333 -78 226s-100 119.334 -168 158.001s-142.667 58 -224 58s-156.333 -19.333 -225 -58s-125 -91.334 -169 -158.001s-70 -142 -78 -226zM689 1185l-44 27l142 345
l63 -41z" />
    <glyph glyph-name="ecircumflex" unicode="&#xea;" horiz-adv-x="1358" 
d="M708 -32c-106.667 0 -201.167 23.832 -283.5 71.499s-146.666 112 -192.999 193s-69.5 171.833 -69.5 272.5c0 78 13.833 150.5 41.5 217.5s65.667 125.333 114 175s104.166 88.5 167.499 116.5s130.666 42 201.999 42c91.333 0 175.5 -22.333 252.5 -67
s140 -105.667 189 -183s77.167 -165 84.5 -263c0.666992 -6 1 -11.167 1 -15.5v-15.5h-1000c0 -94.667 21.167 -179.167 63.5 -253.5s100.833 -132.666 175.5 -174.999s159.667 -63.5 255 -63.5c90 0 171.833 19.333 245.5 58s131.834 92.667 174.501 162l44 -28
c-48.667 -77.333 -113.5 -137.333 -194.5 -180s-170.833 -64 -269.5 -64zM216 561.999h942c-8 84 -34 159.333 -78 226s-100 119.334 -168 158.001s-142.667 58 -224 58s-156.333 -19.333 -225 -58s-125 -91.334 -169 -158.001s-70 -142 -78 -226zM373 1392l-30 42l336 246
l336 -246l-30 -42l-306 224z" />
    <glyph glyph-name="edieresis" unicode="&#xeb;" horiz-adv-x="1358" 
d="M708 -32c-106.667 0 -201.167 23.832 -283.5 71.499s-146.666 112 -192.999 193s-69.5 171.833 -69.5 272.5c0 78 13.833 150.5 41.5 217.5s65.667 125.333 114 175s104.166 88.5 167.499 116.5s130.666 42 201.999 42c91.333 0 175.5 -22.333 252.5 -67
s140 -105.667 189 -183s77.167 -165 84.5 -263c0.666992 -6 1 -11.167 1 -15.5v-15.5h-1000c0 -94.667 21.167 -179.167 63.5 -253.5s100.833 -132.666 175.5 -174.999s159.667 -63.5 255 -63.5c90 0 171.833 19.333 245.5 58s131.834 92.667 174.501 162l44 -28
c-48.667 -77.333 -113.5 -137.333 -194.5 -180s-170.833 -64 -269.5 -64zM216 561.999h942c-8 84 -34 159.333 -78 226s-100 119.334 -168 158.001s-142.667 58 -224 58s-156.333 -19.333 -225 -58s-125 -91.334 -169 -158.001s-70 -142 -78 -226zM915 1350
c-12.667 0 -23.834 4.83301 -33.501 14.5s-14.5 20.834 -14.5 33.501c0 13.333 4.83301 24.666 14.5 33.999s20.834 14 33.501 14c13.333 0 24.666 -4.66699 33.999 -14s14 -20.666 14 -33.999c0 -12.667 -4.66699 -23.834 -14 -33.501s-20.666 -14.5 -33.999 -14.5z
M443 1350c-12.667 0 -23.834 4.83301 -33.501 14.5s-14.5 20.834 -14.5 33.501c0 13.333 4.83301 24.666 14.5 33.999s20.834 14 33.501 14c13.333 0 24.666 -4.66699 33.999 -14s14 -20.666 14 -33.999c0 -12.667 -4.66699 -23.834 -14 -33.501
s-20.666 -14.5 -33.999 -14.5z" />
    <glyph glyph-name="igrave" unicode="&#xec;" horiz-adv-x="526" 
d="M235 0v1024h56v-1024h-56zM321 1185l-161 331l63 41l142 -345z" />
    <glyph glyph-name="iacute" unicode="&#xed;" horiz-adv-x="526" 
d="M235 0v1024h56v-1024h-56zM273 1185l-44 27l142 345l63 -41z" />
    <glyph glyph-name="icircumflex" unicode="&#xee;" horiz-adv-x="526" 
d="M235 0v1024h56v-1024h-56zM-43 1392l-30 42l336 246l336 -246l-30 -42l-306 224z" />
    <glyph glyph-name="idieresis" unicode="&#xef;" horiz-adv-x="526" 
d="M235 0v1024h56v-1024h-56zM499 1350c-12.667 0 -23.834 4.83301 -33.501 14.5s-14.5 20.834 -14.5 33.501c0 13.333 4.83301 24.666 14.5 33.999s20.834 14 33.501 14c13.333 0 24.666 -4.66699 33.999 -14s14 -20.666 14 -33.999
c0 -12.667 -4.66699 -23.834 -14 -33.501s-20.666 -14.5 -33.999 -14.5zM27 1350c-12.667 0 -23.834 4.83301 -33.501 14.5s-14.5 20.834 -14.5 33.501c0 13.333 4.83301 24.666 14.5 33.999s20.834 14 33.501 14c13.333 0 24.666 -4.66699 33.999 -14
s14 -20.666 14 -33.999c0 -12.667 -4.66699 -23.834 -14 -33.501s-20.666 -14.5 -33.999 -14.5z" />
    <glyph glyph-name="eth" unicode="&#xf0;" horiz-adv-x="1446" 
d="M711 -32c-103.333 0 -196.335 23.1709 -279.002 69.5039s-148.167 110.333 -196.5 192s-72.5 175.834 -72.5 282.501c0 80.667 13.833 154.167 41.5 220.5s66.334 123.666 116.001 171.999s107.834 85.666 174.501 111.999s138.667 39.5 216 39.5
c103.333 0 196.5 -23 279.5 -69s147.833 -109 194.5 -189c-24.667 162 -70.334 303.167 -137.001 423.5s-149.667 220.5 -249 300.5l-154 -154l-40 40l148 148c-40 30 -82.667 56.667 -128 80s-92.666 44 -141.999 62l20 52c54 -20 105.167 -42.667 153.5 -68
s93.833 -54 136.5 -86l154 154l40 -40l-150 -148c70 -58 131.333 -123.833 184 -197.5s96.667 -154.834 132 -243.501s61.833 -183.834 79.5 -285.501s26.5 -209.5 26.5 -323.5c0 -106.667 -24.167 -200.834 -72.5 -282.501s-113.833 -145.667 -196.5 -192
s-175.667 -69.5 -279 -69.5zM710.998 20.0039c95.333 0 180.333 21.167 255 63.5s133.5 100.5 176.5 174.5s64.5 158.667 64.5 254s-21.5 180 -64.5 254s-101.833 132.167 -176.5 174.5s-159.667 63.5 -255 63.5c-96 0 -181.333 -21.167 -256 -63.5
s-133.334 -100.5 -176.001 -174.5s-64 -158.667 -64 -254s21.333 -180 64 -254s101.334 -132.167 176.001 -174.5s160 -63.5 256 -63.5z" />
    <glyph glyph-name="ntilde" unicode="&#xf1;" horiz-adv-x="1228" 
d="M235 0l0.000976562 1024h56v-154c21.333 50 61.166 93.5 119.499 130.5s133.5 55.5 225.5 55.5c80 0 147.833 -16 203.5 -48s98.167 -79.333 127.5 -142s44 -140 44 -232v-634h-56v627c0 123.333 -28 217 -84 281s-135.333 96 -238 96c-72 0 -133.5 -14.333 -184.5 -43
s-90 -66 -117 -112s-40.5 -95 -40.5 -147v-702h-56zM835.001 1350c-46 0 -84.999 8 -116.999 24s-61.5 34.667 -88.5 56s-55.5 40 -85.5 56s-66 24 -108 24c-56 0 -104 -15.5 -144 -46.5s-72 -67.5 -96 -109.5l-38 34c28.667 48 66.167 88.667 112.5 122s101.5 50 165.5 50
c46 0 85.167 -8 117.5 -24s62 -34.667 89 -56s55.5 -40 85.5 -56s65.667 -24 107 -24c49.333 0 94.666 13.5 135.999 40.5s76.333 65.5 105 115.5l38 -34c-22.667 -37.333 -48.5 -68.833 -77.5 -94.5s-60.5 -45 -94.5 -58s-69.667 -19.5 -107 -19.5z" />
    <glyph glyph-name="ograve" unicode="&#xf2;" horiz-adv-x="1422" 
d="M711 -32c-103.333 0 -196.333 23 -279 69s-148.167 109.833 -196.5 191.5s-72.5 176.167 -72.5 283.5s24.167 201.833 72.5 283.5s113.833 145.5 196.5 191.5s175.667 69 279 69s196.333 -23 279 -69s148.167 -109.833 196.5 -191.5s72.5 -176.167 72.5 -283.5
s-24.167 -201.833 -72.5 -283.5s-113.833 -145.5 -196.5 -191.5s-175.667 -69 -279 -69zM711 24c95.333 0 180 21 254 63s132.167 99.667 174.5 173s63.5 157.333 63.5 252s-21.167 178.667 -63.5 252s-100.5 131 -174.5 173s-158.667 63 -254 63s-180 -21 -254 -63
s-132.167 -99.667 -174.5 -173s-63.5 -157.333 -63.5 -252s21.167 -178.667 63.5 -252s100.5 -131 174.5 -173s158.667 -63 254 -63zM769 1215l-161 331l63 41l142 -345z" />
    <glyph glyph-name="oacute" unicode="&#xf3;" horiz-adv-x="1422" 
d="M711 -32c-103.333 0 -196.333 23 -279 69s-148.167 109.833 -196.5 191.5s-72.5 176.167 -72.5 283.5s24.167 201.833 72.5 283.5s113.833 145.5 196.5 191.5s175.667 69 279 69s196.333 -23 279 -69s148.167 -109.833 196.5 -191.5s72.5 -176.167 72.5 -283.5
s-24.167 -201.833 -72.5 -283.5s-113.833 -145.5 -196.5 -191.5s-175.667 -69 -279 -69zM711 24c95.333 0 180 21 254 63s132.167 99.667 174.5 173s63.5 157.333 63.5 252s-21.167 178.667 -63.5 252s-100.5 131 -174.5 173s-158.667 63 -254 63s-180 -21 -254 -63
s-132.167 -99.667 -174.5 -173s-63.5 -157.333 -63.5 -252s21.167 -178.667 63.5 -252s100.5 -131 174.5 -173s158.667 -63 254 -63zM721 1215l-44 27l142 345l63 -41z" />
    <glyph glyph-name="ocircumflex" unicode="&#xf4;" horiz-adv-x="1422" 
d="M711 -32c-103.333 0 -196.333 23 -279 69s-148.167 109.833 -196.5 191.5s-72.5 176.167 -72.5 283.5s24.167 201.833 72.5 283.5s113.833 145.5 196.5 191.5s175.667 69 279 69s196.333 -23 279 -69s148.167 -109.833 196.5 -191.5s72.5 -176.167 72.5 -283.5
s-24.167 -201.833 -72.5 -283.5s-113.833 -145.5 -196.5 -191.5s-175.667 -69 -279 -69zM711 24c95.333 0 180 21 254 63s132.167 99.667 174.5 173s63.5 157.333 63.5 252s-21.167 178.667 -63.5 252s-100.5 131 -174.5 173s-158.667 63 -254 63s-180 -21 -254 -63
s-132.167 -99.667 -174.5 -173s-63.5 -157.333 -63.5 -252s21.167 -178.667 63.5 -252s100.5 -131 174.5 -173s158.667 -63 254 -63zM405 1422l-30 42l336 246l336 -246l-30 -42l-306 224z" />
    <glyph glyph-name="otilde" unicode="&#xf5;" horiz-adv-x="1422" 
d="M711 -32c-103.333 0 -196.333 23 -279 69s-148.167 109.833 -196.5 191.5s-72.5 176.167 -72.5 283.5s24.167 201.833 72.5 283.5s113.833 145.5 196.5 191.5s175.667 69 279 69s196.333 -23 279 -69s148.167 -109.833 196.5 -191.5s72.5 -176.167 72.5 -283.5
s-24.167 -201.833 -72.5 -283.5s-113.833 -145.5 -196.5 -191.5s-175.667 -69 -279 -69zM711 24c95.333 0 180 21 254 63s132.167 99.667 174.5 173s63.5 157.333 63.5 252s-21.167 178.667 -63.5 252s-100.5 131 -174.5 173s-158.667 63 -254 63s-180 -21 -254 -63
s-132.167 -99.667 -174.5 -173s-63.5 -157.333 -63.5 -252s21.167 -178.667 63.5 -252s100.5 -131 174.5 -173s158.667 -63 254 -63zM910 1350c-46 0 -84.999 8 -116.999 24s-61.5 34.667 -88.5 56s-55.5 40 -85.5 56s-66 24 -108 24c-56 0 -104 -15.5 -144 -46.5
s-72 -67.5 -96 -109.5l-38 34c28.667 48 66.167 88.667 112.5 122s101.5 50 165.5 50c46 0 85.167 -8 117.5 -24s62 -34.667 89 -56s55.5 -40 85.5 -56s65.667 -24 107 -24c49.333 0 94.666 13.5 135.999 40.5s76.333 65.5 105 115.5l38 -34
c-22.667 -37.333 -48.5 -68.833 -77.5 -94.5s-60.5 -45 -94.5 -58s-69.667 -19.5 -107 -19.5z" />
    <glyph glyph-name="odieresis" unicode="&#xf6;" horiz-adv-x="1422" 
d="M711 -32c-103.333 0 -196.333 23 -279 69s-148.167 109.833 -196.5 191.5s-72.5 176.167 -72.5 283.5s24.167 201.833 72.5 283.5s113.833 145.5 196.5 191.5s175.667 69 279 69s196.333 -23 279 -69s148.167 -109.833 196.5 -191.5s72.5 -176.167 72.5 -283.5
s-24.167 -201.833 -72.5 -283.5s-113.833 -145.5 -196.5 -191.5s-175.667 -69 -279 -69zM711 24c95.333 0 180 21 254 63s132.167 99.667 174.5 173s63.5 157.333 63.5 252s-21.167 178.667 -63.5 252s-100.5 131 -174.5 173s-158.667 63 -254 63s-180 -21 -254 -63
s-132.167 -99.667 -174.5 -173s-63.5 -157.333 -63.5 -252s21.167 -178.667 63.5 -252s100.5 -131 174.5 -173s158.667 -63 254 -63zM947 1380c-12.667 0 -23.834 4.83301 -33.501 14.5s-14.5 20.834 -14.5 33.501c0 13.333 4.83301 24.666 14.5 33.999s20.834 14 33.501 14
c13.333 0 24.666 -4.66699 33.999 -14s14 -20.666 14 -33.999c0 -12.667 -4.66699 -23.834 -14 -33.501s-20.666 -14.5 -33.999 -14.5zM475 1380c-12.667 0 -23.834 4.83301 -33.501 14.5s-14.5 20.834 -14.5 33.501c0 13.333 4.83301 24.666 14.5 33.999
s20.834 14 33.501 14c13.333 0 24.666 -4.66699 33.999 -14s14 -20.666 14 -33.999c0 -12.667 -4.66699 -23.834 -14 -33.501s-20.666 -14.5 -33.999 -14.5z" />
    <glyph glyph-name="divide" unicode="&#xf7;" horiz-adv-x="1500" 
d="M210 806v48h1024v-48h-1024zM722 276c-12.667 0 -23.834 4.83301 -33.501 14.5s-14.5 20.834 -14.5 33.501c0 13.333 4.83301 24.666 14.5 33.999s20.834 14 33.501 14c13.333 0 24.666 -4.66699 33.999 -14s14 -20.666 14 -33.999
c0 -12.667 -4.66699 -23.834 -14 -33.501s-20.666 -14.5 -33.999 -14.5zM722 1288c-12.667 0 -23.834 4.83301 -33.501 14.5s-14.5 20.834 -14.5 33.501c0 13.333 4.83301 24.666 14.5 33.999s20.834 14 33.501 14c13.333 0 24.666 -4.66699 33.999 -14
s14 -20.666 14 -33.999c0 -12.667 -4.66699 -23.834 -14 -33.501s-20.666 -14.5 -33.999 -14.5z" />
    <glyph glyph-name="oslash" unicode="&#xf8;" horiz-adv-x="1422" 
d="M711 -32c-103.333 0 -196.333 23 -279 69s-148.167 109.833 -196.5 191.5s-72.5 176.167 -72.5 283.5s24.167 201.833 72.5 283.5s113.833 145.5 196.5 191.5s175.667 69 279 69s196.333 -23 279 -69s148.167 -109.833 196.5 -191.5s72.5 -176.167 72.5 -283.5
s-24.167 -201.833 -72.5 -283.5s-113.833 -145.5 -196.5 -191.5s-175.667 -69 -279 -69zM711 24c95.333 0 180 21 254 63s132.167 99.667 174.5 173s63.5 157.333 63.5 252s-21.167 178.667 -63.5 252s-100.5 131 -174.5 173s-158.667 63 -254 63s-180 -21 -254 -63
s-132.167 -99.667 -174.5 -173s-63.5 -157.333 -63.5 -252s21.167 -178.667 63.5 -252s100.5 -131 174.5 -173s158.667 -63 254 -63zM229 -32l892 1088h72l-892 -1088h-72z" />
    <glyph glyph-name="ugrave" unicode="&#xf9;" horiz-adv-x="1198" 
d="M599 -32c-138 0 -235.835 33.833 -293.502 101.5s-86.5 182.5 -86.5 344.5v610h56v-610c0 -141.333 24.833 -242.333 74.5 -303s132.834 -91 249.501 -91s199.834 30.333 249.501 91s74.5 161.667 74.5 303v610h56v-610c0 -162 -28.833 -276.833 -86.5 -344.5
s-155.5 -101.5 -293.5 -101.5zM656.998 1185l-161 331l63 41l142 -345z" />
    <glyph glyph-name="uacute" unicode="&#xfa;" horiz-adv-x="1198" 
d="M599 -32c-138 0 -235.835 33.833 -293.502 101.5s-86.5 182.5 -86.5 344.5v610h56v-610c0 -141.333 24.833 -242.333 74.5 -303s132.834 -91 249.501 -91s199.834 30.333 249.501 91s74.5 161.667 74.5 303v610h56v-610c0 -162 -28.833 -276.833 -86.5 -344.5
s-155.5 -101.5 -293.5 -101.5zM608.998 1185l-44 27l142 345l63 -41z" />
    <glyph glyph-name="ucircumflex" unicode="&#xfb;" horiz-adv-x="1198" 
d="M599 -32c-138 0 -235.835 33.833 -293.502 101.5s-86.5 182.5 -86.5 344.5v610h56v-610c0 -141.333 24.833 -242.333 74.5 -303s132.834 -91 249.501 -91s199.834 30.333 249.501 91s74.5 161.667 74.5 303v610h56v-610c0 -162 -28.833 -276.833 -86.5 -344.5
s-155.5 -101.5 -293.5 -101.5zM292.998 1392l-30 42l336 246l336 -246l-30 -42l-306 224z" />
    <glyph glyph-name="udieresis" unicode="&#xfc;" horiz-adv-x="1198" 
d="M599 -32c-138 0 -235.835 33.833 -293.502 101.5s-86.5 182.5 -86.5 344.5v610h56v-610c0 -141.333 24.833 -242.333 74.5 -303s132.834 -91 249.501 -91s199.834 30.333 249.501 91s74.5 161.667 74.5 303v610h56v-610c0 -162 -28.833 -276.833 -86.5 -344.5
s-155.5 -101.5 -293.5 -101.5zM834.998 1350c-12.667 0 -23.834 4.83301 -33.501 14.5s-14.5 20.834 -14.5 33.501c0 13.333 4.83301 24.666 14.5 33.999s20.834 14 33.501 14c13.333 0 24.666 -4.66699 33.999 -14s14 -20.666 14 -33.999
c0 -12.667 -4.66699 -23.834 -14 -33.501s-20.666 -14.5 -33.999 -14.5zM362.998 1350c-12.667 0 -23.834 4.83301 -33.501 14.5s-14.5 20.834 -14.5 33.501c0 13.333 4.83301 24.666 14.5 33.999s20.834 14 33.501 14c13.333 0 24.666 -4.66699 33.999 -14
s14 -20.666 14 -33.999c0 -12.667 -4.66699 -23.834 -14 -33.501s-20.666 -14.5 -33.999 -14.5z" />
    <glyph glyph-name="yacute" unicode="&#xfd;" horiz-adv-x="1216" 
d="M387 -520l208 488l-488 1056h62l456 -988l420 988h62l-660 -1544h-60zM618 1185l-44 27l142 345l63 -41z" />
    <glyph glyph-name="thorn" unicode="&#xfe;" 
d="M235 -520v2240h56v-958c41.333 90 102.333 161.5 183 214.5s172.334 79.5 275.001 79.5c96.667 0 183.834 -23.167 261.501 -69.5s139.167 -110.333 184.5 -192s68 -175.834 68 -282.501s-22.667 -200.834 -68 -282.501s-106.833 -145.667 -184.5 -192
s-164.834 -69.5 -261.501 -69.5c-102.667 0 -194.334 26.5 -275.001 79.5s-141.667 124.5 -183 214.5v-782h-56zM747 20.002c88.667 0 167.834 21 237.501 63s124.5 100 164.5 174s60 159 60 255c0 96.667 -20 182 -60 256s-94.833 131.833 -164.5 173.5
s-148.834 62.5 -237.501 62.5c-89.333 0 -168.833 -20.833 -238.5 -62.5s-124.334 -99.5 -164.001 -173.5s-59.5 -159.333 -59.5 -256c0 -96 19.833 -181 59.5 -255s94.334 -132 164.001 -174s149.167 -63 238.5 -63z" />
    <glyph glyph-name="ydieresis" unicode="&#xff;" horiz-adv-x="1216" 
d="M387 -520l208 488l-488 1056h62l456 -988l420 988h62l-660 -1544h-60zM844 1350c-12.667 0 -23.834 4.83301 -33.501 14.5s-14.5 20.834 -14.5 33.501c0 13.333 4.83301 24.666 14.5 33.999s20.834 14 33.501 14c13.333 0 24.666 -4.66699 33.999 -14
s14 -20.666 14 -33.999c0 -12.667 -4.66699 -23.834 -14 -33.501s-20.666 -14.5 -33.999 -14.5zM372 1350c-12.667 0 -23.834 4.83301 -33.501 14.5s-14.5 20.834 -14.5 33.501c0 13.333 4.83301 24.666 14.5 33.999s20.834 14 33.501 14
c13.333 0 24.666 -4.66699 33.999 -14s14 -20.666 14 -33.999c0 -12.667 -4.66699 -23.834 -14 -33.501s-20.666 -14.5 -33.999 -14.5z" />
    <glyph glyph-name="Amacron" unicode="&#x100;" horiz-adv-x="1652" 
d="M158 0l642 1650h52l642 -1650h-60l-236 610h-744l-236 -610h-60zM473 660h706l-353 922zM418 1990v46h816v-46h-816z" />
    <glyph glyph-name="amacron" unicode="&#x101;" 
d="M677 -32c-97.333 0 -184.666 23.498 -261.999 70.498s-138.333 111.5 -183 193.5s-67 175.333 -67 280c0 105.333 22.333 198.833 67 280.5s105.667 146 183 193s164.666 70.5 261.999 70.5c103.333 0 196.333 -26.167 279 -78.5s143 -124.166 181 -215.499v262h56v-1024
h-56v262c-42 -91.333 -103.667 -163.166 -185 -215.499s-173 -78.5 -275 -78.5zM681 19.998c90 0 169.667 21.001 239 63.001s123.833 100.167 163.5 174.5s59.5 159.166 59.5 254.499c0 96 -19.667 181 -59 255s-93.833 132 -163.5 174s-149.5 63 -239.5 63
c-89.333 0 -168.833 -21 -238.5 -63s-124.334 -100 -164.001 -174s-59.5 -159 -59.5 -255c0 -95.333 19.833 -180 59.5 -254s94.334 -132.167 164.001 -174.5s149.167 -63.5 238.5 -63.5zM339 1396v46h816v-46h-816z" />
    <glyph glyph-name="Abreve" unicode="&#x102;" horiz-adv-x="1652" 
d="M158 0l642 1650h52l642 -1650h-60l-236 610h-744l-236 -610h-60zM473 660h706l-353 922zM826 1988c-64.667 0 -123.999 12.667 -177.999 38s-99.5 60.833 -136.5 106.5s-62.167 98.834 -75.5 159.5l50 12c11.333 -52.667 32.833 -98.834 64.5 -138.5
c31.667 -39.667 71 -70.5 118 -92.5s99.5 -33 157.5 -33c57.333 0 109.666 11 156.999 33s86.833 52.833 118.5 92.5s53.167 85.834 64.5 138.5l50 -12c-13.333 -60.667 -38.5 -113.834 -75.5 -159.5c-37 -45.667 -82.5 -81.167 -136.5 -106.5s-113.333 -38 -178 -38z" />
    <glyph glyph-name="abreve" unicode="&#x103;" 
d="M677 -32c-97.333 0 -184.666 23.498 -261.999 70.498s-138.333 111.5 -183 193.5s-67 175.333 -67 280c0 105.333 22.333 198.833 67 280.5s105.667 146 183 193s164.666 70.5 261.999 70.5c103.333 0 196.333 -26.167 279 -78.5s143 -124.166 181 -215.499v262h56v-1024
h-56v262c-42 -91.333 -103.667 -163.166 -185 -215.499s-173 -78.5 -275 -78.5zM681 19.998c90 0 169.667 21.001 239 63.001s123.833 100.167 163.5 174.5s59.5 159.166 59.5 254.499c0 96 -19.667 181 -59 255s-93.833 132 -163.5 174s-149.5 63 -239.5 63
c-89.333 0 -168.833 -21 -238.5 -63s-124.334 -100 -164.001 -174s-59.5 -159 -59.5 -255c0 -95.333 19.833 -180 59.5 -254s94.334 -132.167 164.001 -174.5s149.167 -63.5 238.5 -63.5zM747 1394c-64.667 0 -123.999 12.667 -177.999 38s-99.5 60.833 -136.5 106.5
s-62.167 98.834 -75.5 159.501l50 12c11.333 -52.667 32.833 -98.834 64.5 -138.501s71 -70.5 118 -92.5s99.5 -33 157.5 -33c57.333 0 109.666 11 156.999 33s86.833 52.833 118.5 92.5s53.167 85.834 64.5 138.501l50 -12c-13.333 -60.667 -38.5 -113.834 -75.5 -159.501
s-82.5 -81.167 -136.5 -106.5s-113.333 -38 -178 -38z" />
    <glyph glyph-name="Aogonek" unicode="&#x104;" horiz-adv-x="1652" 
d="M158 0l642 1650h52l642 -1650h-60l-236 610h-744l-236 -610h-60zM473 660h706l-353 922zM1507 -559c-73.333 0 -133.331 22.0029 -179.998 66.0029s-70 96.667 -70 158c0 46.667 16.167 98.5 48.5 155.5s78.166 116.833 137.499 179.5h51
c-58.667 -62.667 -104.167 -123.334 -136.5 -182.001s-48.5 -109.334 -48.5 -152.001c0 -45.333 17.167 -85.5 51.5 -120.5s85.166 -52.5 152.499 -52.5c44 0 85.167 9.16699 123.5 27.5s75.833 47.833 112.5 88.5l34 -24c-30.667 -44.667 -70.667 -79.834 -120 -105.501
s-101.333 -38.5 -156 -38.5z" />
    <glyph glyph-name="aogonek" unicode="&#x105;" 
d="M677 -32c-97.333 0 -184.666 23.498 -261.999 70.498s-138.333 111.5 -183 193.5s-67 175.333 -67 280c0 105.333 22.333 198.833 67 280.5s105.667 146 183 193s164.666 70.5 261.999 70.5c103.333 0 196.333 -26.167 279 -78.5s143 -124.166 181 -215.499v262h56v-1024
h-56v262c-42 -91.333 -103.667 -163.166 -185 -215.499s-173 -78.5 -275 -78.5zM681 19.998c90 0 169.667 21.001 239 63.001s123.833 100.167 163.5 174.5s59.5 159.166 59.5 254.499c0 96 -19.667 181 -59 255s-93.833 132 -163.5 174s-149.5 63 -239.5 63
c-89.333 0 -168.833 -21 -238.5 -63s-124.334 -100 -164.001 -174s-59.5 -159 -59.5 -255c0 -95.333 19.833 -180 59.5 -254s94.334 -132.167 164.001 -174.5s149.167 -63.5 238.5 -63.5zM1206 -559.001c-73.333 0 -133.331 22.0029 -179.998 66.0029s-70 96.667 -70 158
c0 46.667 16.167 98.5 48.5 155.5s78.166 116.833 137.499 179.5h51c-58.667 -62.667 -104.167 -123.334 -136.5 -182.001s-48.5 -109.334 -48.5 -152.001c0 -45.333 17.167 -85.5 51.5 -120.5s85.166 -52.5 152.499 -52.5c44 0 85.167 9.16699 123.5 27.5
s75.833 47.833 112.5 88.5l34 -24c-30.667 -44.667 -70.667 -79.834 -120 -105.501s-101.333 -38.5 -156 -38.5z" />
    <glyph glyph-name="Cacute" unicode="&#x106;" horiz-adv-x="1652" 
d="M1001 -32c-123.333 0 -237 21.498 -341 64.498s-194.333 103.333 -271 181s-136 168.334 -178 272.001s-63 216.5 -63 338.5s21 234.833 63 338.5s101.333 194.334 178 272.001s167 138 271 181s217.667 64.5 341 64.5c104.667 0 202 -15.667 292 -47s171 -75 243 -131
l-34 -44c-66 54 -141.5 95.167 -226.5 123.5s-175.167 42.5 -270.5 42.5c-117.333 0 -224.5 -20.5 -321.5 -61.5s-180.833 -97.833 -251.5 -170.5s-125.334 -157.5 -164.001 -254.5s-58 -201.5 -58 -313.5s19.333 -216.5 58 -313.5s93.334 -181.833 164.001 -254.5
s154.5 -129.5 251.5 -170.5s204.167 -61.5 321.5 -61.5c95.333 0 185.5 14.167 270.5 42.5s160.5 69.5 226.5 123.5l34 -44c-72 -56 -153 -99.667 -243 -131s-187.333 -47 -292 -47zM1011 1839l-44 27l142 345l63 -41z" />
    <glyph glyph-name="cacute" unicode="&#x107;" horiz-adv-x="1187" 
d="M709 -32c-76.667 0 -148.167 13.333 -214.5 40s-124.333 64.334 -174 113.001s-88.334 106.167 -116.001 172.5s-41.5 139.166 -41.5 218.499c0 80 13.833 153.167 41.5 219.5s66.334 123.833 116.001 172.5s107.667 86.167 174 112.5s137.833 39.5 214.5 39.5
c68 0 132.333 -10.5 193 -31.5s114.334 -50.5 161.001 -88.5l-34 -38c-88.667 70.667 -195.334 106 -320.001 106c-95.333 0 -180.166 -21.167 -254.499 -63.5s-132.833 -100.5 -175.5 -174.5s-64 -158.667 -64 -254c0 -94 21.167 -178.167 63.5 -252.5
s100.666 -132.833 174.999 -175.5s159.833 -64 256.5 -64c60.667 0 118 9 172 27s102.333 44.333 145 79l36 -38c-48 -38 -102 -67.5 -162 -88.5s-124 -31.5 -192 -31.5zM719 1215l-44 27l142 345l63 -41z" />
    <glyph glyph-name="Cdotaccent" unicode="&#x10a;" horiz-adv-x="1652" 
d="M1001 -32c-123.333 0 -237 21.498 -341 64.498s-194.333 103.333 -271 181s-136 168.334 -178 272.001s-63 216.5 -63 338.5s21 234.833 63 338.5s101.333 194.334 178 272.001s167 138 271 181s217.667 64.5 341 64.5c104.667 0 202 -15.667 292 -47s171 -75 243 -131
l-34 -44c-66 54 -141.5 95.167 -226.5 123.5s-175.167 42.5 -270.5 42.5c-117.333 0 -224.5 -20.5 -321.5 -61.5s-180.833 -97.833 -251.5 -170.5s-125.334 -157.5 -164.001 -254.5s-58 -201.5 -58 -313.5s19.333 -216.5 58 -313.5s93.334 -181.833 164.001 -254.5
s154.5 -129.5 251.5 -170.5s204.167 -61.5 321.5 -61.5c95.333 0 185.5 14.167 270.5 42.5s160.5 69.5 226.5 123.5l34 -44c-72 -56 -153 -99.667 -243 -131s-187.333 -47 -292 -47zM1002 2078c-8.66699 0 -16.667 2.16699 -24 6.5s-13.166 10.166 -17.499 17.5
c-4.33301 7.33301 -6.5 15.333 -6.5 24s2.16699 16.5 6.5 23.5s10.166 12.667 17.499 17s15.333 6.5 24 6.5s16.5 -2.16699 23.5 -6.5s12.667 -10 17 -17s6.5 -14.833 6.5 -23.5s-2.16699 -16.667 -6.5 -24s-10 -13.166 -17 -17.5c-7 -4.33301 -14.833 -6.5 -23.5 -6.5z" />
    <glyph glyph-name="cdotaccent" unicode="&#x10b;" horiz-adv-x="1187" 
d="M709 -32c-76.667 0 -148.167 13.333 -214.5 40s-124.333 64.334 -174 113.001s-88.334 106.167 -116.001 172.5s-41.5 139.166 -41.5 218.499c0 80 13.833 153.167 41.5 219.5s66.334 123.833 116.001 172.5s107.667 86.167 174 112.5s137.833 39.5 214.5 39.5
c68 0 132.333 -10.5 193 -31.5s114.334 -50.5 161.001 -88.5l-34 -38c-88.667 70.667 -195.334 106 -320.001 106c-95.333 0 -180.166 -21.167 -254.499 -63.5s-132.833 -100.5 -175.5 -174.5s-64 -158.667 -64 -254c0 -94 21.167 -178.167 63.5 -252.5
s100.666 -132.833 174.999 -175.5s159.833 -64 256.5 -64c60.667 0 118 9 172 27s102.333 44.333 145 79l36 -38c-48 -38 -102 -67.5 -162 -88.5s-124 -31.5 -192 -31.5zM710 1454c-8.66699 0 -16.667 2.16699 -24 6.5s-13.166 10.166 -17.499 17.499s-6.5 15.333 -6.5 24
s2.16699 16.5 6.5 23.5s10.166 12.667 17.499 17s15.333 6.5 24 6.5s16.5 -2.16699 23.5 -6.5s12.667 -10 17 -17s6.5 -14.833 6.5 -23.5s-2.16699 -16.667 -6.5 -24s-10 -13.166 -17 -17.499s-14.833 -6.5 -23.5 -6.5z" />
    <glyph glyph-name="Ccaron" unicode="&#x10c;" horiz-adv-x="1652" 
d="M1001 -32c-123.333 0 -237 21.498 -341 64.498s-194.333 103.333 -271 181s-136 168.334 -178 272.001s-63 216.5 -63 338.5s21 234.833 63 338.5s101.333 194.334 178 272.001s167 138 271 181s217.667 64.5 341 64.5c104.667 0 202 -15.667 292 -47s171 -75 243 -131
l-34 -44c-66 54 -141.5 95.167 -226.5 123.5s-175.167 42.5 -270.5 42.5c-117.333 0 -224.5 -20.5 -321.5 -61.5s-180.833 -97.833 -251.5 -170.5s-125.334 -157.5 -164.001 -254.5s-58 -201.5 -58 -313.5s19.333 -216.5 58 -313.5s93.334 -181.833 164.001 -254.5
s154.5 -129.5 251.5 -170.5s204.167 -61.5 321.5 -61.5c95.333 0 185.5 14.167 270.5 42.5s160.5 69.5 226.5 123.5l34 -44c-72 -56 -153 -99.667 -243 -131s-187.333 -47 -292 -47zM1001 1906l-336 246l30 42l306 -224l306 224l30 -42z" />
    <glyph glyph-name="ccaron" unicode="&#x10d;" horiz-adv-x="1187" 
d="M709 -32c-76.667 0 -148.167 13.333 -214.5 40s-124.333 64.334 -174 113.001s-88.334 106.167 -116.001 172.5s-41.5 139.166 -41.5 218.499c0 80 13.833 153.167 41.5 219.5s66.334 123.833 116.001 172.5s107.667 86.167 174 112.5s137.833 39.5 214.5 39.5
c68 0 132.333 -10.5 193 -31.5s114.334 -50.5 161.001 -88.5l-34 -38c-88.667 70.667 -195.334 106 -320.001 106c-95.333 0 -180.166 -21.167 -254.499 -63.5s-132.833 -100.5 -175.5 -174.5s-64 -158.667 -64 -254c0 -94 21.167 -178.167 63.5 -252.5
s100.666 -132.833 174.999 -175.5s159.833 -64 256.5 -64c60.667 0 118 9 172 27s102.333 44.333 145 79l36 -38c-48 -38 -102 -67.5 -162 -88.5s-124 -31.5 -192 -31.5zM709 1282l-336 246l30 42l306 -224l306 224l30 -42z" />
    <glyph glyph-name="Dcaron" unicode="&#x10e;" horiz-adv-x="1653" 
d="M293 0l0.000976562 1650h326c117.333 0 226.5 -21 327.5 -63s189.167 -100.5 264.5 -175.5s134.166 -162.5 176.499 -262.5s63.5 -208 63.5 -324c0 -116.667 -21 -225 -63 -325s-100.833 -187.5 -176.5 -262.5s-164 -133.333 -265 -175s-210.167 -62.5 -327.5 -62.5h-326
zM349.001 50l270 -0.00292969c109.333 0 211 19.833 305 59.5s176.5 94.667 247.5 165s126.333 152.5 166 246.5s59.5 195.333 59.5 304s-19.833 209.834 -59.5 303.501s-95 175.834 -166 246.501s-153.667 125.834 -248 165.501s-195.833 59.5 -304.5 59.5h-270v-1550z
M827.001 1876l-336 246l30 42l306 -224l306 224l30 -42z" />
    <glyph glyph-name="dcaron" unicode="&#x10f;" 
d="M677 -32c-97.333 0 -184.666 23.498 -261.999 70.498s-138.333 111.5 -183 193.5s-67 175.333 -67 280c0 105.333 22.333 198.833 67 280.5s105.667 146 183 193s164.666 70.5 261.999 70.5c102 0 193.667 -26.167 275 -78.5s143 -124.166 185 -215.499v960h56v-1722h-56
v262c-42 -91.333 -103.667 -163.166 -185 -215.499s-173 -78.5 -275 -78.5zM681 19.998c90 0 169.667 21.001 239 63.001s123.833 100.167 163.5 174.5s59.5 159.166 59.5 254.499c0 96 -19.667 181 -59 255s-93.833 132 -163.5 174s-149.5 63 -239.5 63
c-89.333 0 -168.833 -21 -238.5 -63s-124.334 -100 -164.001 -174s-59.5 -159 -59.5 -255c0 -95.333 19.833 -180 59.5 -254s94.334 -132.167 164.001 -174.5s149.167 -63.5 238.5 -63.5zM657 1492l-336 246l30 42l306 -224l306 224l30 -42z" />
    <glyph glyph-name="Dcroat" unicode="&#x110;" horiz-adv-x="1682" 
d="M322 0v802.001h-164v46h164v802h326c113.333 0 220 -20.167 320 -60.5s188.5 -97.5 265.5 -171.5s137.333 -161.167 181 -261.5s65.5 -210.5 65.5 -330.5c0 -120.667 -21.833 -231.334 -65.5 -332.001s-103.834 -188 -180.501 -262s-165.167 -131.167 -265.5 -171.5
s-207.166 -60.5 -320.499 -60.5h-326zM378 50.001l270 -0.000976562c105.333 0 204.666 19 297.999 57s176.166 91.833 248.499 161.5s129 151.834 170 246.501s61.5 198.334 61.5 311.001s-20.667 216.167 -62 310.5s-98.166 176.166 -170.499 245.499
s-155.166 123 -248.499 161s-192.333 57 -297 57h-270v-752h538v-46h-538v-752z" />
    <glyph glyph-name="dcroat" unicode="&#x111;" 
d="M679 -32c-96.667 0 -183.834 23.165 -261.501 69.498s-139.167 110.333 -184.5 192s-68 175.834 -68 282.501v0c0 106.667 22.667 200.834 68 282.501s106.833 145.667 184.5 192s164.834 69.5 261.501 69.5c103.333 0 195.333 -26.5 276 -79.5
s141.334 -124.5 182.001 -214.5v586h-468v46h468v328h56v-328h200v-46h-200v-1348h-56v262c-40.667 -90 -101.334 -161.5 -182.001 -214.5s-172.667 -79.5 -276 -79.5zM681 19.998c89.333 0 168.833 21 238.5 63s124.334 100 164.001 174s59.5 159 59.5 255
c0 96.667 -19.833 182 -59.5 256s-94.334 131.833 -164.001 173.5s-149.167 62.5 -238.5 62.5c-88.667 0 -167.834 -20.833 -237.501 -62.5s-124.5 -99.5 -164.5 -173.5s-60 -159.333 -60 -256v0c0 -96 20 -181 60 -255s94.833 -132 164.5 -174s148.834 -63 237.501 -63z
" />
    <glyph glyph-name="Emacron" unicode="&#x112;" horiz-adv-x="1254" 
d="M293 0v1650h784v-50h-728v-748h704v-50h-704v-752h728v-50h-784zM298 1990v46h816v-46h-816z" />
    <glyph glyph-name="emacron" unicode="&#x113;" horiz-adv-x="1358" 
d="M708 -32c-106.667 0 -201.167 23.832 -283.5 71.499s-146.666 112 -192.999 193s-69.5 171.833 -69.5 272.5c0 78 13.833 150.5 41.5 217.5s65.667 125.333 114 175s104.166 88.5 167.499 116.5s130.666 42 201.999 42c91.333 0 175.5 -22.333 252.5 -67
s140 -105.667 189 -183s77.167 -165 84.5 -263c0.666992 -6 1 -11.167 1 -15.5v-15.5h-1000c0 -94.667 21.167 -179.167 63.5 -253.5s100.833 -132.666 175.5 -174.999s159.667 -63.5 255 -63.5c90 0 171.833 19.333 245.5 58s131.834 92.667 174.501 162l44 -28
c-48.667 -77.333 -113.5 -137.333 -194.5 -180s-170.833 -64 -269.5 -64zM216 561.999h942c-8 84 -34 159.333 -78 226s-100 119.334 -168 158.001s-142.667 58 -224 58s-156.333 -19.333 -225 -58s-125 -91.334 -169 -158.001s-70 -142 -78 -226zM271 1366v46h816v-46h-816
z" />
    <glyph glyph-name="Edotaccent" unicode="&#x116;" horiz-adv-x="1254" 
d="M293 0v1650h784v-50h-728v-748h704v-50h-704v-752h728v-50h-784zM707 2048c-8.66699 0 -16.667 2.16699 -24 6.5s-13.166 10.166 -17.499 17.5c-4.33301 7.33301 -6.5 15.333 -6.5 24s2.16699 16.5 6.5 23.5s10.166 12.667 17.499 17s15.333 6.5 24 6.5
s16.5 -2.16699 23.5 -6.5s12.667 -10 17 -17s6.5 -14.833 6.5 -23.5s-2.16699 -16.667 -6.5 -24s-10 -13.166 -17 -17.5c-7 -4.33301 -14.833 -6.5 -23.5 -6.5z" />
    <glyph glyph-name="edotaccent" unicode="&#x117;" horiz-adv-x="1358" 
d="M708 -32c-106.667 0 -201.167 23.832 -283.5 71.499s-146.666 112 -192.999 193s-69.5 171.833 -69.5 272.5c0 78 13.833 150.5 41.5 217.5s65.667 125.333 114 175s104.166 88.5 167.499 116.5s130.666 42 201.999 42c91.333 0 175.5 -22.333 252.5 -67
s140 -105.667 189 -183s77.167 -165 84.5 -263c0.666992 -6 1 -11.167 1 -15.5v-15.5h-1000c0 -94.667 21.167 -179.167 63.5 -253.5s100.833 -132.666 175.5 -174.999s159.667 -63.5 255 -63.5c90 0 171.833 19.333 245.5 58s131.834 92.667 174.501 162l44 -28
c-48.667 -77.333 -113.5 -137.333 -194.5 -180s-170.833 -64 -269.5 -64zM216 561.999h942c-8 84 -34 159.333 -78 226s-100 119.334 -168 158.001s-142.667 58 -224 58s-156.333 -19.333 -225 -58s-125 -91.334 -169 -158.001s-70 -142 -78 -226zM680 1424
c-8.66699 0 -16.667 2.16699 -24 6.5s-13.166 10.166 -17.499 17.499s-6.5 15.333 -6.5 24s2.16699 16.5 6.5 23.5s10.166 12.667 17.499 17s15.333 6.5 24 6.5s16.5 -2.16699 23.5 -6.5s12.667 -10 17 -17s6.5 -14.833 6.5 -23.5s-2.16699 -16.667 -6.5 -24
s-10 -13.166 -17 -17.499s-14.833 -6.5 -23.5 -6.5z" />
    <glyph glyph-name="Eogonek" unicode="&#x118;" horiz-adv-x="1254" 
d="M293 0v1650h784v-50h-728v-748h704v-50h-704v-752h728v-50h-784zM1090 -559c-73.333 0 -133.331 22.0029 -179.998 66.0029s-70 96.667 -70 158c0 46.667 16.167 98.5 48.5 155.5s78.166 116.833 137.499 179.5h51c-58.667 -62.667 -104.167 -123.334 -136.5 -182.001
s-48.5 -109.334 -48.5 -152.001c0 -45.333 17.167 -85.5 51.5 -120.5s85.166 -52.5 152.499 -52.5c44 0 85.167 9.16699 123.5 27.5s75.833 47.833 112.5 88.5l34 -24c-30.667 -44.667 -70.667 -79.834 -120 -105.501s-101.333 -38.5 -156 -38.5z" />
    <glyph glyph-name="eogonek" unicode="&#x119;" horiz-adv-x="1358" 
d="M708 -32c-106.667 0 -201.167 23.832 -283.5 71.499s-146.666 112 -192.999 193s-69.5 171.833 -69.5 272.5c0 78 13.833 150.5 41.5 217.5s65.667 125.333 114 175s104.166 88.5 167.499 116.5s130.666 42 201.999 42c91.333 0 175.5 -22.333 252.5 -67
s140 -105.667 189 -183s77.167 -165 84.5 -263c0.666992 -6 1 -11.167 1 -15.5v-15.5h-1000c0 -94.667 21.167 -179.167 63.5 -253.5s100.833 -132.666 175.5 -174.999s159.667 -63.5 255 -63.5c90 0 171.833 19.333 245.5 58s131.834 92.667 174.501 162l44 -28
c-48.667 -77.333 -113.5 -137.333 -194.5 -180s-170.833 -64 -269.5 -64zM216 561.999h942c-8 84 -34 159.333 -78 226s-100 119.334 -168 158.001s-142.667 58 -224 58s-156.333 -19.333 -225 -58s-125 -91.334 -169 -158.001s-70 -142 -78 -226zM748 -559.001
c-73.333 0 -133.331 22.0029 -179.998 66.0029s-70 96.667 -70 158c0 46.667 16.167 98.5 48.5 155.5s78.166 116.833 137.499 179.5h51c-58.667 -62.667 -104.167 -123.334 -136.5 -182.001s-48.5 -109.334 -48.5 -152.001c0 -45.333 17.167 -85.5 51.5 -120.5
s85.166 -52.5 152.499 -52.5c44 0 85.167 9.16699 123.5 27.5s75.833 47.833 112.5 88.5l34 -24c-30.667 -44.667 -70.667 -79.834 -120 -105.501s-101.333 -38.5 -156 -38.5z" />
    <glyph glyph-name="Ecaron" unicode="&#x11a;" horiz-adv-x="1254" 
d="M293 0v1650h784v-50h-728v-748h704v-50h-704v-752h728v-50h-784zM706 1876l-336 246l30 42l306 -224l306 224l30 -42z" />
    <glyph glyph-name="ecaron" unicode="&#x11b;" horiz-adv-x="1358" 
d="M708 -32c-106.667 0 -201.167 23.832 -283.5 71.499s-146.666 112 -192.999 193s-69.5 171.833 -69.5 272.5c0 78 13.833 150.5 41.5 217.5s65.667 125.333 114 175s104.166 88.5 167.499 116.5s130.666 42 201.999 42c91.333 0 175.5 -22.333 252.5 -67
s140 -105.667 189 -183s77.167 -165 84.5 -263c0.666992 -6 1 -11.167 1 -15.5v-15.5h-1000c0 -94.667 21.167 -179.167 63.5 -253.5s100.833 -132.666 175.5 -174.999s159.667 -63.5 255 -63.5c90 0 171.833 19.333 245.5 58s131.834 92.667 174.501 162l44 -28
c-48.667 -77.333 -113.5 -137.333 -194.5 -180s-170.833 -64 -269.5 -64zM216 561.999h942c-8 84 -34 159.333 -78 226s-100 119.334 -168 158.001s-142.667 58 -224 58s-156.333 -19.333 -225 -58s-125 -91.334 -169 -158.001s-70 -142 -78 -226zM679 1252l-336 246l30 42
l306 -224l306 224l30 -42z" />
    <glyph glyph-name="Gbreve" unicode="&#x11e;" horiz-adv-x="1958" 
d="M1020 -32c-115.333 0 -222.334 22.1709 -321.001 66.5039s-185 105.666 -259 183.999s-131.667 169.166 -173 272.499s-62 214 -62 332c0 107.333 17.833 212 53.5 314s88.334 193.833 158.001 275.5s155.334 146.667 257.001 195s218.5 72.5 350.5 72.5
c92.667 0 177.834 -12.167 255.501 -36.5s147.334 -57.666 209.001 -99.999s114.5 -90.833 158.5 -145.5l-38 -40c-65.333 81.333 -148.833 147 -250.5 197s-214.834 75 -339.501 75c-118.667 0 -224.667 -22.333 -318 -67s-172.666 -105.167 -237.999 -181.5
s-115 -162.5 -149 -258.5s-51 -195.667 -51 -299c0 -111.333 19.167 -215.833 57.5 -313.5s91.666 -183.334 159.999 -257.001s148.166 -131.334 239.499 -173.001s189.666 -62.5 294.999 -62.5c86 0 170.5 14.333 253.5 43s158.167 70.334 225.5 125.001
s121 120.667 161 198s60 164.666 60 261.999v76h-706v52h764v-90c0 -126 -22.667 -234.167 -68 -324.5s-105 -164.333 -179 -222s-155.333 -100.334 -244 -128.001s-176 -41.5 -262 -41.5zM1029 1988c-64.667 0 -123.999 12.667 -177.999 38s-99.5 60.833 -136.5 106.5
s-62.167 98.834 -75.5 159.5l50 12c11.333 -52.667 32.833 -98.834 64.5 -138.5c31.667 -39.667 71 -70.5 118 -92.5s99.5 -33 157.5 -33c57.333 0 109.666 11 156.999 33s86.833 52.833 118.5 92.5s53.167 85.834 64.5 138.5l50 -12
c-13.333 -60.667 -38.5 -113.834 -75.5 -159.5c-37 -45.667 -82.5 -81.167 -136.5 -106.5s-113.333 -38 -178 -38z" />
    <glyph glyph-name="gbreve" unicode="&#x11f;" horiz-adv-x="1429" 
d="M662 -550c-124 0 -229.335 25.498 -316.002 76.498s-152 124.833 -196 221.5l52 20c34 -82.667 92.333 -148.667 175 -198s178.334 -74 287.001 -74c89.333 0 169.833 17.667 241.5 53s128.334 87 170.001 155s62.5 150.667 62.5 248v310
c-42 -91.333 -103.667 -163.166 -185 -215.499s-173 -78.5 -275 -78.5c-97.333 0 -184.666 23.5 -261.999 70.5s-138.333 111.5 -183 193.5s-67 175.333 -67 280c0 105.333 22.333 198.833 67 280.5s105.667 146 183 193s164.666 70.5 261.999 70.5
c102 0 193.667 -26.167 275 -78.5s143 -124.166 185 -215.499v262h56v-1052c0 -120 -22.833 -218.5 -68.5 -295.5s-108.5 -134 -188.5 -171s-171.667 -55.5 -275 -55.5zM681.998 19.998c90 0 169.667 21.001 239 63.001s123.833 100.167 163.5 174.5
s59.5 159.166 59.5 254.499c0 96 -19.667 181 -59 255s-93.833 132 -163.5 174s-149.5 63 -239.5 63c-89.333 0 -168.833 -21 -238.5 -63s-124.334 -100 -164.001 -174s-59.5 -159 -59.5 -255c0 -95.333 19.833 -180 59.5 -254s94.334 -132.167 164.001 -174.5
s149.167 -63.5 238.5 -63.5zM677.998 1394c-64.667 0 -123.999 12.667 -177.999 38s-99.5 60.833 -136.5 106.5s-62.167 98.834 -75.5 159.501l50 12c11.333 -52.667 32.833 -98.834 64.5 -138.501s71 -70.5 118 -92.5s99.5 -33 157.5 -33c57.333 0 109.666 11 156.999 33
s86.833 52.833 118.5 92.5s53.167 85.834 64.5 138.501l50 -12c-13.333 -60.667 -38.5 -113.834 -75.5 -159.501s-82.5 -81.167 -136.5 -106.5s-113.333 -38 -178 -38z" />
    <glyph glyph-name="Gdotaccent" unicode="&#x120;" horiz-adv-x="1958" 
d="M1020 -32c-115.333 0 -222.334 22.1709 -321.001 66.5039s-185 105.666 -259 183.999s-131.667 169.166 -173 272.499s-62 214 -62 332c0 107.333 17.833 212 53.5 314s88.334 193.833 158.001 275.5s155.334 146.667 257.001 195s218.5 72.5 350.5 72.5
c92.667 0 177.834 -12.167 255.501 -36.5s147.334 -57.666 209.001 -99.999s114.5 -90.833 158.5 -145.5l-38 -40c-65.333 81.333 -148.833 147 -250.5 197s-214.834 75 -339.501 75c-118.667 0 -224.667 -22.333 -318 -67s-172.666 -105.167 -237.999 -181.5
s-115 -162.5 -149 -258.5s-51 -195.667 -51 -299c0 -111.333 19.167 -215.833 57.5 -313.5s91.666 -183.334 159.999 -257.001s148.166 -131.334 239.499 -173.001s189.666 -62.5 294.999 -62.5c86 0 170.5 14.333 253.5 43s158.167 70.334 225.5 125.001
s121 120.667 161 198s60 164.666 60 261.999v76h-706v52h764v-90c0 -126 -22.667 -234.167 -68 -324.5s-105 -164.333 -179 -222s-155.333 -100.334 -244 -128.001s-176 -41.5 -262 -41.5zM1030 2048c-8.66699 0 -16.667 2.16699 -24 6.5s-13.166 10.166 -17.499 17.5
c-4.33301 7.33301 -6.5 15.333 -6.5 24s2.16699 16.5 6.5 23.5s10.166 12.667 17.499 17s15.333 6.5 24 6.5s16.5 -2.16699 23.5 -6.5s12.667 -10 17 -17s6.5 -14.833 6.5 -23.5s-2.16699 -16.667 -6.5 -24s-10 -13.166 -17 -17.5c-7 -4.33301 -14.833 -6.5 -23.5 -6.5z" />
    <glyph glyph-name="gdotaccent" unicode="&#x121;" horiz-adv-x="1429" 
d="M662 -550c-124 0 -229.335 25.498 -316.002 76.498s-152 124.833 -196 221.5l52 20c34 -82.667 92.333 -148.667 175 -198s178.334 -74 287.001 -74c89.333 0 169.833 17.667 241.5 53s128.334 87 170.001 155s62.5 150.667 62.5 248v310
c-42 -91.333 -103.667 -163.166 -185 -215.499s-173 -78.5 -275 -78.5c-97.333 0 -184.666 23.5 -261.999 70.5s-138.333 111.5 -183 193.5s-67 175.333 -67 280c0 105.333 22.333 198.833 67 280.5s105.667 146 183 193s164.666 70.5 261.999 70.5
c102 0 193.667 -26.167 275 -78.5s143 -124.166 185 -215.499v262h56v-1052c0 -120 -22.833 -218.5 -68.5 -295.5s-108.5 -134 -188.5 -171s-171.667 -55.5 -275 -55.5zM681.998 19.998c90 0 169.667 21.001 239 63.001s123.833 100.167 163.5 174.5
s59.5 159.166 59.5 254.499c0 96 -19.667 181 -59 255s-93.833 132 -163.5 174s-149.5 63 -239.5 63c-89.333 0 -168.833 -21 -238.5 -63s-124.334 -100 -164.001 -174s-59.5 -159 -59.5 -255c0 -95.333 19.833 -180 59.5 -254s94.334 -132.167 164.001 -174.5
s149.167 -63.5 238.5 -63.5zM678.998 1454c-8.66699 0 -16.667 2.16699 -24 6.5s-13.166 10.166 -17.499 17.499s-6.5 15.333 -6.5 24s2.16699 16.5 6.5 23.5s10.166 12.667 17.499 17s15.333 6.5 24 6.5s16.5 -2.16699 23.5 -6.5s12.667 -10 17 -17s6.5 -14.833 6.5 -23.5
s-2.16699 -16.667 -6.5 -24s-10 -13.166 -17 -17.499s-14.833 -6.5 -23.5 -6.5z" />
    <glyph glyph-name="uni0122" unicode="&#x122;" horiz-adv-x="1958" 
d="M1020 -32c-115.333 0 -222.334 22.1709 -321.001 66.5039s-185 105.666 -259 183.999s-131.667 169.166 -173 272.499s-62 214 -62 332c0 107.333 17.833 212 53.5 314s88.334 193.833 158.001 275.5s155.334 146.667 257.001 195s218.5 72.5 350.5 72.5
c92.667 0 177.834 -12.167 255.501 -36.5s147.334 -57.666 209.001 -99.999s114.5 -90.833 158.5 -145.5l-38 -40c-65.333 81.333 -148.833 147 -250.5 197s-214.834 75 -339.501 75c-118.667 0 -224.667 -22.333 -318 -67s-172.666 -105.167 -237.999 -181.5
s-115 -162.5 -149 -258.5s-51 -195.667 -51 -299c0 -111.333 19.167 -215.833 57.5 -313.5s91.666 -183.334 159.999 -257.001s148.166 -131.334 239.499 -173.001s189.666 -62.5 294.999 -62.5c86 0 170.5 14.333 253.5 43s158.167 70.334 225.5 125.001
s121 120.667 161 198s60 164.666 60 261.999v76h-706v52h764v-90c0 -126 -22.667 -234.167 -68 -324.5s-105 -164.333 -179 -222s-155.333 -100.334 -244 -128.001s-176 -41.5 -262 -41.5zM1019 -443.996l-12.999 12c15.333 23.333 26.666 49.166 33.999 77.499
s11 61.833 11 100.5c-16 0 -29.833 5.83301 -41.5 17.5s-17.5 25.5 -17.5 41.5c0 17.333 5.5 31.5 16.5 42.5s25.5 16.5 43.5 16.5c19.333 0 33.833 -6.83301 43.5 -20.5s14.5 -35.167 14.5 -64.5c0 -40.667 -9.33301 -83.667 -28 -129s-39.667 -76.666 -63 -93.999z" />
    <glyph glyph-name="uni0123" unicode="&#x123;" horiz-adv-x="1429" 
d="M662 -550c-124 0 -229.335 25.498 -316.002 76.498s-152 124.833 -196 221.5l52 20c34 -82.667 92.333 -148.667 175 -198s178.334 -74 287.001 -74c89.333 0 169.833 17.667 241.5 53s128.334 87 170.001 155s62.5 150.667 62.5 248v310
c-42 -91.333 -103.667 -163.166 -185 -215.499s-173 -78.5 -275 -78.5c-97.333 0 -184.666 23.5 -261.999 70.5s-138.333 111.5 -183 193.5s-67 175.333 -67 280c0 105.333 22.333 198.833 67 280.5s105.667 146 183 193s164.666 70.5 261.999 70.5
c102 0 193.667 -26.167 275 -78.5s143 -124.166 185 -215.499v262h56v-1052c0 -120 -22.833 -218.5 -68.5 -295.5s-108.5 -134 -188.5 -171s-171.667 -55.5 -275 -55.5zM681.998 19.998c90 0 169.667 21.001 239 63.001s123.833 100.167 163.5 174.5
s59.5 159.166 59.5 254.499c0 96 -19.667 181 -59 255s-93.833 132 -163.5 174s-149.5 63 -239.5 63c-89.333 0 -168.833 -21 -238.5 -63s-124.334 -100 -164.001 -174s-59.5 -159 -59.5 -255c0 -95.333 19.833 -180 59.5 -254s94.334 -132.167 164.001 -174.5
s149.167 -63.5 238.5 -63.5zM676.998 1394c-16 0 -27.8311 5.66699 -35.498 17s-11.5 28.666 -11.5 51.999c0 33.333 7.66699 68.333 23 105s32.333 62 51 76l10 -10c-12.667 -18.667 -21.834 -39.5 -27.501 -62.5s-8.5 -50.167 -8.5 -81.5
c13.333 0 24.666 -4.66699 33.999 -14s14 -20.666 14 -33.999c0 -14 -4.5 -25.5 -13.5 -34.5s-20.833 -13.5 -35.5 -13.5z" />
    <glyph glyph-name="Hbar" unicode="&#x126;" horiz-adv-x="1758" 
d="M293 0v1650h56v-828h1060v828h56v-1650h-56v772h-1060v-772h-56zM158 1070v50h1458v-50h-1458z" />
    <glyph glyph-name="hbar" unicode="&#x127;" horiz-adv-x="1228" 
d="M235 0l0.000976562 1722h56v-852c21.333 50 61.166 93.5 119.499 130.5s133.5 55.5 225.5 55.5c80 0 147.833 -16 203.5 -48s98.167 -79.333 127.5 -142s44 -140 44 -232v-634h-56v627c0 123.333 -28 217.333 -84 282s-135.333 97 -238 97
c-72 0 -133.5 -14.5 -184.5 -43.5s-90 -66.667 -117 -113s-40.5 -95.5 -40.5 -147.5v-702h-56zM92.001 1338v52h414v-52h-414z" />
    <glyph glyph-name="Imacron" unicode="&#x12a;" horiz-adv-x="642" 
d="M293 0v1650h56v-1650h-56zM-87 1990v46h816v-46h-816z" />
    <glyph glyph-name="imacron" unicode="&#x12b;" horiz-adv-x="526" 
d="M235 0v1024h56v-1024h-56zM-145 1366v46h816v-46h-816z" />
    <glyph glyph-name="Iogonek" unicode="&#x12e;" horiz-adv-x="642" 
d="M293 0v1650h56v-1650h-56zM362 -559c-73.333 0 -133.331 22.0029 -179.998 66.0029s-70 96.667 -70 158c0 46.667 16.167 98.5 48.5 155.5s78.166 116.833 137.499 179.5h51c-58.667 -62.667 -104.167 -123.334 -136.5 -182.001s-48.5 -109.334 -48.5 -152.001
c0 -45.333 17.167 -85.5 51.5 -120.5s85.166 -52.5 152.499 -52.5c44 0 85.167 9.16699 123.5 27.5s75.833 47.833 112.5 88.5l34 -24c-30.667 -44.667 -70.667 -79.834 -120 -105.501s-101.333 -38.5 -156 -38.5z" />
    <glyph glyph-name="iogonek" unicode="&#x12f;" horiz-adv-x="526" 
d="M235 0v1024h56v-1024h-56zM264 1424c-8.66699 0 -16.667 2.16699 -24 6.5s-13.166 10.166 -17.499 17.499s-6.5 15.333 -6.5 24s2.16699 16.5 6.5 23.5s10.166 12.667 17.499 17s15.333 6.5 24 6.5s16.5 -2.16699 23.5 -6.5s12.667 -10 17 -17s6.5 -14.833 6.5 -23.5
s-2.16699 -16.667 -6.5 -24s-10 -13.166 -17 -17.499s-14.833 -6.5 -23.5 -6.5zM304 -559c-73.333 0 -133.331 22.0029 -179.998 66.0029s-70 96.667 -70 158c0 46.667 16.167 98.5 48.5 155.5s78.166 116.833 137.499 179.5h51
c-58.667 -62.667 -104.167 -123.334 -136.5 -182.001s-48.5 -109.334 -48.5 -152.001c0 -45.333 17.167 -85.5 51.5 -120.5s85.166 -52.5 152.499 -52.5c44 0 85.167 9.16699 123.5 27.5s75.833 47.833 112.5 88.5l34 -24c-30.667 -44.667 -70.667 -79.834 -120 -105.501
s-101.333 -38.5 -156 -38.5z" />
    <glyph glyph-name="Idotaccent" unicode="&#x130;" horiz-adv-x="642" 
d="M293 0v1650h56v-1650h-56zM322 2048c-8.66699 0 -16.667 2.16699 -24 6.5s-13.166 10.166 -17.499 17.5c-4.33301 7.33301 -6.5 15.333 -6.5 24s2.16699 16.5 6.5 23.5s10.166 12.667 17.499 17s15.333 6.5 24 6.5s16.5 -2.16699 23.5 -6.5s12.667 -10 17 -17
s6.5 -14.833 6.5 -23.5s-2.16699 -16.667 -6.5 -24s-10 -13.166 -17 -17.5c-7 -4.33301 -14.833 -6.5 -23.5 -6.5z" />
    <glyph glyph-name="dotlessi" unicode="&#x131;" horiz-adv-x="526" 
d="M235 0v1024h56v-1024h-56z" />
    <glyph glyph-name="uni0136" unicode="&#x136;" horiz-adv-x="1429" 
d="M293 0v1650h56v-794l816 794h78l-854 -830l929 -820h-83l-886 778v-778h-56zM699 -444l-12.999 12c15.333 23.333 26.666 49.166 33.999 77.499s11 61.833 11 100.5c-16 0 -29.833 5.83301 -41.5 17.5s-17.5 25.5 -17.5 41.5c0 17.333 5.5 31.5 16.5 42.5
s25.5 16.5 43.5 16.5c19.333 0 33.833 -6.83301 43.5 -20.5s14.5 -35.167 14.5 -64.5c0 -40.667 -9.33301 -83.667 -28 -129s-39.667 -76.666 -63 -93.999z" />
    <glyph glyph-name="uni0137" unicode="&#x137;" horiz-adv-x="994" 
d="M235 0v1720h56v-1140l426 444h74l-447 -470l473 -554h-72l-454 531v-531h-56zM465 -444l-12.999 12c15.333 23.333 26.666 49.166 33.999 77.499s11 61.833 11 100.5c-16 0 -29.833 5.83301 -41.5 17.5s-17.5 25.5 -17.5 41.5c0 17.333 5.5 31.5 16.5 42.5
s25.5 16.5 43.5 16.5c19.333 0 33.833 -6.83301 43.5 -20.5s14.5 -35.167 14.5 -64.5c0 -40.667 -9.33301 -83.667 -28 -129s-39.667 -76.666 -63 -93.999z" />
    <glyph glyph-name="Lacute" unicode="&#x139;" horiz-adv-x="1245" 
d="M293 0v1650h56v-1600h744v-50h-800zM633 1809l-44 27l142 345l63 -41z" />
    <glyph glyph-name="lacute" unicode="&#x13a;" horiz-adv-x="526" 
d="M235 0v1720h56v-1720h-56zM273 1879l-44 27l142 345l63 -41z" />
    <glyph glyph-name="uni013B" unicode="&#x13b;" horiz-adv-x="1245" 
d="M293 0v1650h56v-1600h744v-50h-800zM591 -444l-12.999 12c15.333 23.333 26.666 49.166 33.999 77.499s11 61.833 11 100.5c-16 0 -29.833 5.83301 -41.5 17.5s-17.5 25.5 -17.5 41.5c0 17.333 5.5 31.5 16.5 42.5s25.5 16.5 43.5 16.5
c19.333 0 33.833 -6.83301 43.5 -20.5s14.5 -35.167 14.5 -64.5c0 -40.667 -9.33301 -83.667 -28 -129s-39.667 -76.666 -63 -93.999z" />
    <glyph glyph-name="uni013C" unicode="&#x13c;" horiz-adv-x="526" 
d="M235 0v1720h56v-1720h-56zM231 -444l-12.999 12c15.333 23.333 26.666 49.166 33.999 77.499s11 61.833 11 100.5c-16 0 -29.833 5.83301 -41.5 17.5s-17.5 25.5 -17.5 41.5c0 17.333 5.5 31.5 16.5 42.5s25.5 16.5 43.5 16.5c19.333 0 33.833 -6.83301 43.5 -20.5
s14.5 -35.167 14.5 -64.5c0 -40.667 -9.33301 -83.667 -28 -129s-39.667 -76.666 -63 -93.999z" />
    <glyph glyph-name="Lcaron" unicode="&#x13d;" horiz-adv-x="1245" 
d="M293 0v1650h56v-1600h744v-50h-800zM623 1876l-336 246l30 42l306 -224l306 224l30 -42z" />
    <glyph glyph-name="lcaron" unicode="&#x13e;" horiz-adv-x="526" 
d="M235 0v1720h56v-1720h-56zM263 1946l-336 246l30 42l306 -224l306 224l30 -42z" />
    <glyph glyph-name="Lslash" unicode="&#x141;" horiz-adv-x="1276" 
d="M326 0v742l-168 -132v46l168 132v862h56v-818l216 170v-46l-216 -170v-736h742v-50h-798z" />
    <glyph glyph-name="lslash" unicode="&#x142;" horiz-adv-x="600" 
d="M303 0v882l-192 -150v56l192 150v782h56v-736l192 150v-56l-192 -150v-928h-56z" />
    <glyph glyph-name="Nacute" unicode="&#x143;" horiz-adv-x="1682" 
d="M293 0v1650h56l984 -1548v1548h56v-1650h-56l-984 1546v-1546h-56zM851 1809l-44 27l142 345l63 -41z" />
    <glyph glyph-name="nacute" unicode="&#x144;" horiz-adv-x="1228" 
d="M235 0l0.000976562 1024h56v-154c21.333 50 61.166 93.5 119.499 130.5s133.5 55.5 225.5 55.5c80 0 147.833 -16 203.5 -48s98.167 -79.333 127.5 -142s44 -140 44 -232v-634h-56v627c0 123.333 -28 217 -84 281s-135.333 96 -238 96c-72 0 -133.5 -14.333 -184.5 -43
s-90 -66 -117 -112s-40.5 -95 -40.5 -147v-702h-56zM646.001 1215l-44 27l142 345l63 -41z" />
    <glyph glyph-name="uni0145" unicode="&#x145;" horiz-adv-x="1682" 
d="M293 0v1650h56l984 -1548v1548h56v-1650h-56l-984 1546v-1546h-56zM809 -444l-12.999 12c15.333 23.333 26.666 49.166 33.999 77.499s11 61.833 11 100.5c-16 0 -29.833 5.83301 -41.5 17.5s-17.5 25.5 -17.5 41.5c0 17.333 5.5 31.5 16.5 42.5s25.5 16.5 43.5 16.5
c19.333 0 33.833 -6.83301 43.5 -20.5s14.5 -35.167 14.5 -64.5c0 -40.667 -9.33301 -83.667 -28 -129s-39.667 -76.666 -63 -93.999z" />
    <glyph glyph-name="uni0146" unicode="&#x146;" horiz-adv-x="1228" 
d="M235 0l0.000976562 1024h56v-154c21.333 50 61.166 93.5 119.499 130.5s133.5 55.5 225.5 55.5c80 0 147.833 -16 203.5 -48s98.167 -79.333 127.5 -142s44 -140 44 -232v-634h-56v627c0 123.333 -28 217 -84 281s-135.333 96 -238 96c-72 0 -133.5 -14.333 -184.5 -43
s-90 -66 -117 -112s-40.5 -95 -40.5 -147v-702h-56zM582.001 -444l-12.999 12c15.333 23.333 26.666 49.166 33.999 77.499s11 61.833 11 100.5c-16 0 -29.833 5.83301 -41.5 17.5s-17.5 25.5 -17.5 41.5c0 17.333 5.5 31.5 16.5 42.5s25.5 16.5 43.5 16.5
c19.333 0 33.833 -6.83301 43.5 -20.5s14.5 -35.167 14.5 -64.5c0 -40.667 -9.33301 -83.667 -28 -129s-39.667 -76.666 -63 -93.999z" />
    <glyph glyph-name="Ncaron" unicode="&#x147;" horiz-adv-x="1682" 
d="M293 0v1650h56l984 -1548v1548h56v-1650h-56l-984 1546v-1546h-56zM841 1876l-336 246l30 42l306 -224l306 224l30 -42z" />
    <glyph glyph-name="ncaron" unicode="&#x148;" horiz-adv-x="1228" 
d="M235 0l0.000976562 1024h56v-154c21.333 50 61.166 93.5 119.499 130.5s133.5 55.5 225.5 55.5c80 0 147.833 -16 203.5 -48s98.167 -79.333 127.5 -142s44 -140 44 -232v-634h-56v627c0 123.333 -28 217 -84 281s-135.333 96 -238 96c-72 0 -133.5 -14.333 -184.5 -43
s-90 -66 -117 -112s-40.5 -95 -40.5 -147v-702h-56zM636.001 1282l-336 246l30 42l306 -224l306 224l30 -42z" />
    <glyph glyph-name="Eng" unicode="&#x14a;" horiz-adv-x="1665" 
d="M897 -551c-77.333 0 -145.499 12.1689 -204.499 36.502s-114.167 62.833 -165.5 115.5l34 47c49.333 -52.667 102.5 -90.334 159.5 -113.001s117.833 -34 182.5 -34c140.667 0 247.5 41.667 320.5 125s109.5 197.666 109.5 342.999v31l-984 1546v-1546h-56v1650h56
l984 -1548v1548h56v-1705c0 -155.333 -43.333 -276.833 -130 -364.5s-207.334 -131.5 -362.001 -131.5z" />
    <glyph glyph-name="eng" unicode="&#x14b;" horiz-adv-x="1226" 
d="M776 -550c-30.667 0 -58.501 3.99902 -83.501 11.999s-46.167 19.333 -63.5 34l16 44c30 -28 72 -42 126 -42c122.667 0 184 79.333 184 238v886c0 68 -12.5 131.167 -37.5 189.5s-61.833 105.333 -110.5 141s-109 53.5 -181 53.5
c-57.333 0 -111.666 -12.333 -162.999 -37s-92.833 -59.667 -124.5 -105s-47.5 -99.333 -47.5 -162v-702h-56v1024h56v-154c22 54.667 63.667 99.334 125 134.001s130.666 52 207.999 52c78.667 0 146.834 -18 204.501 -54s102.5 -85.333 134.5 -148s48 -134 48 -214v-894
c0 -98.667 -19.5 -172.667 -58.5 -222s-97.833 -74 -176.5 -74z" />
    <glyph glyph-name="Omacron" unicode="&#x14c;" horiz-adv-x="2070" 
d="M1035 -32c-115.333 0 -223.333 22 -324 66s-189 105.167 -265 183.5s-135.5 169.333 -178.5 273s-64.5 214.834 -64.5 333.501c0 119.333 21.5 230.666 64.5 333.999s102.5 194.166 178.5 272.499s164.333 139.5 265 183.5s208.667 66 324 66s223.333 -22 324 -66
s189 -105.167 265 -183.5s135.5 -169.166 178.5 -272.499s64.5 -214.666 64.5 -333.999c0 -118.667 -21.5 -229.834 -64.5 -333.501s-102.5 -194.667 -178.5 -273s-164.333 -139.5 -265 -183.5s-208.667 -66 -324 -66zM1035 22c107.333 0 207.666 20.667 300.999 62
s175.166 98.833 245.499 172.5s125.5 159 165.5 256s60 200.833 60 311.5c0 111.333 -20 215.333 -60 312s-95.167 181.834 -165.5 255.501s-152.166 131.167 -245.499 172.5s-193.666 62 -300.999 62c-106.667 0 -206.834 -20.667 -300.501 -62
s-175.667 -98.833 -246 -172.5s-125.5 -158.834 -165.5 -255.501s-60 -200.667 -60 -312c0 -110.667 20 -214.5 60 -311.5s95.167 -182.333 165.5 -256s152.333 -131.167 246 -172.5s193.834 -62 300.501 -62zM627 1990v46h816v-46h-816z" />
    <glyph glyph-name="omacron" unicode="&#x14d;" horiz-adv-x="1422" 
d="M711 -32c-103.333 0 -196.333 23 -279 69s-148.167 109.833 -196.5 191.5s-72.5 176.167 -72.5 283.5s24.167 201.833 72.5 283.5s113.833 145.5 196.5 191.5s175.667 69 279 69s196.333 -23 279 -69s148.167 -109.833 196.5 -191.5s72.5 -176.167 72.5 -283.5
s-24.167 -201.833 -72.5 -283.5s-113.833 -145.5 -196.5 -191.5s-175.667 -69 -279 -69zM711 24c95.333 0 180 21 254 63s132.167 99.667 174.5 173s63.5 157.333 63.5 252s-21.167 178.667 -63.5 252s-100.5 131 -174.5 173s-158.667 63 -254 63s-180 -21 -254 -63
s-132.167 -99.667 -174.5 -173s-63.5 -157.333 -63.5 -252s21.167 -178.667 63.5 -252s100.5 -131 174.5 -173s158.667 -63 254 -63zM303 1396v46h816v-46h-816z" />
    <glyph glyph-name="Ohungarumlaut" unicode="&#x150;" horiz-adv-x="2070" 
d="M1035 -32c-115.333 0 -223.333 22 -324 66s-189 105.167 -265 183.5s-135.5 169.333 -178.5 273s-64.5 214.834 -64.5 333.501c0 119.333 21.5 230.666 64.5 333.999s102.5 194.166 178.5 272.499s164.333 139.5 265 183.5s208.667 66 324 66s223.333 -22 324 -66
s189 -105.167 265 -183.5s135.5 -169.166 178.5 -272.499s64.5 -214.666 64.5 -333.999c0 -118.667 -21.5 -229.834 -64.5 -333.501s-102.5 -194.667 -178.5 -273s-164.333 -139.5 -265 -183.5s-208.667 -66 -324 -66zM1035 22c107.333 0 207.666 20.667 300.999 62
s175.166 98.833 245.499 172.5s125.5 159 165.5 256s60 200.833 60 311.5c0 111.333 -20 215.333 -60 312s-95.167 181.834 -165.5 255.501s-152.166 131.167 -245.499 172.5s-193.666 62 -300.999 62c-106.667 0 -206.834 -20.667 -300.501 -62
s-175.667 -98.833 -246 -172.5s-125.5 -158.834 -165.5 -255.501s-60 -200.667 -60 -312c0 -110.667 20 -214.5 60 -311.5s95.167 -182.333 165.5 -256s152.333 -131.167 246 -172.5s193.834 -62 300.501 -62zM1148 2092l-43 42l165 170l66 -62zM876 2092l-43 42l167 170
l64 -62z" />
    <glyph glyph-name="ohungarumlaut" unicode="&#x151;" horiz-adv-x="1422" 
d="M711 -32c-103.333 0 -196.333 23 -279 69s-148.167 109.833 -196.5 191.5s-72.5 176.167 -72.5 283.5s24.167 201.833 72.5 283.5s113.833 145.5 196.5 191.5s175.667 69 279 69s196.333 -23 279 -69s148.167 -109.833 196.5 -191.5s72.5 -176.167 72.5 -283.5
s-24.167 -201.833 -72.5 -283.5s-113.833 -145.5 -196.5 -191.5s-175.667 -69 -279 -69zM711 24c95.333 0 180 21 254 63s132.167 99.667 174.5 173s63.5 157.333 63.5 252s-21.167 178.667 -63.5 252s-100.5 131 -174.5 173s-158.667 63 -254 63s-180 -21 -254 -63
s-132.167 -99.667 -174.5 -173s-63.5 -157.333 -63.5 -252s21.167 -178.667 63.5 -252s100.5 -131 174.5 -173s158.667 -63 254 -63zM824 1498l-43 42l165 170l66 -62zM552 1498l-43 42l167 170l64 -62z" />
    <glyph glyph-name="OE" unicode="&#x152;" horiz-adv-x="1989" 
d="M1028 0c-118 0 -227.166 21 -327.499 63s-187.833 100.333 -262.5 175s-132.667 161.834 -174 261.501s-62 207.5 -62 323.5c0 117.333 21.167 226.166 63.5 326.499s101.166 188 176.499 263s163 133.333 263 175s207.667 62.5 323 62.5h784v-50h-728v-748h704v-50h-704
v-752h728v-50h-784zM1028 52l0.000976562 1546c-106.667 0 -206.5 -19.667 -299.5 -59s-174.333 -94 -244 -164s-124.167 -152 -163.5 -246s-59 -196 -59 -306c0 -108.667 19.167 -209.667 57.5 -303s92.166 -175 161.499 -245s150.5 -124.667 243.5 -164
s194.167 -59 303.5 -59z" />
    <glyph glyph-name="oe" unicode="&#x153;" horiz-adv-x="2395" 
d="M711 -32c-103.333 0 -196.333 22.999 -279 68.999s-148.167 110 -196.5 192s-72.5 176.333 -72.5 283c0 107.333 24.167 201.833 72.5 283.5s113.833 145.5 196.5 191.5s175.667 69 279 69c122 0 230.167 -32.167 324.5 -96.5s159.5 -151.5 195.5 -261.5
c24 70 60.5 132 109.5 186s106.5 96.167 172.5 126.5s136.667 45.5 212 45.5c96 0 183.5 -24 262.5 -72s142.333 -112.333 190 -193s72.167 -170.334 73.5 -269.001v-6v-4h-1000c0 -94.667 21.167 -179.167 63.5 -253.5s100.833 -132.666 175.5 -174.999
s159.667 -63.5 255 -63.5c90 0 171.833 19.333 245.5 58s131.834 92.667 174.501 162l44 -28c-48.667 -76.667 -113.667 -136.5 -195 -179.5s-171 -64.5 -269 -64.5c-120.667 0 -227.5 31.833 -320.5 95.5s-158.167 149.834 -195.5 258.501
c-36.667 -108 -101.834 -194 -195.501 -258s-201.167 -96 -322.5 -96zM711 19.999c96 0 181.333 21.167 256 63.5s133.334 100.5 176.001 174.5s64 158.667 64 254s-21.333 180 -64 254s-101.334 132.167 -176.001 174.5s-160 63.5 -256 63.5
c-95.333 0 -180.5 -21.167 -255.5 -63.5s-133.833 -100.5 -176.5 -174.5s-64 -158.667 -64 -254s21.333 -180 64 -254s101.5 -132.167 176.5 -174.5s160.167 -63.5 255.5 -63.5zM1253 561.999h942c-8 83.333 -33.833 158.333 -77.5 225s-99.5 119.5 -167.5 158.5
s-143 58.5 -225 58.5c-81.333 0 -156.333 -19.5 -225 -58.5s-125 -91.833 -169 -158.5s-70 -141.667 -78 -225z" />
    <glyph glyph-name="Racute" unicode="&#x154;" horiz-adv-x="1336" 
d="M293 0l0.000976562 1650h354c105.333 0 196 -18.167 272 -54.5s134.667 -87.833 176 -154.5s62 -146.334 62 -239.001c0 -91.333 -20 -171.333 -60 -240s-96.333 -122.667 -169 -162s-158.334 -60.666 -257.001 -63.999l554 -736h-72l-554 736h-250v-736h-56z
M349.001 790h297.998c92.667 0 173.334 17 242.001 51s121.834 81.833 159.501 143.5s56.5 134.167 56.5 217.5c0 123.333 -41 220.833 -123 292.5s-193.667 107.5 -335 107.5h-298v-812zM677.999 1809l-44 27l142 345l63 -41z" />
    <glyph glyph-name="racute" unicode="&#x155;" horiz-adv-x="832" 
d="M235 0l-0.00292969 1024h56v-154c28.667 62 67.834 108.5 117.501 139.5s109.834 46.5 180.501 46.5c27.333 0 54.333 -2.16699 81 -6.5s50.334 -10.166 71.001 -17.499l-22 -48c-18.667 7.33301 -39.5 12.833 -62.5 16.5s-45.5 5.5 -67.5 5.5
c-50.667 0 -98.667 -13 -144 -39s-82.333 -59.667 -111 -101s-43 -85.333 -43 -132v-734h-56zM418.997 1215l-44 27l142 345l63 -41z" />
    <glyph glyph-name="uni0156" unicode="&#x156;" horiz-adv-x="1336" 
d="M293 0l0.000976562 1650h354c105.333 0 196 -18.167 272 -54.5s134.667 -87.833 176 -154.5s62 -146.334 62 -239.001c0 -91.333 -20 -171.333 -60 -240s-96.333 -122.667 -169 -162s-158.334 -60.666 -257.001 -63.999l554 -736h-72l-554 736h-250v-736h-56z
M349.001 790h297.998c92.667 0 173.334 17 242.001 51s121.834 81.833 159.501 143.5s56.5 134.167 56.5 217.5c0 123.333 -41 220.833 -123 292.5s-193.667 107.5 -335 107.5h-298v-812zM635.999 -444l-12.999 12c15.333 23.333 26.666 49.166 33.999 77.499
s11 61.833 11 100.5c-16 0 -29.833 5.83301 -41.5 17.5s-17.5 25.5 -17.5 41.5c0 17.333 5.5 31.5 16.5 42.5s25.5 16.5 43.5 16.5c19.333 0 33.833 -6.83301 43.5 -20.5s14.5 -35.167 14.5 -64.5c0 -40.667 -9.33301 -83.667 -28 -129s-39.667 -76.666 -63 -93.999z" />
    <glyph glyph-name="uni0157" unicode="&#x157;" horiz-adv-x="832" 
d="M235 0l-0.00292969 1024h56v-154c28.667 62 67.834 108.5 117.501 139.5s109.834 46.5 180.501 46.5c27.333 0 54.333 -2.16699 81 -6.5s50.334 -10.166 71.001 -17.499l-22 -48c-18.667 7.33301 -39.5 12.833 -62.5 16.5s-45.5 5.5 -67.5 5.5
c-50.667 0 -98.667 -13 -144 -39s-82.333 -59.667 -111 -101s-43 -85.333 -43 -132v-734h-56zM383.997 -444.001l-12.999 12c15.333 23.333 26.666 49.166 33.999 77.499s11 61.833 11 100.5c-16 0 -29.833 5.83301 -41.5 17.5s-17.5 25.5 -17.5 41.5
c0 17.333 5.5 31.5 16.5 42.5s25.5 16.5 43.5 16.5c19.333 0 33.833 -6.83301 43.5 -20.5s14.5 -35.167 14.5 -64.5c0 -40.667 -9.33301 -83.667 -28 -129s-39.667 -76.666 -63 -93.999z" />
    <glyph glyph-name="Rcaron" unicode="&#x158;" horiz-adv-x="1336" 
d="M293 0l0.000976562 1650h354c105.333 0 196 -18.167 272 -54.5s134.667 -87.833 176 -154.5s62 -146.334 62 -239.001c0 -91.333 -20 -171.333 -60 -240s-96.333 -122.667 -169 -162s-158.334 -60.666 -257.001 -63.999l554 -736h-72l-554 736h-250v-736h-56z
M349.001 790h297.998c92.667 0 173.334 17 242.001 51s121.834 81.833 159.501 143.5s56.5 134.167 56.5 217.5c0 123.333 -41 220.833 -123 292.5s-193.667 107.5 -335 107.5h-298v-812zM667.999 1876l-336 246l30 42l306 -224l306 224l30 -42z" />
    <glyph glyph-name="rcaron" unicode="&#x159;" horiz-adv-x="832" 
d="M235 0l-0.00292969 1024h56v-154c28.667 62 67.834 108.5 117.501 139.5s109.834 46.5 180.501 46.5c27.333 0 54.333 -2.16699 81 -6.5s50.334 -10.166 71.001 -17.499l-22 -48c-18.667 7.33301 -39.5 12.833 -62.5 16.5s-45.5 5.5 -67.5 5.5
c-50.667 0 -98.667 -13 -144 -39s-82.333 -59.667 -111 -101s-43 -85.333 -43 -132v-734h-56zM408.997 1282l-336 246l30 42l306 -224l306 224l30 -42z" />
    <glyph glyph-name="Sacute" unicode="&#x15a;" horiz-adv-x="1369" 
d="M695 -32c-90 0 -167.164 15.168 -231.497 45.501s-117.5 66.666 -159.5 108.999s-73.833 82.833 -95.5 121.5s-34.834 66 -39.501 82l44 24c6 -18 19.333 -44.833 40 -80.5s50 -72.667 88 -111s86.167 -71 144.5 -98s128.166 -40.5 209.499 -40.5c78 0 150 14.5 216 43.5
s119.167 72.333 159.5 130s60.5 129.167 60.5 214.5c0 70 -13.5 129 -40.5 177s-63.167 88.167 -108.5 120.5s-95.5 59.833 -150.5 82.5s-110.5 43.334 -166.5 62.001c-37.333 12.667 -78.666 28.334 -123.999 47.001s-88.833 43.167 -130.5 73.5s-76 68.833 -103 115.5
s-40.5 104.667 -40.5 174c0 58.667 10.5 113.334 31.5 164.001s50.333 95.167 88 133.5s82.5 68.333 134.5 90s109 32.5 171 32.5c69.333 0 130.5 -12.333 183.5 -37s97.167 -55.667 132.5 -93s61 -74.666 77 -111.999l-46 -22c-13.333 34 -35.833 67.333 -67.5 100
s-71.167 59.5 -118.5 80.5s-101.666 31.5 -162.999 31.5c-80 0 -147.833 -18.333 -203.5 -55s-97.834 -83.334 -126.501 -140.001s-43 -115.334 -43 -176.001c0 -58 11.833 -106.833 35.5 -146.5s54.334 -72.834 92.001 -99.501s78.167 -48.834 121.5 -66.501
s85 -33.167 125 -46.5c57.333 -19.333 114.833 -41.166 172.5 -65.499s110.667 -54.333 159 -90s87.166 -80.334 116.499 -134.001s44 -119.5 44 -197.5c0 -94.667 -22.333 -175 -67 -241s-103.834 -116.167 -177.501 -150.5s-154.834 -51.5 -243.501 -51.5zM702.003 1819
l-44 27l142 345l63 -41z" />
    <glyph glyph-name="sacute" unicode="&#x15b;" horiz-adv-x="973" 
d="M486 -32c-83.333 0 -156.331 24.168 -218.998 72.501s-109 116.833 -139 205.5l48 16c26 -76.667 66.167 -136.5 120.5 -179.5s117.166 -64.5 188.499 -64.5c51.333 0 99 11.167 143 33.5s79.333 54 106 95s40 89.5 40 145.5c0 49.333 -11.167 87.833 -33.5 115.5
s-54.5 51 -96.5 70s-92.667 39.833 -152 62.5c-44.667 17.333 -88.334 36.833 -131.001 58.5s-77.834 49.167 -105.501 82.5s-41.5 76 -41.5 128c0 47.333 12.167 89.5 36.5 126.5s57.5 66.333 99.5 88s89.333 32.5 142 32.5c60 0 113.833 -14.833 161.5 -44.5
s85.167 -71.5 112.5 -125.5l-46 -22c-46.667 94.667 -123 142 -229 142c-66 0 -120 -18.333 -162 -55s-63 -84.334 -63 -143.001c0 -40.667 10.5 -73.667 31.5 -99s49.833 -46.666 86.5 -63.999s78.334 -35 125.001 -53c64.667 -24.667 120.5 -48.334 167.5 -71.001
s83.333 -51.167 109 -85.5s38.5 -81.5 38.5 -141.5c0 -65.333 -15 -122.5 -45 -171.5s-70.5 -87 -121.5 -114s-108.167 -40.5 -171.5 -40.5zM502.002 1215l-44 27l142 345l63 -41z" />
    <glyph glyph-name="Scedilla" unicode="&#x15e;" horiz-adv-x="1369" 
d="M695 -32c-90 0 -167.164 15.168 -231.497 45.501s-117.5 66.666 -159.5 108.999s-73.833 82.833 -95.5 121.5s-34.834 66 -39.501 82l44 24c6 -18 19.333 -44.833 40 -80.5s50 -72.667 88 -111s86.167 -71 144.5 -98s128.166 -40.5 209.499 -40.5c78 0 150 14.5 216 43.5
s119.167 72.333 159.5 130s60.5 129.167 60.5 214.5c0 70 -13.5 129 -40.5 177s-63.167 88.167 -108.5 120.5s-95.5 59.833 -150.5 82.5s-110.5 43.334 -166.5 62.001c-37.333 12.667 -78.666 28.334 -123.999 47.001s-88.833 43.167 -130.5 73.5s-76 68.833 -103 115.5
s-40.5 104.667 -40.5 174c0 58.667 10.5 113.334 31.5 164.001s50.333 95.167 88 133.5s82.5 68.333 134.5 90s109 32.5 171 32.5c69.333 0 130.5 -12.333 183.5 -37s97.167 -55.667 132.5 -93s61 -74.666 77 -111.999l-46 -22c-13.333 34 -35.833 67.333 -67.5 100
s-71.167 59.5 -118.5 80.5s-101.666 31.5 -162.999 31.5c-80 0 -147.833 -18.333 -203.5 -55s-97.834 -83.334 -126.501 -140.001s-43 -115.334 -43 -176.001c0 -58 11.833 -106.833 35.5 -146.5s54.334 -72.834 92.001 -99.501s78.167 -48.834 121.5 -66.501
s85 -33.167 125 -46.5c57.333 -19.333 114.833 -41.166 172.5 -65.499s110.667 -54.333 159 -90s87.166 -80.334 116.499 -134.001s44 -119.5 44 -197.5c0 -94.667 -22.333 -175 -67 -241s-103.834 -116.167 -177.501 -150.5s-154.834 -51.5 -243.501 -51.5z
M708.003 -559.999c-53.333 0 -101 12.166 -143 36.499s-74 57.833 -96 100.5l41 23c39.333 -74 106 -111 200 -111c54 0 97.667 13.667 131 41s50 63 50 107c0 40 -13.333 72.5 -40 97.5s-61.667 37.5 -105 37.5c-24.667 0 -51.5 -4 -80.5 -12s-53.833 -18.333 -74.5 -31
l-3 2l87 269h52l-62 -190c20 4 35.667 6.83301 47 8.5s22 2.5 32 2.5c57.333 0 104.333 -17.167 141 -51.5s55 -78.166 55 -131.499c0 -58 -21.667 -105.5 -65 -142.5s-99 -55.5 -167 -55.5z" />
    <glyph glyph-name="scedilla" unicode="&#x15f;" horiz-adv-x="973" 
d="M486 -32c-83.333 0 -156.331 24.168 -218.998 72.501s-109 116.833 -139 205.5l48 16c26 -76.667 66.167 -136.5 120.5 -179.5s117.166 -64.5 188.499 -64.5c51.333 0 99 11.167 143 33.5s79.333 54 106 95s40 89.5 40 145.5c0 49.333 -11.167 87.833 -33.5 115.5
s-54.5 51 -96.5 70s-92.667 39.833 -152 62.5c-44.667 17.333 -88.334 36.833 -131.001 58.5s-77.834 49.167 -105.501 82.5s-41.5 76 -41.5 128c0 47.333 12.167 89.5 36.5 126.5s57.5 66.333 99.5 88s89.333 32.5 142 32.5c60 0 113.833 -14.833 161.5 -44.5
s85.167 -71.5 112.5 -125.5l-46 -22c-46.667 94.667 -123 142 -229 142c-66 0 -120 -18.333 -162 -55s-63 -84.334 -63 -143.001c0 -40.667 10.5 -73.667 31.5 -99s49.833 -46.666 86.5 -63.999s78.334 -35 125.001 -53c64.667 -24.667 120.5 -48.334 167.5 -71.001
s83.333 -51.167 109 -85.5s38.5 -81.5 38.5 -141.5c0 -65.333 -15 -122.5 -45 -171.5s-70.5 -87 -121.5 -114s-108.167 -40.5 -171.5 -40.5zM497.002 -559.999c-53.333 0 -101 12.166 -143 36.499s-74 57.833 -96 100.5l41 23c39.333 -74 106 -111 200 -111
c54 0 97.667 13.667 131 41s50 63 50 107c0 40 -13.333 72.5 -40 97.5s-61.667 37.5 -105 37.5c-24.667 0 -51.5 -4 -80.5 -12s-53.833 -18.333 -74.5 -31l-3 2l87 269h52l-62 -190c20 4 35.667 6.83301 47 8.5s22 2.5 32 2.5c57.333 0 104.333 -17.167 141 -51.5
s55 -78.166 55 -131.499c0 -58 -21.667 -105.5 -65 -142.5s-99 -55.5 -167 -55.5z" />
    <glyph glyph-name="Scaron" unicode="&#x160;" horiz-adv-x="1369" 
d="M695 -32c-90 0 -167.164 15.168 -231.497 45.501s-117.5 66.666 -159.5 108.999s-73.833 82.833 -95.5 121.5s-34.834 66 -39.501 82l44 24c6 -18 19.333 -44.833 40 -80.5s50 -72.667 88 -111s86.167 -71 144.5 -98s128.166 -40.5 209.499 -40.5c78 0 150 14.5 216 43.5
s119.167 72.333 159.5 130s60.5 129.167 60.5 214.5c0 70 -13.5 129 -40.5 177s-63.167 88.167 -108.5 120.5s-95.5 59.833 -150.5 82.5s-110.5 43.334 -166.5 62.001c-37.333 12.667 -78.666 28.334 -123.999 47.001s-88.833 43.167 -130.5 73.5s-76 68.833 -103 115.5
s-40.5 104.667 -40.5 174c0 58.667 10.5 113.334 31.5 164.001s50.333 95.167 88 133.5s82.5 68.333 134.5 90s109 32.5 171 32.5c69.333 0 130.5 -12.333 183.5 -37s97.167 -55.667 132.5 -93s61 -74.666 77 -111.999l-46 -22c-13.333 34 -35.833 67.333 -67.5 100
s-71.167 59.5 -118.5 80.5s-101.666 31.5 -162.999 31.5c-80 0 -147.833 -18.333 -203.5 -55s-97.834 -83.334 -126.501 -140.001s-43 -115.334 -43 -176.001c0 -58 11.833 -106.833 35.5 -146.5s54.334 -72.834 92.001 -99.501s78.167 -48.834 121.5 -66.501
s85 -33.167 125 -46.5c57.333 -19.333 114.833 -41.166 172.5 -65.499s110.667 -54.333 159 -90s87.166 -80.334 116.499 -134.001s44 -119.5 44 -197.5c0 -94.667 -22.333 -175 -67 -241s-103.834 -116.167 -177.501 -150.5s-154.834 -51.5 -243.501 -51.5zM692.003 1886
l-336 246l30 42l306 -224l306 224l30 -42z" />
    <glyph glyph-name="scaron" unicode="&#x161;" horiz-adv-x="973" 
d="M486 -32c-83.333 0 -156.331 24.168 -218.998 72.501s-109 116.833 -139 205.5l48 16c26 -76.667 66.167 -136.5 120.5 -179.5s117.166 -64.5 188.499 -64.5c51.333 0 99 11.167 143 33.5s79.333 54 106 95s40 89.5 40 145.5c0 49.333 -11.167 87.833 -33.5 115.5
s-54.5 51 -96.5 70s-92.667 39.833 -152 62.5c-44.667 17.333 -88.334 36.833 -131.001 58.5s-77.834 49.167 -105.501 82.5s-41.5 76 -41.5 128c0 47.333 12.167 89.5 36.5 126.5s57.5 66.333 99.5 88s89.333 32.5 142 32.5c60 0 113.833 -14.833 161.5 -44.5
s85.167 -71.5 112.5 -125.5l-46 -22c-46.667 94.667 -123 142 -229 142c-66 0 -120 -18.333 -162 -55s-63 -84.334 -63 -143.001c0 -40.667 10.5 -73.667 31.5 -99s49.833 -46.666 86.5 -63.999s78.334 -35 125.001 -53c64.667 -24.667 120.5 -48.334 167.5 -71.001
s83.333 -51.167 109 -85.5s38.5 -81.5 38.5 -141.5c0 -65.333 -15 -122.5 -45 -171.5s-70.5 -87 -121.5 -114s-108.167 -40.5 -171.5 -40.5zM492.002 1282l-336 246l30 42l306 -224l306 224l30 -42z" />
    <glyph glyph-name="uni0162" unicode="&#x162;" horiz-adv-x="1464" 
d="M704 0v1594h-552v56h1160v-56h-552v-1594h-56zM741 -560c-53.333 0 -101 12.166 -143 36.499s-74 57.833 -96 100.5l41 23c39.333 -74 106 -111 200 -111c54 0 97.667 13.667 131 41s50 63 50 107c0 40 -13.333 72.5 -40 97.5s-61.667 37.5 -105 37.5
c-24.667 0 -51.5 -4 -80.5 -12s-53.833 -18.333 -74.5 -31l-3 2l87 269h52l-62 -190c20 4 35.667 6.83301 47 8.5s22 2.5 32 2.5c57.333 0 104.333 -17.167 141 -51.5s55 -78.166 55 -131.499c0 -58 -21.667 -105.5 -65 -142.5s-99 -55.5 -167 -55.5z" />
    <glyph glyph-name="uni0163" unicode="&#x163;" horiz-adv-x="681" 
d="M434 -32c-62.667 0 -110.999 22.167 -144.999 66.5s-51 106.833 -51 187.5v760h-86v42h86v382h56v-382h272v-42h-272v-760c0 -66.667 12.667 -117.667 38 -153s61.666 -53 108.999 -53c44 0 81 11.333 111 34l14 -44c-15.333 -11.333 -34.833 -20.5 -58.5 -27.5
s-48.167 -10.5 -73.5 -10.5zM407.001 -560c-53.333 0 -101 12.166 -143 36.499s-74 57.833 -96 100.5l41 23c39.333 -74 106 -111 200 -111c54 0 97.667 13.667 131 41s50 63 50 107c0 40 -13.333 72.5 -40 97.5s-61.667 37.5 -105 37.5c-24.667 0 -51.5 -4 -80.5 -12
s-53.833 -18.333 -74.5 -31l-3 2l87 269h52l-62 -190c20 4 35.667 6.83301 47 8.5s22 2.5 32 2.5c57.333 0 104.333 -17.167 141 -51.5s55 -78.166 55 -131.499c0 -58 -21.667 -105.5 -65 -142.5s-99 -55.5 -167 -55.5z" />
    <glyph glyph-name="Tcaron" unicode="&#x164;" horiz-adv-x="1464" 
d="M704 0v1594h-552v56h1160v-56h-552v-1594h-56zM732 1876l-336 246l30 42l306 -224l306 224l30 -42z" />
    <glyph glyph-name="tcaron" unicode="&#x165;" horiz-adv-x="681" 
d="M434 -32c-62.667 0 -110.999 22.167 -144.999 66.5s-51 106.833 -51 187.5v760h-86v42h86v382h56v-382h272v-42h-272v-760c0 -66.667 12.667 -117.667 38 -153s61.666 -53 108.999 -53c44 0 81 11.333 111 34l14 -44c-15.333 -11.333 -34.833 -20.5 -58.5 -27.5
s-48.167 -10.5 -73.5 -10.5zM351.001 1471l-336 246l30 42l306 -224l306 224l30 -42z" />
    <glyph glyph-name="Tbar" unicode="&#x166;" horiz-adv-x="1464" 
d="M704 0v1594h-552v56h1160v-56h-552v-1594h-56zM368 1007v50h729v-50h-729z" />
    <glyph glyph-name="tbar" unicode="&#x167;" horiz-adv-x="681" 
d="M434 -32c-62.667 0 -110.999 22.167 -144.999 66.5s-51 106.833 -51 187.5v560h-86v42h86v158h-86v42h86v382h56v-382h272v-42h-272v-158h272v-42h-272v-560c0 -66.667 12.667 -117.667 38 -153s61.666 -53 108.999 -53c44 0 81 11.333 111 34l14 -44
c-15.333 -11.333 -34.833 -20.5 -58.5 -27.5s-48.167 -10.5 -73.5 -10.5z" />
    <glyph glyph-name="Umacron" unicode="&#x16a;" horiz-adv-x="1623" 
d="M812 -32c-180.667 0 -315.832 52.167 -405.499 156.5s-134.5 260.833 -134.5 469.5v1056h56v-1056c0 -186.667 41 -328.334 123 -425.001s202.333 -145 361 -145s279 48.333 361 145s123 238.334 123 425.001v1056h56v-1056c0 -208.667 -44.833 -365.167 -134.5 -469.5
s-224.834 -156.5 -405.501 -156.5zM404.002 1990v46h816v-46h-816z" />
    <glyph glyph-name="umacron" unicode="&#x16b;" horiz-adv-x="1198" 
d="M599 -32c-138 0 -235.835 33.833 -293.502 101.5s-86.5 182.5 -86.5 344.5v610h56v-610c0 -141.333 24.833 -242.333 74.5 -303s132.834 -91 249.501 -91s199.834 30.333 249.501 91s74.5 161.667 74.5 303v610h56v-610c0 -162 -28.833 -276.833 -86.5 -344.5
s-155.5 -101.5 -293.5 -101.5zM190.998 1366v46h816v-46h-816z" />
    <glyph glyph-name="Uring" unicode="&#x16e;" horiz-adv-x="1623" 
d="M812 -32c-180.667 0 -315.832 52.167 -405.499 156.5s-134.5 260.833 -134.5 469.5v1056h56v-1056c0 -186.667 41 -328.334 123 -425.001s202.333 -145 361 -145s279 48.333 361 145s123 238.334 123 425.001v1056h56v-1056c0 -208.667 -44.833 -365.167 -134.5 -469.5
s-224.834 -156.5 -405.501 -156.5zM812.002 1916c-36 0 -68.667 7.33301 -98 22s-52.666 35 -69.999 61s-26 55.667 -26 89v0c0 33.333 8.66699 63 26 89s40.666 46.333 69.999 61s62 22 98 22s68.667 -7.33301 98 -22s52.666 -35 69.999 -61s26 -55.667 26 -89
s-8.66699 -63 -26 -89s-40.666 -46.333 -69.999 -61s-62 -22 -98 -22zM812.002 1968c41.333 0 75.333 11.332 102 33.999s40 51.334 40 86.001c0 35.333 -13.333 64.166 -40 86.5c-26.667 22.333 -60.667 33.5 -102 33.5c-40.667 0 -74.5 -11.167 -101.5 -33.5
s-40.5 -51.166 -40.5 -86.499v0c0 -34.667 13.5 -63.334 40.5 -86.001s60.833 -34 101.5 -34z" />
    <glyph glyph-name="uring" unicode="&#x16f;" horiz-adv-x="1198" 
d="M599 -32c-138 0 -235.835 33.833 -293.502 101.5s-86.5 182.5 -86.5 344.5v610h56v-610c0 -141.333 24.833 -242.333 74.5 -303s132.834 -91 249.501 -91s199.834 30.333 249.501 91s74.5 161.667 74.5 303v610h56v-610c0 -162 -28.833 -276.833 -86.5 -344.5
s-155.5 -101.5 -293.5 -101.5zM598.998 1292c-36 0 -68.667 7.33301 -98 22s-52.666 35 -69.999 61s-26 55.667 -26 89v0c0 33.333 8.66699 63 26 89s40.666 46.333 69.999 61s62 22 98 22s68.667 -7.33301 98 -22s52.666 -35 69.999 -61s26 -55.667 26 -89
s-8.66699 -63 -26 -89s-40.666 -46.333 -69.999 -61s-62 -22 -98 -22zM598.998 1344c41.333 0 75.333 11.333 102 34s40 51.334 40 86.001c0 35.333 -13.333 64.166 -40 86.499s-60.667 33.5 -102 33.5c-40.667 0 -74.5 -11.167 -101.5 -33.5s-40.5 -51.166 -40.5 -86.499v0
c0 -34.667 13.5 -63.334 40.5 -86.001s60.833 -34 101.5 -34z" />
    <glyph glyph-name="Uhungarumlaut" unicode="&#x170;" horiz-adv-x="1623" 
d="M812 -32c-180.667 0 -315.832 52.167 -405.499 156.5s-134.5 260.833 -134.5 469.5v1056h56v-1056c0 -186.667 41 -328.334 123 -425.001s202.333 -145 361 -145s279 48.333 361 145s123 238.334 123 425.001v1056h56v-1056c0 -208.667 -44.833 -365.167 -134.5 -469.5
s-224.834 -156.5 -405.501 -156.5zM925.002 2092l-43 42l165 170l66 -62zM653.002 2092l-43 42l167 170l64 -62z" />
    <glyph glyph-name="uhungarumlaut" unicode="&#x171;" horiz-adv-x="1198" 
d="M599 -32c-138 0 -235.835 33.833 -293.502 101.5s-86.5 182.5 -86.5 344.5v610h56v-610c0 -141.333 24.833 -242.333 74.5 -303s132.834 -91 249.501 -91s199.834 30.333 249.501 91s74.5 161.667 74.5 303v610h56v-610c0 -162 -28.833 -276.833 -86.5 -344.5
s-155.5 -101.5 -293.5 -101.5zM711.998 1468l-43 42l165 170l66 -62zM439.998 1468l-43 42l167 170l64 -62z" />
    <glyph glyph-name="Uogonek" unicode="&#x172;" horiz-adv-x="1623" 
d="M812 -32c-180.667 0 -315.832 52.167 -405.499 156.5s-134.5 260.833 -134.5 469.5v1056h56v-1056c0 -186.667 41 -328.334 123 -425.001s202.333 -145 361 -145s279 48.333 361 145s123 238.334 123 425.001v1056h56v-1056c0 -208.667 -44.833 -365.167 -134.5 -469.5
s-224.834 -156.5 -405.501 -156.5zM865.002 -559c-73.333 0 -133.331 22.0029 -179.998 66.0029s-70 96.667 -70 158c0 46.667 16.167 98.5 48.5 155.5s78.166 116.833 137.499 179.5h51c-58.667 -62.667 -104.167 -123.334 -136.5 -182.001s-48.5 -109.334 -48.5 -152.001
c0 -45.333 17.167 -85.5 51.5 -120.5s85.166 -52.5 152.499 -52.5c44 0 85.167 9.16699 123.5 27.5s75.833 47.833 112.5 88.5l34 -24c-30.667 -44.667 -70.667 -79.834 -120 -105.501s-101.333 -38.5 -156 -38.5z" />
    <glyph glyph-name="uogonek" unicode="&#x173;" horiz-adv-x="1198" 
d="M599 -32c-138 0 -235.835 33.833 -293.502 101.5s-86.5 182.5 -86.5 344.5v610h56v-610c0 -141.333 24.833 -242.333 74.5 -303s132.834 -91 249.501 -91s199.834 30.333 249.501 91s74.5 161.667 74.5 303v610h56v-610c0 -162 -28.833 -276.833 -86.5 -344.5
s-155.5 -101.5 -293.5 -101.5zM641.998 -548c-73.333 0 -133.331 22.0029 -179.998 66.0029s-70 96.667 -70 158c0 46.667 16.167 98.5 48.5 155.5s78.166 116.833 137.499 179.5h51c-58.667 -62.667 -104.167 -123.334 -136.5 -182.001s-48.5 -109.334 -48.5 -152.001
c0 -45.333 17.167 -85.5 51.5 -120.5s85.166 -52.5 152.499 -52.5c44 0 85.167 9.16699 123.5 27.5s75.833 47.833 112.5 88.5l34 -24c-30.667 -44.667 -70.667 -79.834 -120 -105.501s-101.333 -38.5 -156 -38.5z" />
    <glyph glyph-name="Wcircumflex" unicode="&#x174;" horiz-adv-x="2552" 
d="M662 0l-498 1650h62l468 -1590l558 1590h48l558 -1590l468 1590h62l-498 -1650h-66l-548 1534l-548 -1534h-66zM970 2016l-30 42l336 246l336 -246l-30 -42l-306 224z" />
    <glyph glyph-name="wcircumflex" unicode="&#x175;" horiz-adv-x="1946" 
d="M581 0l-474 1024h64l428 -926l356 926h36l356 -926l428 926h64l-474 -1024h-36l-356 912l-356 -912h-36zM667 1392l-30 42l336 246l336 -246l-30 -42l-306 224z" />
    <glyph glyph-name="Ycircumflex" unicode="&#x176;" horiz-adv-x="1460" 
d="M702 0v704l-550 946h68l510 -878l510 878h68l-550 -946v-704h-56zM424 2016l-30 42l336 246l336 -246l-30 -42l-306 224z" />
    <glyph glyph-name="ycircumflex" unicode="&#x177;" horiz-adv-x="1216" 
d="M387 -520l208 488l-488 1056h62l456 -988l420 988h62l-660 -1544h-60zM302 1392l-30 42l336 246l336 -246l-30 -42l-306 224z" />
    <glyph glyph-name="Ydieresis" unicode="&#x178;" horiz-adv-x="1460" 
d="M702 0v704l-550 946h68l510 -878l510 878h68l-550 -946v-704h-56zM966 1974c-12.667 0 -23.834 4.83301 -33.501 14.5s-14.5 20.834 -14.5 33.501c0 13.333 4.83301 24.666 14.5 33.999s20.834 14 33.501 14c13.333 0 24.666 -4.66699 33.999 -14s14 -20.666 14 -33.999
c0 -12.667 -4.66699 -23.834 -14 -33.501s-20.666 -14.5 -33.999 -14.5zM494 1974c-12.667 0 -23.834 4.83301 -33.501 14.5s-14.5 20.834 -14.5 33.501c0 13.333 4.83301 24.666 14.5 33.999s20.834 14 33.501 14c13.333 0 24.666 -4.66699 33.999 -14
s14 -20.666 14 -33.999c0 -12.667 -4.66699 -23.834 -14 -33.501s-20.666 -14.5 -33.999 -14.5z" />
    <glyph glyph-name="Zacute" unicode="&#x179;" horiz-adv-x="1609" 
d="M151 0l1190 1594h-1078v56h1190l-1190 -1594h1134v-56h-1246zM815 1809l-44 27l142 345l63 -41z" />
    <glyph glyph-name="zacute" unicode="&#x17a;" horiz-adv-x="1204" 
d="M102 0l864 968h-790v56h916l-866 -968h850v-56h-974zM612 1185l-44 27l142 345l63 -41z" />
    <glyph glyph-name="Zdotaccent" unicode="&#x17b;" horiz-adv-x="1609" 
d="M151 0l1190 1594h-1078v56h1190l-1190 -1594h1134v-56h-1246zM806 2048c-8.66699 0 -16.667 2.16699 -24 6.5s-13.166 10.166 -17.499 17.5c-4.33301 7.33301 -6.5 15.333 -6.5 24s2.16699 16.5 6.5 23.5s10.166 12.667 17.499 17s15.333 6.5 24 6.5
s16.5 -2.16699 23.5 -6.5s12.667 -10 17 -17s6.5 -14.833 6.5 -23.5s-2.16699 -16.667 -6.5 -24s-10 -13.166 -17 -17.5c-7 -4.33301 -14.833 -6.5 -23.5 -6.5z" />
    <glyph glyph-name="zdotaccent" unicode="&#x17c;" horiz-adv-x="1204" 
d="M102 0l864 968h-790v56h916l-866 -968h850v-56h-974zM603 1424c-8.66699 0 -16.667 2.16699 -24 6.5s-13.166 10.166 -17.499 17.499s-6.5 15.333 -6.5 24s2.16699 16.5 6.5 23.5s10.166 12.667 17.499 17s15.333 6.5 24 6.5s16.5 -2.16699 23.5 -6.5s12.667 -10 17 -17
s6.5 -14.833 6.5 -23.5s-2.16699 -16.667 -6.5 -24s-10 -13.166 -17 -17.499s-14.833 -6.5 -23.5 -6.5z" />
    <glyph glyph-name="Zcaron" unicode="&#x17d;" horiz-adv-x="1609" 
d="M151 0l1190 1594h-1078v56h1190l-1190 -1594h1134v-56h-1246zM805 1876l-336 246l30 42l306 -224l306 224l30 -42z" />
    <glyph glyph-name="zcaron" unicode="&#x17e;" horiz-adv-x="1204" 
d="M102 0l864 968h-790v56h916l-866 -968h850v-56h-974zM602 1252l-336 246l30 42l306 -224l306 224l30 -42z" />
    <glyph glyph-name="florin" unicode="&#x192;" horiz-adv-x="896" 
d="M56 -551c-30.667 0 -58.165 3.83301 -82.498 11.5s-45.5 19.167 -63.5 34.5l25 42c28 -26.667 67 -40 117 -40c59.333 0 107.166 20.833 143.499 62.5s58.166 100.167 65.499 175.5l131 1247h-84l4 42h84l45 430c7.33301 66 21.833 120.833 43.5 164.5
s50.834 76.5 87.501 98.5s80.667 33 132 33c31.333 0 59 -3.83301 83 -11.5s45 -19.167 63 -34.5l-25 -42c-28 26.667 -67 40 -117 40c-58.667 0 -106.334 -20.833 -143.001 -62.5s-58.667 -100.167 -66 -175.5l-47 -440h272l-4 -42h-272l-129 -1237
c-6.66699 -65.333 -21 -120 -43 -164s-51.333 -77 -88 -99s-80.667 -33 -132 -33z" />
    <glyph glyph-name="uni0218" unicode="&#x218;" horiz-adv-x="1369" 
d="M695 -32c-90 0 -167.164 15.168 -231.497 45.501s-117.5 66.666 -159.5 108.999s-73.833 82.833 -95.5 121.5s-34.834 66 -39.501 82l44 24c6 -18 19.333 -44.833 40 -80.5s50 -72.667 88 -111s86.167 -71 144.5 -98s128.166 -40.5 209.499 -40.5c78 0 150 14.5 216 43.5
s119.167 72.333 159.5 130s60.5 129.167 60.5 214.5c0 70 -13.5 129 -40.5 177s-63.167 88.167 -108.5 120.5s-95.5 59.833 -150.5 82.5s-110.5 43.334 -166.5 62.001c-37.333 12.667 -78.666 28.334 -123.999 47.001s-88.833 43.167 -130.5 73.5s-76 68.833 -103 115.5
s-40.5 104.667 -40.5 174c0 58.667 10.5 113.334 31.5 164.001s50.333 95.167 88 133.5s82.5 68.333 134.5 90s109 32.5 171 32.5c69.333 0 130.5 -12.333 183.5 -37s97.167 -55.667 132.5 -93s61 -74.666 77 -111.999l-46 -22c-13.333 34 -35.833 67.333 -67.5 100
s-71.167 59.5 -118.5 80.5s-101.666 31.5 -162.999 31.5c-80 0 -147.833 -18.333 -203.5 -55s-97.834 -83.334 -126.501 -140.001s-43 -115.334 -43 -176.001c0 -58 11.833 -106.833 35.5 -146.5s54.334 -72.834 92.001 -99.501s78.167 -48.834 121.5 -66.501
s85 -33.167 125 -46.5c57.333 -19.333 114.833 -41.166 172.5 -65.499s110.667 -54.333 159 -90s87.166 -80.334 116.499 -134.001s44 -119.5 44 -197.5c0 -94.667 -22.333 -175 -67 -241s-103.834 -116.167 -177.501 -150.5s-154.834 -51.5 -243.501 -51.5z
M695.003 -443.999l-12.999 12c15.333 23.333 26.666 49.166 33.999 77.499s11 61.833 11 100.5c-16 0 -29.833 5.83301 -41.5 17.5s-17.5 25.5 -17.5 41.5c0 17.333 5.5 31.5 16.5 42.5s25.5 16.5 43.5 16.5c19.333 0 33.833 -6.83301 43.5 -20.5s14.5 -35.167 14.5 -64.5
c0 -40.667 -9.33301 -83.667 -28 -129s-39.667 -76.666 -63 -93.999z" />
    <glyph glyph-name="uni0219" unicode="&#x219;" horiz-adv-x="973" 
d="M486 -32c-83.333 0 -156.331 24.168 -218.998 72.501s-109 116.833 -139 205.5l48 16c26 -76.667 66.167 -136.5 120.5 -179.5s117.166 -64.5 188.499 -64.5c51.333 0 99 11.167 143 33.5s79.333 54 106 95s40 89.5 40 145.5c0 49.333 -11.167 87.833 -33.5 115.5
s-54.5 51 -96.5 70s-92.667 39.833 -152 62.5c-44.667 17.333 -88.334 36.833 -131.001 58.5s-77.834 49.167 -105.501 82.5s-41.5 76 -41.5 128c0 47.333 12.167 89.5 36.5 126.5s57.5 66.333 99.5 88s89.333 32.5 142 32.5c60 0 113.833 -14.833 161.5 -44.5
s85.167 -71.5 112.5 -125.5l-46 -22c-46.667 94.667 -123 142 -229 142c-66 0 -120 -18.333 -162 -55s-63 -84.334 -63 -143.001c0 -40.667 10.5 -73.667 31.5 -99s49.833 -46.666 86.5 -63.999s78.334 -35 125.001 -53c64.667 -24.667 120.5 -48.334 167.5 -71.001
s83.333 -51.167 109 -85.5s38.5 -81.5 38.5 -141.5c0 -65.333 -15 -122.5 -45 -171.5s-70.5 -87 -121.5 -114s-108.167 -40.5 -171.5 -40.5zM484.002 -443.999l-12.999 12c15.333 23.333 26.666 49.166 33.999 77.499s11 61.833 11 100.5c-16 0 -29.833 5.83301 -41.5 17.5
s-17.5 25.5 -17.5 41.5c0 17.333 5.5 31.5 16.5 42.5s25.5 16.5 43.5 16.5c19.333 0 33.833 -6.83301 43.5 -20.5s14.5 -35.167 14.5 -64.5c0 -40.667 -9.33301 -83.667 -28 -129s-39.667 -76.666 -63 -93.999z" />
    <glyph glyph-name="uni021A" unicode="&#x21a;" horiz-adv-x="1464" 
d="M704 0v1594h-552v56h1160v-56h-552v-1594h-56zM728 -444l-12.999 12c15.333 23.333 26.666 49.166 33.999 77.499s11 61.833 11 100.5c-16 0 -29.833 5.83301 -41.5 17.5s-17.5 25.5 -17.5 41.5c0 17.333 5.5 31.5 16.5 42.5s25.5 16.5 43.5 16.5
c19.333 0 33.833 -6.83301 43.5 -20.5s14.5 -35.167 14.5 -64.5c0 -40.667 -9.33301 -83.667 -28 -129s-39.667 -76.666 -63 -93.999z" />
    <glyph glyph-name="uni021B" unicode="&#x21b;" horiz-adv-x="681" 
d="M434 -32c-62.667 0 -110.999 22.167 -144.999 66.5s-51 106.833 -51 187.5v760h-86v42h86v382h56v-382h272v-42h-272v-760c0 -66.667 12.667 -117.667 38 -153s61.666 -53 108.999 -53c44 0 81 11.333 111 34l14 -44c-15.333 -11.333 -34.833 -20.5 -58.5 -27.5
s-48.167 -10.5 -73.5 -10.5zM394.001 -444l-12.999 12c15.333 23.333 26.666 49.166 33.999 77.499s11 61.833 11 100.5c-16 0 -29.833 5.83301 -41.5 17.5s-17.5 25.5 -17.5 41.5c0 17.333 5.5 31.5 16.5 42.5s25.5 16.5 43.5 16.5c19.333 0 33.833 -6.83301 43.5 -20.5
s14.5 -35.167 14.5 -64.5c0 -40.667 -9.33301 -83.667 -28 -129s-39.667 -76.666 -63 -93.999z" />
    <glyph glyph-name="circumflex" unicode="&#x2c6;" horiz-adv-x="672" 
d="M30 1392l-30 42l336 246l336 -246l-30 -42l-306 224z" />
    <glyph glyph-name="caron" unicode="&#x2c7;" horiz-adv-x="672" 
d="M336 1252l-336 246l30 42l306 -224l306 224l30 -42z" />
    <glyph glyph-name="breve" unicode="&#x2d8;" horiz-adv-x="780" 
d="M390 1364c-64.667 0 -123.999 12.667 -177.999 38s-99.5 60.833 -136.5 106.5s-62.167 98.834 -75.5 159.501l50 12c11.333 -52.667 32.833 -98.834 64.5 -138.501s71 -70.5 118 -92.5s99.5 -33 157.5 -33c57.333 0 109.666 11 156.999 33s86.833 52.833 118.5 92.5
s53.167 85.834 64.5 138.501l50 -12c-13.333 -60.667 -38.5 -113.834 -75.5 -159.501s-82.5 -81.167 -136.5 -106.5s-113.333 -38 -178 -38z" />
    <glyph glyph-name="dotaccent" unicode="&#x2d9;" horiz-adv-x="95" 
d="M48 1424c-8.66699 0 -16.667 2.16699 -24 6.5s-13.166 10.166 -17.499 17.499s-6.5 15.333 -6.5 24s2.16699 16.5 6.5 23.5s10.166 12.667 17.499 17s15.333 6.5 24 6.5s16.5 -2.16699 23.5 -6.5s12.667 -10 17 -17s6.5 -14.833 6.5 -23.5s-2.16699 -16.667 -6.5 -24
s-10 -13.166 -17 -17.499s-14.833 -6.5 -23.5 -6.5z" />
    <glyph glyph-name="ring" unicode="&#x2da;" horiz-adv-x="388" 
d="M194 1292c-36 0 -68.667 7.33301 -98 22s-52.666 35 -69.999 61s-26 55.667 -26 89v0c0 33.333 8.66699 63 26 89s40.666 46.333 69.999 61s62 22 98 22s68.667 -7.33301 98 -22s52.666 -35 69.999 -61s26 -55.667 26 -89s-8.66699 -63 -26 -89
s-40.666 -46.333 -69.999 -61s-62 -22 -98 -22zM194 1344c41.333 0 75.333 11.333 102 34s40 51.334 40 86.001c0 35.333 -13.333 64.166 -40 86.499s-60.667 33.5 -102 33.5c-40.667 0 -74.5 -11.167 -101.5 -33.5s-40.5 -51.166 -40.5 -86.499v0
c0 -34.667 13.5 -63.334 40.5 -86.001s60.833 -34 101.5 -34z" />
    <glyph glyph-name="ogonek" unicode="&#x2db;" horiz-adv-x="526" 
d="M250 -530c-73.333 0 -133.331 22.0029 -179.998 66.0029s-70 96.667 -70 158c0 46.667 16.167 98.5 48.5 155.5s78.166 116.833 137.499 179.5h51c-58.667 -62.667 -104.167 -123.334 -136.5 -182.001s-48.5 -109.334 -48.5 -152.001c0 -45.333 17.167 -85.5 51.5 -120.5
s85.166 -52.5 152.499 -52.5c44 0 85.167 9.16699 123.5 27.5s75.833 47.833 112.5 88.5l34 -24c-30.667 -44.667 -70.667 -79.834 -120 -105.501s-101.333 -38.5 -156 -38.5z" />
    <glyph glyph-name="tilde" unicode="&#x2dc;" horiz-adv-x="956" 
d="M677 1320c-46 0 -84.999 8 -116.999 24s-61.5 34.667 -88.5 56s-55.5 40 -85.5 56s-66 24 -108 24c-56 0 -104 -15.5 -144 -46.5s-72 -67.5 -96 -109.5l-38 34c28.667 48 66.167 88.667 112.5 122s101.5 50 165.5 50c46 0 85.167 -8 117.5 -24s62 -34.667 89 -56
s55.5 -40 85.5 -56s65.667 -24 107 -24c49.333 0 94.666 13.5 135.999 40.5s76.333 65.5 105 115.5l38 -34c-22.667 -37.333 -48.5 -68.833 -77.5 -94.5s-60.5 -45 -94.5 -58s-69.667 -19.5 -107 -19.5z" />
    <glyph glyph-name="hungarumlaut" unicode="&#x2dd;" horiz-adv-x="540" 
d="M315 1468l-43 42l165 170l66 -62zM43 1468l-43 42l167 170l64 -62z" />
    <glyph glyph-name="gravecomb" unicode="&#x300;" horiz-adv-x="0" 
d="M161 1185l-161 331l63 41l142 -345z" />
    <glyph glyph-name="acutecomb" unicode="&#x301;" horiz-adv-x="0" 
d="M44 1185l-44 27l142 345l63 -41z" />
    <glyph glyph-name="uni0302" unicode="&#x302;" horiz-adv-x="0" 
d="M30 1392l-30 42l336 246l336 -246l-30 -42l-306 224z" />
    <glyph glyph-name="tildecomb" unicode="&#x303;" horiz-adv-x="0" 
d="M677 1320c-46 0 -84.999 8 -116.999 24s-61.5 34.667 -88.5 56s-55.5 40 -85.5 56s-66 24 -108 24c-56 0 -104 -15.5 -144 -46.5s-72 -67.5 -96 -109.5l-38 34c28.667 48 66.167 88.667 112.5 122s101.5 50 165.5 50c46 0 85.167 -8 117.5 -24s62 -34.667 89 -56
s55.5 -40 85.5 -56s65.667 -24 107 -24c49.333 0 94.666 13.5 135.999 40.5s76.333 65.5 105 115.5l38 -34c-22.667 -37.333 -48.5 -68.833 -77.5 -94.5s-60.5 -45 -94.5 -58s-69.667 -19.5 -107 -19.5z" />
    <glyph glyph-name="uni0304" unicode="&#x304;" horiz-adv-x="0" 
d="M0 1366v46h816v-46h-816z" />
    <glyph glyph-name="uni0306" unicode="&#x306;" horiz-adv-x="0" 
d="M390 1364c-64.667 0 -123.999 12.667 -177.999 38s-99.5 60.833 -136.5 106.5s-62.167 98.834 -75.5 159.501l50 12c11.333 -52.667 32.833 -98.834 64.5 -138.501s71 -70.5 118 -92.5s99.5 -33 157.5 -33c57.333 0 109.666 11 156.999 33s86.833 52.833 118.5 92.5
s53.167 85.834 64.5 138.501l50 -12c-13.333 -60.667 -38.5 -113.834 -75.5 -159.501s-82.5 -81.167 -136.5 -106.5s-113.333 -38 -178 -38z" />
    <glyph glyph-name="uni0307" unicode="&#x307;" horiz-adv-x="0" 
d="M48 1424c-8.66699 0 -16.667 2.16699 -24 6.5s-13.166 10.166 -17.499 17.499s-6.5 15.333 -6.5 24s2.16699 16.5 6.5 23.5s10.166 12.667 17.499 17s15.333 6.5 24 6.5s16.5 -2.16699 23.5 -6.5s12.667 -10 17 -17s6.5 -14.833 6.5 -23.5s-2.16699 -16.667 -6.5 -24
s-10 -13.166 -17 -17.499s-14.833 -6.5 -23.5 -6.5z" />
    <glyph glyph-name="uni0308" unicode="&#x308;" horiz-adv-x="0" 
d="M520 1350c-12.667 0 -23.834 4.83301 -33.501 14.5s-14.5 20.834 -14.5 33.501c0 13.333 4.83301 24.666 14.5 33.999s20.834 14 33.501 14c13.333 0 24.666 -4.66699 33.999 -14s14 -20.666 14 -33.999c0 -12.667 -4.66699 -23.834 -14 -33.501
s-20.666 -14.5 -33.999 -14.5zM48 1350c-12.667 0 -23.834 4.83301 -33.501 14.5s-14.5 20.834 -14.5 33.501c0 13.333 4.83301 24.666 14.5 33.999s20.834 14 33.501 14c13.333 0 24.666 -4.66699 33.999 -14s14 -20.666 14 -33.999
c0 -12.667 -4.66699 -23.834 -14 -33.501s-20.666 -14.5 -33.999 -14.5z" />
    <glyph glyph-name="uni030A" unicode="&#x30a;" horiz-adv-x="0" 
d="M194 1292c-36 0 -68.667 7.33301 -98 22s-52.666 35 -69.999 61s-26 55.667 -26 89v0c0 33.333 8.66699 63 26 89s40.666 46.333 69.999 61s62 22 98 22s68.667 -7.33301 98 -22s52.666 -35 69.999 -61s26 -55.667 26 -89s-8.66699 -63 -26 -89
s-40.666 -46.333 -69.999 -61s-62 -22 -98 -22zM194 1344c41.333 0 75.333 11.333 102 34s40 51.334 40 86.001c0 35.333 -13.333 64.166 -40 86.499s-60.667 33.5 -102 33.5c-40.667 0 -74.5 -11.167 -101.5 -33.5s-40.5 -51.166 -40.5 -86.499v0
c0 -34.667 13.5 -63.334 40.5 -86.001s60.833 -34 101.5 -34z" />
    <glyph glyph-name="uni030B" unicode="&#x30b;" horiz-adv-x="0" 
d="M315 1468l-43 42l165 170l66 -62zM43 1468l-43 42l167 170l64 -62z" />
    <glyph glyph-name="uni030C" unicode="&#x30c;" horiz-adv-x="0" 
d="M336 1252l-336 246l30 42l306 -224l306 224l30 -42z" />
    <glyph glyph-name="uni0312" unicode="&#x312;" horiz-adv-x="0" 
d="M350 1364c-16 0 -27.8311 5.66699 -35.498 17s-11.5 28.666 -11.5 51.999c0 33.333 7.66699 68.333 23 105s32.333 62 51 76l10 -10c-12.667 -18.667 -21.834 -39.5 -27.501 -62.5s-8.5 -50.167 -8.5 -81.5c13.333 0 24.666 -4.66699 33.999 -14s14 -20.666 14 -33.999
c0 -14 -4.5 -25.5 -13.5 -34.5s-20.833 -13.5 -35.5 -13.5z" />
    <glyph glyph-name="uni0326" unicode="&#x326;" horiz-adv-x="0" 
d="M313 -444l-12.999 12c15.333 23.333 26.666 49.166 33.999 77.499s11 61.833 11 100.5c-16 0 -29.833 5.83301 -41.5 17.5s-17.5 25.5 -17.5 41.5c0 17.333 5.5 31.5 16.5 42.5s25.5 16.5 43.5 16.5c19.333 0 33.833 -6.83301 43.5 -20.5s14.5 -35.167 14.5 -64.5
c0 -40.667 -9.33301 -83.667 -28 -129s-39.667 -76.666 -63 -93.999z" />
    <glyph glyph-name="uni0327" unicode="&#x327;" horiz-adv-x="0" 
d="M239 -531c-53.333 0 -101 12.166 -143 36.499s-74 57.833 -96 100.5l41 23c39.333 -74 106 -111 200 -111c54 0 97.667 13.667 131 41s50 63 50 107c0 40 -13.333 72.5 -40 97.5s-61.667 37.5 -105 37.5c-24.667 0 -51.5 -4 -80.5 -12s-53.833 -18.333 -74.5 -31l-3 2
l87 269h52l-62 -190c20 4 35.667 6.83301 47 8.5s22 2.5 32 2.5c57.333 0 104.333 -17.167 141 -51.5s55 -78.166 55 -131.499c0 -58 -21.667 -105.5 -65 -142.5s-99 -55.5 -167 -55.5z" />
    <glyph glyph-name="uni0328" unicode="&#x328;" horiz-adv-x="0" 
d="M250 -530c-73.333 0 -133.331 22.0029 -179.998 66.0029s-70 96.667 -70 158c0 46.667 16.167 98.5 48.5 155.5s78.166 116.833 137.499 179.5h51c-58.667 -62.667 -104.167 -123.334 -136.5 -182.001s-48.5 -109.334 -48.5 -152.001c0 -45.333 17.167 -85.5 51.5 -120.5
s85.166 -52.5 152.499 -52.5c44 0 85.167 9.16699 123.5 27.5s75.833 47.833 112.5 88.5l34 -24c-30.667 -44.667 -70.667 -79.834 -120 -105.501s-101.333 -38.5 -156 -38.5z" />
    <glyph glyph-name="uni0394" unicode="&#x394;" horiz-adv-x="1660" 
d="M326 0l-33 22l498 1273h78l498 -1273l-33 -22h-1008zM347 43h966l-460 1201h-46z" />
    <glyph glyph-name="uni03A9" unicode="&#x3a9;" horiz-adv-x="1182" 
d="M189 0l-0.00195312 51.0029l221 2c-74.667 45.333 -134.5 112.666 -179.5 201.999s-67.5 186.333 -67.5 291c0 98 19.167 187 57.5 267s90 143.5 155 190.5s136.833 70.5 215.5 70.5c79.333 0 151.333 -23.667 216 -71s116.167 -110.833 154.5 -190.5
s57.5 -168.167 57.5 -265.5c0 -104.667 -22.333 -201.667 -67 -291s-104.667 -157 -180 -203l221 -2v-51h-358v65h12c38.667 0 76.5 13.333 113.5 40s70.5 62.834 100.5 108.501s53.833 97.667 71.5 156s26.5 118.833 26.5 181.5c0 84 -16.167 161.333 -48.5 232
s-76.166 127.167 -131.499 169.5s-118 63.5 -188 63.5c-69.333 0 -131.833 -21.167 -187.5 -63.5s-99.667 -98.833 -132 -169.5s-48.5 -148.667 -48.5 -234c0 -62.667 8.83301 -122.834 26.5 -180.501s41.334 -109.334 71.001 -155.001s63 -81.834 100 -108.501
s75.167 -40 114.5 -40h12v-65h-358z" />
    <glyph glyph-name="uni03BC" unicode="&#x3bc;" horiz-adv-x="1461" 
d="M331 -320c0 89.333 1.49902 166.497 4.49902 231.497s6.5 124.833 10.5 179.5s7.5 109.834 10.5 165.501s4.5 118.834 4.5 189.501v580h56v-624c0 -122 27 -216.5 81 -283.5s139 -100.5 255 -100.5c69.333 0 128.5 15.167 177.5 45.5s86.333 68.833 112 115.5
s38.5 94.334 38.5 143.001v704h56v-1026h-56v154c-18 -44 -45.667 -79.667 -83 -107s-78 -47.333 -122 -60s-85 -19 -123 -19c-86 0 -156.167 14.667 -210.5 44s-96.166 69.333 -125.499 120v-452h-86z" />
    <glyph glyph-name="pi" unicode="&#x3c0;" horiz-adv-x="1256" 
d="M409 0v969.999h-174v56h804v-56h-174v-823c0 -34.667 6 -58.5 18 -71.5s33.333 -19.5 64 -19.5v-56c-50 0 -85.5 11.333 -106.5 34s-31.5 60.334 -31.5 113.001v823h-344v-970h-56z" />
    <glyph glyph-name="Wgrave" unicode="&#x1e80;" horiz-adv-x="2552" 
d="M662 0l-498 1650h62l468 -1590l558 1590h48l558 -1590l468 1590h62l-498 -1650h-66l-548 1534l-548 -1534h-66zM1334 1809l-161 331l63 41l142 -345z" />
    <glyph glyph-name="wgrave" unicode="&#x1e81;" horiz-adv-x="1946" 
d="M581 0l-474 1024h64l428 -926l356 926h36l356 -926l428 926h64l-474 -1024h-36l-356 912l-356 -912h-36zM1031 1185l-161 331l63 41l142 -345z" />
    <glyph glyph-name="Wacute" unicode="&#x1e82;" horiz-adv-x="2552" 
d="M662 0l-498 1650h62l468 -1590l558 1590h48l558 -1590l468 1590h62l-498 -1650h-66l-548 1534l-548 -1534h-66zM1286 1809l-44 27l142 345l63 -41z" />
    <glyph glyph-name="wacute" unicode="&#x1e83;" horiz-adv-x="1946" 
d="M581 0l-474 1024h64l428 -926l356 926h36l356 -926l428 926h64l-474 -1024h-36l-356 912l-356 -912h-36zM983 1185l-44 27l142 345l63 -41z" />
    <glyph glyph-name="Wdieresis" unicode="&#x1e84;" horiz-adv-x="2552" 
d="M662 0l-498 1650h62l468 -1590l558 1590h48l558 -1590l468 1590h62l-498 -1650h-66l-548 1534l-548 -1534h-66zM1512 1974c-12.667 0 -23.834 4.83301 -33.501 14.5s-14.5 20.834 -14.5 33.501c0 13.333 4.83301 24.666 14.5 33.999s20.834 14 33.501 14
c13.333 0 24.666 -4.66699 33.999 -14s14 -20.666 14 -33.999c0 -12.667 -4.66699 -23.834 -14 -33.501s-20.666 -14.5 -33.999 -14.5zM1040 1974c-12.667 0 -23.834 4.83301 -33.501 14.5s-14.5 20.834 -14.5 33.501c0 13.333 4.83301 24.666 14.5 33.999
s20.834 14 33.501 14c13.333 0 24.666 -4.66699 33.999 -14s14 -20.666 14 -33.999c0 -12.667 -4.66699 -23.834 -14 -33.501s-20.666 -14.5 -33.999 -14.5z" />
    <glyph glyph-name="wdieresis" unicode="&#x1e85;" horiz-adv-x="1946" 
d="M581 0l-474 1024h64l428 -926l356 926h36l356 -926l428 926h64l-474 -1024h-36l-356 912l-356 -912h-36zM1209 1350c-12.667 0 -23.834 4.83301 -33.501 14.5s-14.5 20.834 -14.5 33.501c0 13.333 4.83301 24.666 14.5 33.999s20.834 14 33.501 14
c13.333 0 24.666 -4.66699 33.999 -14s14 -20.666 14 -33.999c0 -12.667 -4.66699 -23.834 -14 -33.501s-20.666 -14.5 -33.999 -14.5zM737 1350c-12.667 0 -23.834 4.83301 -33.501 14.5s-14.5 20.834 -14.5 33.501c0 13.333 4.83301 24.666 14.5 33.999
s20.834 14 33.501 14c13.333 0 24.666 -4.66699 33.999 -14s14 -20.666 14 -33.999c0 -12.667 -4.66699 -23.834 -14 -33.501s-20.666 -14.5 -33.999 -14.5z" />
    <glyph glyph-name="uni1E9E" unicode="&#x1e9e;" horiz-adv-x="1485" 
d="M872 -33c-64.667 0 -125.004 12.166 -181.004 36.499s-117 61.833 -183 112.5l31 49c56 -44.667 110.5 -79.834 163.5 -105.501s110.833 -38.5 173.5 -38.5c66.667 0 127.5 14.667 182.5 44s98.833 71.166 131.5 125.499s49 118.166 49 191.499
c0 60 -10.333 109.833 -31 149.5s-47.167 73 -79.5 100s-66.833 50.5 -103.5 70.5l-103.5 59c-32.333 19.333 -58.833 41.333 -79.5 66s-31 55.334 -31 92.001c0 32 7.5 58.667 22.5 80s33.5 41 55.5 59s44 37.833 66 59.5s40.5 48.334 55.5 80.001s22.5 72.5 22.5 122.5
c0 96.667 -29.667 171 -89 223s-133.666 78 -222.999 78c-119.333 0 -211.166 -45.333 -275.499 -136s-96.5 -214 -96.5 -370v-1115h-56v1121c0 110.667 16.667 208 50 292s82.166 149.667 146.499 197s142.833 71 235.5 71c70 0 132.667 -14 188 -42
s99.166 -68.667 131.499 -122s48.5 -118.333 48.5 -195c0 -54.667 -7.5 -99.667 -22.5 -135s-33.667 -64.833 -56 -88.5s-44.666 -44.5 -66.999 -62.5s-41 -36 -56 -54s-22.5 -39.667 -22.5 -65c0 -29.333 10.333 -54.166 31 -74.499s47.334 -39.333 80.001 -57l104 -57.5
c36.667 -20.667 71.334 -45.5 104.001 -74.5s59.334 -65.167 80.001 -108.5s31 -96.666 31 -159.999c0 -80.667 -18 -152.5 -54 -215.5s-86.167 -112.5 -150.5 -148.5s-138.5 -54 -222.5 -54z" />
    <glyph glyph-name="Ygrave" unicode="&#x1ef2;" horiz-adv-x="1460" 
d="M702 0v704l-550 946h68l510 -878l510 878h68l-550 -946v-704h-56zM788 1809l-161 331l63 41l142 -345z" />
    <glyph glyph-name="ygrave" unicode="&#x1ef3;" horiz-adv-x="1216" 
d="M387 -520l208 488l-488 1056h62l456 -988l420 988h62l-660 -1544h-60zM666 1185l-161 331l63 41l142 -345z" />
    <glyph glyph-name="endash" unicode="&#x2013;" horiz-adv-x="1246" 
d="M235 556v46h776v-46h-776z" />
    <glyph glyph-name="emdash" unicode="&#x2014;" horiz-adv-x="1972" 
d="M235 556v46h1502v-46h-1502z" />
    <glyph glyph-name="quoteleft" unicode="&#x2018;" horiz-adv-x="617" 
d="M312 1428c-16 0 -29.5 5.66699 -40.5 17s-16.5 28.666 -16.5 51.999c0 33.333 9.33301 68.333 28 105s37.334 62 56.001 76l10 -10c-8 -12 -14.667 -25.333 -20 -40s-9.33301 -30.5 -12 -47.5s-4 -35.833 -4 -56.5c13.333 0 24.666 -4.66699 33.999 -14
s14 -20.666 14 -33.999c0 -14 -4.5 -25.5 -13.5 -34.5s-20.833 -13.5 -35.5 -13.5z" />
    <glyph glyph-name="quoteright" unicode="&#x2019;" horiz-adv-x="615" 
d="M278 1430l-10 9.99805c8.66699 12.667 15.5 26.167 20.5 40.5s8.83301 30 11.5 47s4 35.833 4 56.5c-12.667 0 -23.834 4.83301 -33.501 14.5s-14.5 20.834 -14.5 33.501c0 14 4.5 25.5 13.5 34.5s20.833 13.5 35.5 13.5c16 0 29.5 -5.66699 40.5 -17
s16.5 -28.666 16.5 -51.999c0 -32.667 -9.16699 -67.5 -27.5 -104.5s-37.166 -62.5 -56.499 -76.5z" />
    <glyph glyph-name="quotesinglbase" unicode="&#x201a;" horiz-adv-x="709" 
d="M275 -186l-10 9.99805c8.66699 12.667 15.5 26.167 20.5 40.5s8.83301 30 11.5 47s4 35.833 4 56.5c-12.667 0 -23.834 4.83301 -33.501 14.5s-14.5 20.834 -14.5 33.501c0 14 4.5 25.5 13.5 34.5s20.833 13.5 35.5 13.5c16 0 29.5 -5.66699 40.5 -17
s16.5 -28.666 16.5 -51.999c0 -32.667 -9.16699 -67.5 -27.5 -104.5s-37.166 -62.5 -56.499 -76.5z" />
    <glyph glyph-name="quotedblleft" unicode="&#x201c;" horiz-adv-x="784" 
d="M470 1428c-16 0 -29.5 5.66699 -40.5 17s-16.5 28.666 -16.5 51.999c0 33.333 9.33301 68.333 28 105s37.334 62 56.001 76l10 -10c-8 -12 -14.667 -25.333 -20 -40s-9.33301 -30.5 -12 -47.5s-4 -35.833 -4 -56.5c13.333 0 24.666 -4.66699 33.999 -14
s14 -20.666 14 -33.999c0 -14 -4.5 -25.5 -13.5 -34.5s-20.833 -13.5 -35.5 -13.5zM320 1428c-16 0 -29.5 5.66699 -40.5 17s-16.5 28.666 -16.5 51.999c0 33.333 9.33301 68.333 28 105s37.334 62 56.001 76l10 -10c-8 -12 -14.667 -25.333 -20 -40
s-9.33301 -30.5 -12 -47.5s-4 -35.833 -4 -56.5c13.333 0 24.666 -4.66699 33.999 -14s14 -20.666 14 -33.999c0 -14 -4.5 -25.5 -13.5 -34.5s-20.833 -13.5 -35.5 -13.5z" />
    <glyph glyph-name="quotedblright" unicode="&#x201d;" horiz-adv-x="783" 
d="M435 1430l-10 9.99805c8.66699 12.667 15.5 26.167 20.5 40.5s8.83301 30 11.5 47s4 35.833 4 56.5c-12.667 0 -23.834 4.83301 -33.501 14.5s-14.5 20.834 -14.5 33.501c0 14 4.5 25.5 13.5 34.5s20.833 13.5 35.5 13.5c16 0 29.5 -5.66699 40.5 -17
s16.5 -28.666 16.5 -51.999c0 -32.667 -9.16699 -67.5 -27.5 -104.5s-37.166 -62.5 -56.499 -76.5zM285 1430l-10 9.99805c8.66699 12.667 15.5 26.167 20.5 40.5s8.83301 30 11.5 47s4 35.833 4 56.5c-12.667 0 -23.834 4.83301 -33.501 14.5s-14.5 20.834 -14.5 33.501
c0 14 4.5 25.5 13.5 34.5s20.833 13.5 35.5 13.5c16 0 29.5 -5.66699 40.5 -17s16.5 -28.666 16.5 -51.999c0 -32.667 -9.16699 -67.5 -27.5 -104.5s-37.166 -62.5 -56.499 -76.5z" />
    <glyph glyph-name="quotedblbase" unicode="&#x201e;" horiz-adv-x="743" 
d="M265 -186l-10 9.99805c8.66699 12.667 15.5 26.167 20.5 40.5s8.83301 30 11.5 47s4 35.833 4 56.5c-12.667 0 -23.834 4.83301 -33.501 14.5s-14.5 20.834 -14.5 33.501c0 14 4.5 25.5 13.5 34.5s20.833 13.5 35.5 13.5c16 0 29.5 -5.66699 40.5 -17
s16.5 -28.666 16.5 -51.999c0 -32.667 -9.16699 -67.5 -27.5 -104.5s-37.166 -62.5 -56.499 -76.5zM415 -186.002l-10 9.99805c8.66699 12.667 15.5 26.167 20.5 40.5s8.83301 30 11.5 47s4 35.833 4 56.5c-12.667 0 -23.834 4.83301 -33.501 14.5
s-14.5 20.834 -14.5 33.501c0 14 4.5 25.5 13.5 34.5s20.833 13.5 35.5 13.5c16 0 29.5 -5.66699 40.5 -17s16.5 -28.666 16.5 -51.999c0 -32.667 -9.16699 -67.5 -27.5 -104.5s-37.166 -62.5 -56.499 -76.5z" />
    <glyph glyph-name="dagger" unicode="&#x2020;" horiz-adv-x="1238" 
d="M591 0v1136h-374v56h374v528h56v-528h374v-56h-374v-1136h-56z" />
    <glyph glyph-name="daggerdbl" unicode="&#x2021;" horiz-adv-x="1274" 
d="M609 0v568h-374v56h374v512h-374v56h374v528h56v-528h374v-56h-374v-512h374v-56h-374v-568h-56z" />
    <glyph glyph-name="bullet" unicode="&#x2022;" horiz-adv-x="753" 
d="M377 656c-10.667 0 -20.5 2.66699 -29.5 8s-16.333 12.333 -22 21s-8.5 18.334 -8.5 29.001s2.83301 20.334 8.5 29.001s13 15.667 22 21s18.833 8 29.5 8s20.334 -2.66699 29.001 -8s15.667 -12.333 21 -21s8 -18.334 8 -29.001s-2.66699 -20.334 -8 -29.001
s-12.333 -15.667 -21 -21s-18.334 -8 -29.001 -8z" />
    <glyph glyph-name="ellipsis" unicode="&#x2026;" horiz-adv-x="1148" 
d="M367 -32c-8.66699 0 -16.667 2.16699 -24 6.5s-13.166 10.166 -17.499 17.499s-6.5 15.333 -6.5 24s2.16699 16.667 6.5 24s10.166 13.166 17.499 17.499s15.333 6.5 24 6.5s16.667 -2.16699 24 -6.5s13.166 -10.166 17.499 -17.499s6.5 -15.333 6.5 -24
s-2.16699 -16.667 -6.5 -24s-10.166 -13.166 -17.499 -17.499s-15.333 -6.5 -24 -6.5zM575 -32c-8.66699 0 -16.667 2.16699 -24 6.5s-13.166 10.166 -17.499 17.499s-6.5 15.333 -6.5 24s2.16699 16.667 6.5 24s10.166 13.166 17.499 17.499s15.333 6.5 24 6.5
s16.667 -2.16699 24 -6.5s13.166 -10.166 17.499 -17.499s6.5 -15.333 6.5 -24s-2.16699 -16.667 -6.5 -24s-10.166 -13.166 -17.499 -17.499s-15.333 -6.5 -24 -6.5zM781 -32c-8.66699 0 -16.667 2.16699 -24 6.5s-13.166 10.166 -17.499 17.499s-6.5 15.333 -6.5 24
s2.16699 16.667 6.5 24s10.166 13.166 17.499 17.499s15.333 6.5 24 6.5s16.667 -2.16699 24 -6.5s13.166 -10.166 17.499 -17.499s6.5 -15.333 6.5 -24s-2.16699 -16.667 -6.5 -24s-10.166 -13.166 -17.499 -17.499s-15.333 -6.5 -24 -6.5z" />
    <glyph glyph-name="perthousand" unicode="&#x2030;" horiz-adv-x="3230" 
d="M635 892c-74.667 0 -141.834 16.667 -201.501 50s-107 79.666 -142 138.999s-52.5 127.666 -52.5 204.999s17.5 145.666 52.5 204.999s82.333 105.666 142 138.999s126.834 50 201.501 50c74 0 140.667 -16.667 200 -50s106.5 -79.666 141.5 -138.999
s52.5 -127.666 52.5 -204.999s-17.5 -145.666 -52.5 -204.999s-82.167 -105.666 -141.5 -138.999s-126 -50 -200 -50zM611 0l960 1650h58l-960 -1650h-58zM634 945c65.333 0 123.334 14.499 174.001 43.499s90.667 69.167 120 120.5s44 110.333 44 177
s-14.667 125.667 -44 177s-69.333 91.5 -120 120.5s-108.334 43.5 -173.001 43.5c-65.333 0 -123.333 -14.5 -174 -43.5s-90.5 -69.167 -119.5 -120.5s-43.5 -110.333 -43.5 -177c0 -67.333 14.667 -126.666 44 -177.999s69.333 -91.333 120 -120s108 -43 172 -43z
M1611 -32.001c-74.667 0 -141.834 16.667 -201.501 50s-107 79.666 -142 138.999s-52.5 127.666 -52.5 204.999s17.5 145.666 52.5 204.999s82.333 105.666 142 138.999s126.834 50 201.501 50c74 0 140.833 -16.667 200.5 -50s106.834 -79.666 141.501 -138.999
s52 -127.666 52 -204.999s-17.333 -145.666 -52 -204.999s-81.834 -105.666 -141.501 -138.999s-126.5 -50 -200.5 -50zM2595 -32.001c-74 0 -140.666 16.667 -199.999 50s-106.5 79.666 -141.5 138.999s-52.5 127.666 -52.5 204.999s17.5 145.666 52.5 204.999
s82.167 105.666 141.5 138.999s126 50 200 50c74.667 0 141.834 -16.667 201.5 -50c59.667 -33.333 107 -79.666 142 -138.999s52.5 -127.666 52.5 -204.999s-17.5 -145.666 -52.5 -204.999s-82.333 -105.666 -142 -138.999s-126.834 -50 -201.501 -50zM1611 20.999
c64.667 0 122.334 14.5 173.001 43.5s90.667 69.167 120 120.5s44 110.333 44 177s-14.667 125.667 -44 177s-69.333 91.5 -120 120.5s-108.334 43.5 -173.001 43.5c-65.333 0 -123.333 -14.5 -174 -43.5s-90.5 -69.167 -119.5 -120.5s-43.5 -110.333 -43.5 -177
s14.5 -125.667 43.5 -177s68.833 -91.5 119.5 -120.5s108.667 -43.5 174 -43.5zM2595 20.999c65.333 0 123.333 14.5 174 43.5s90.5 69.167 119.5 120.5s43.5 110.333 43.5 177s-14.5 125.667 -43.5 177s-68.833 91.5 -119.5 120.5s-108.667 43.5 -174 43.5
c-64.667 0 -122.334 -14.5 -173 -43.5c-50.667 -29 -90.667 -69.167 -120 -120.5s-44 -110.333 -44 -177s14.667 -125.667 44 -177s69.333 -91.5 120 -120.5s108.334 -43.5 173 -43.5z" />
    <glyph glyph-name="guilsinglleft" unicode="&#x2039;" horiz-adv-x="763" 
d="M548 56l-390 500l390 500l46 -36l-362 -464l362 -464z" />
    <glyph glyph-name="guilsinglright" unicode="&#x203a;" horiz-adv-x="763" 
d="M215 56l-46 36l362 464l-362 464l46 36l390 -500z" />
    <glyph glyph-name="fraction" unicode="&#x2044;" horiz-adv-x="8" 
d="M-610 0l1160 1650h68l-1160 -1650h-68z" />
    <glyph glyph-name="uni2074" unicode="&#x2074;" horiz-adv-x="502" 
d="M364 1040v115h-339v25l342 470h31v-464h79v-31h-79v-115h-34zM71 1186h293v408z" />
    <glyph glyph-name="Euro" unicode="&#x20ac;" horiz-adv-x="2036" 
d="M1255 -30c-139.333 0 -267.166 27.6699 -383.499 83.0029s-213.833 132.666 -292.5 231.999s-132 215 -160 347h-162v46h154c-4 24 -7 48.5 -9 73.5s-3 49.833 -3 74.5c0 24 1 48 3 72s5 47.333 9 70h-154v46h162c21.333 97.333 57.833 186.666 109.5 267.999
s114.834 151.666 189.501 210.999s157.667 105.333 249 138s187.333 49 288 49c95.333 0 188 -15.333 278 -46s173.333 -75.334 250 -134.001l-36 -46c-70 55.333 -146.833 97.5 -230.5 126.5s-170.834 43.5 -261.501 43.5c-122.667 0 -237.334 -25.833 -344.001 -77.5
s-197.5 -123.334 -272.5 -215.001s-126.833 -197.5 -155.5 -317.5h1020v-46h-1030c-4.66699 -26.667 -8.16699 -51.667 -10.5 -75s-3.5 -45.666 -3.5 -66.999s1.16699 -44.166 3.5 -68.499s5.83301 -50.833 10.5 -79.5h1030v-46h-1022c28 -122 78.667 -228.333 152 -319
s163.333 -161.167 270 -211.5s224 -75.5 352 -75.5c91.333 0 179 14.167 263 42.5s161 69.5 231 123.5l36 -44c-74.667 -58 -157 -102.167 -247 -132.5s-184.333 -45.5 -283 -45.5z" />
    <glyph glyph-name="trademark" unicode="&#x2122;" 
d="M590 1134l69 516h41l155 -415l158 415h41l69 -516h-38l-63 441l-150 -407h-31l-151 407l-61 -441h-39zM382 1134v481h-161v35h362v-35h-160v-481h-41z" />
    <glyph glyph-name="uni2150" unicode="&#x2150;" horiz-adv-x="2088" 
d="M295 600v999h-35v51h82v-1050h-47zM232 0l1160 1650h68l-1160 -1650h-68zM1250 0l563 1004h-560v46h635v-21l-577 -1029h-61z" />
    <glyph glyph-name="uni2151" unicode="&#x2151;" horiz-adv-x="2330" 
d="M295 600v999h-35v51h82v-1050h-47zM232 0l1160 1650h68l-1160 -1650h-68zM1385 0l390.003 408.998c-26.667 -17.333 -56.334 -30.5 -89.001 -39.5s-67.334 -13.5 -104.001 -13.5c-70 0 -135.667 15.333 -197 46s-111 73.334 -149 128.001s-57 118.334 -57 191.001
c0 68.667 17.833 130 53.5 184s84.667 96.667 147 128s133.166 47 212.499 47c81.333 0 152.666 -16 213.999 -48s109.166 -75 143.499 -129s51.5 -114 51.5 -180c0 -32 -4.16699 -63.333 -12.5 -94s-20.666 -60 -36.999 -88s-36.166 -54.333 -59.499 -79l-441 -462h-66z
M1589 404.998c66.667 0 127 14.501 181 43.501s97 67.667 129 116s48 101.833 48 160.5c0 56 -14.667 107.167 -44 153.5s-70.5 83.333 -123.5 111s-115.167 41.5 -186.5 41.5c-68.667 0 -130.167 -13.333 -184.5 -40s-97.166 -63.334 -128.499 -110.001s-47 -100 -47 -160
c0 -62 16.333 -116.667 49 -164s76.167 -84.5 130.5 -111.5s113.166 -40.5 176.499 -40.5z" />
    <glyph glyph-name="uni2152" unicode="&#x2152;" horiz-adv-x="2822" 
d="M295 600v999h-35v51h82v-1050h-47zM232 0l1160 1650h68l-1160 -1650h-68zM1285 0v999h-35v51h82v-1050h-47zM2152 -21c-104 0 -195 23.167 -273 69.5s-138.667 110.833 -182 193.5s-65 178.667 -65 288s21.667 205.333 65 288s104 147 182 193s169 69 273 69
s195 -23 273 -69s138.667 -110.333 182 -193s65 -178.667 65 -288s-21.667 -205.333 -65 -288s-104 -147.167 -182 -193.5s-169 -69.5 -273 -69.5zM2152 28c92.667 0 173.667 21 243 63s123.333 100.667 162 176s58 163 58 263c0 100.667 -19.333 188.5 -58 263.5
s-92.834 133.5 -162.501 175.5s-150.5 63 -242.5 63s-172.667 -21 -242 -63s-123.5 -100.5 -162.5 -175.5s-58.5 -162.833 -58.5 -263.5c0 -100 19.333 -187.667 58 -263s92.834 -134 162.501 -176s150.5 -63 242.5 -63z" />
    </font>
</defs>
</svg>
